<?xml version="1.0" encoding="iso-8859-1"?>
<!-- Generator: Adobe Illustrator 19.0.0, SVG Export Plug-In . SVG Version: 6.00 Build 0)  -->
<svg version="1.1" id="Layer_1" xmlns="http://www.w3.org/2000/svg" xmlns:xlink="http://www.w3.org/1999/xlink" x="0px" y="0px"
	 viewBox="0 0 511.985 511.985" style="enable-background:new 0 0 511.985 511.985;" xml:space="preserve">
<g>
	<g>
		<path d="M404.38,511.985l-127.73-348.888c6.937-5.875,11.342-14.633,11.342-24.429c0-17.671-14.327-31.999-31.999-31.999
			c-17.671,0-31.999,14.328-31.999,31.999c0,9.796,4.406,18.554,11.344,24.429l-127.73,348.888H404.38z M370.13,480.485
			l-180.837-53.826h161.136L370.13,480.485z M255.992,127.996c5.883,0,10.664,4.789,10.664,10.672
			c0,5.882-4.781,10.664-10.664,10.664c-5.882,0-10.664-4.781-10.664-10.664S250.11,127.996,255.992,127.996z M255.289,170.651
			c0.234,0,0.469,0.016,0.703,0.016s0.469-0.016,0.703-0.016l31.249,85.341h-63.904L255.289,170.651z M295.758,277.336l10.28,28.092
			l-83.887-28.092H295.758z M209.541,295.6l72.827,24.39h-81.756L209.541,295.6z M319.177,341.334l17.031,46.498l-139.316-46.498
			H319.177z M185.909,360.145l135.332,45.187H169.37L185.909,360.145z M329.523,490.657H138.13l18.812-51.374L329.523,490.657z"/>
	</g>
</g>
<g>
	<g>
		<path d="M337.476,87.905c-1.891-2.984-5.219-4.969-9.016-4.969c-5.875,0-10.656,4.781-10.656,10.672
			c0,2.257,0.703,4.343,1.906,6.07c7.125,11.617,10.938,25.007,10.938,38.991c0,13.976-3.812,27.374-10.938,38.983
			c-1.203,1.725-1.906,3.819-1.906,6.077c0,5.891,4.781,10.664,10.656,10.664c3.797,0,7.125-1.977,9.016-4.96
			c9.203-14.726,14.515-32.124,14.515-50.764C351.991,120.029,346.679,102.631,337.476,87.905z"/>
	</g>
</g>
<g>
	<g>
		<path d="M387.442,47.451l-0.016,0.008c-1.875-3.016-5.219-5.023-9.031-5.023c-5.875,0-10.656,4.781-10.656,10.671
			c0,2.242,0.688,4.32,1.875,6.047c5.594,7.96,10.328,16.5,14.156,25.546c7.219,17.078,10.875,35.233,10.875,53.967
			c0,18.726-3.656,36.881-10.875,53.967c-3.828,9.04-8.562,17.578-14.156,25.547c-1.188,1.719-1.875,3.797-1.875,6.046
			c0,5.891,4.781,10.664,10.656,10.664c3.812,0,7.156-2.008,9.031-5.016l0.016,0.008c17.984-25.882,28.546-57.311,28.546-91.216
			C415.987,104.762,405.425,73.325,387.442,47.451z"/>
	</g>
</g>
<g>
	<g>
		<path d="M435.44,4.586l-0.016,0.016C433.486,1.829,430.299,0,426.643,0c-5.875,0-10.656,4.781-10.656,10.672
			c0,2.477,0.844,4.75,2.25,6.562c0.047,0.055,0.094,0.102,0.141,0.156c9.797,13.062,17.952,27.242,24.358,42.397
			c10.562,24.976,15.906,51.506,15.906,78.88c0,27.366-5.344,53.904-15.906,78.88c-6.406,15.148-14.562,29.327-24.358,42.397
			c-0.047,0.055-0.094,0.102-0.141,0.156c-1.406,1.805-2.25,4.086-2.25,6.562c0,5.891,4.781,10.672,10.656,10.672
			c3.656,0,6.843-1.828,8.78-4.594h0.016c27.984-37.382,44.546-83.794,44.546-134.074C479.986,88.38,463.424,41.968,435.44,4.586z"
			/>
	</g>
</g>
<g>
	<g>
		<path d="M181.331,138.667c0-13.984,3.812-27.374,10.953-38.991c1.195-1.727,1.906-3.812,1.906-6.07
			c0-5.891-4.781-10.672-10.671-10.672c-3.789,0-7.117,1.984-9.015,4.969c-9.195,14.726-14.508,32.124-14.508,50.764
			c0,18.64,5.312,36.038,14.508,50.764c1.898,2.985,5.226,4.961,9.015,4.961c5.891,0,10.671-4.773,10.671-10.664
			c0-2.258-0.711-4.352-1.906-6.078C185.143,166.041,181.331,152.643,181.331,138.667z"/>
	</g>
</g>
<g>
	<g>
		<path d="M128.216,192.636c-7.218-17.085-10.882-35.241-10.882-53.967c0-18.734,3.664-36.89,10.882-53.967
			c3.828-9.046,8.562-17.585,14.156-25.546c1.179-1.727,1.882-3.805,1.882-6.047c0-5.89-4.781-10.671-10.671-10.671
			c-3.812,0-7.148,2.008-9.031,5.023l-0.008-0.008c-17.992,25.874-28.546,57.311-28.546,91.216
			c0,33.905,10.555,65.334,28.546,91.216l0.008-0.009c1.883,3.008,5.218,5.016,9.031,5.016c5.891,0,10.671-4.773,10.671-10.664
			c0-2.25-0.703-4.328-1.882-6.046C136.778,210.213,132.044,201.675,128.216,192.636z"/>
	</g>
</g>
<g>
	<g>
		<path d="M93.742,260.102c-0.048-0.055-0.095-0.102-0.134-0.157c-9.789-13.07-17.945-27.249-24.359-42.397
			c-10.562-24.976-15.914-51.514-15.914-78.88c0-27.374,5.352-53.905,15.914-78.88c6.414-15.156,14.57-29.336,24.359-42.398
			c0.039-0.055,0.086-0.102,0.133-0.156c1.414-1.812,2.257-4.085,2.257-6.562C95.997,4.781,91.224,0,85.333,0
			c-3.641,0-6.843,1.828-8.773,4.602l-0.016-0.016C48.57,41.968,32,88.38,32,138.668c0,50.28,16.57,96.692,44.546,134.074h0.016
			c1.93,2.766,5.132,4.594,8.773,4.594c5.891,0,10.664-4.781,10.664-10.672C95.998,264.187,95.156,261.906,93.742,260.102z"/>
	</g>
</g>
<g>
</g>
<g>
</g>
<g>
</g>
<g>
</g>
<g>
</g>
<g>
</g>
<g>
</g>
<g>
</g>
<g>
</g>
<g>
</g>
<g>
</g>
<g>
</g>
<g>
</g>
<g>
</g>
<g>
</g>
</svg>
