<?xml version="1.0" encoding="utf-8"?>
<!-- Svg Vector Icons : http://www.onlinewebfonts.com/icon -->
<!DOCTYPE svg PUBLIC "-//W3C//DTD SVG 1.1//EN" "http://www.w3.org/Graphics/SVG/1.1/DTD/svg11.dtd">
<svg version="1.1" xmlns="http://www.w3.org/2000/svg" xmlns:xlink="http://www.w3.org/1999/xlink" x="0px" y="0px" viewBox="0 0 1000 1000" enable-background="new 0 0 1000 1000" xml:space="preserve">
<metadata> Svg Vector Icons : http://www.onlinewebfonts.com/icon </metadata>
<g><g><path d="M899.2,672.4v-36.3V418.4V200.6c0-19.9-16.3-36.3-36.3-36.3H137.1c-20,0-36.3,16.3-36.3,36.3v217.8v217.8v36.3L10,781.3c0,30,24.4,54.4,54.4,54.4h871.1c30,0,54.4-24.4,54.4-54.4L899.2,672.4z M572.6,817.6H427.4c-5,0-9.1-4-9.1-9.1c0-5.1,4.1-9.1,9.1-9.1h145.2c5,0,9.1,4,9.1,9.1C581.6,813.6,577.6,817.6,572.6,817.6z M350.4,781.3l27.7-33.2h243.8l27.7,33.2H350.4z M848.1,608.2c0,17.5-14.3,31.7-31.6,31.7h-633c-17.4,0-31.6-14.3-31.6-31.7V228.6c0-17.5,14.3-31.7,31.6-31.7h633c17.4,0,31.6,14.3,31.6,31.7C848.1,228.6,848.1,608.2,848.1,608.2z"/></g><g></g><g></g><g></g><g></g><g></g><g></g><g></g><g></g><g></g><g></g><g></g><g></g><g></g><g></g><g></g></g>
</svg>