<?xml version="1.0" encoding="utf-8" standalone="no"?>
<!DOCTYPE svg PUBLIC "-//W3C//DTD SVG 1.1//EN"
  "http://www.w3.org/Graphics/SVG/1.1/DTD/svg11.dtd">
<!-- Created with matplotlib (https://matplotlib.org/) -->
<svg height="295.1pt" version="1.1" viewBox="0 0 575.9 295.1" width="575.9pt" xmlns="http://www.w3.org/2000/svg" xmlns:xlink="http://www.w3.org/1999/xlink">
 <metadata>
  <rdf:RDF xmlns:cc="http://creativecommons.org/ns#" xmlns:dc="http://purl.org/dc/elements/1.1/" xmlns:rdf="http://www.w3.org/1999/02/22-rdf-syntax-ns#">
   <cc:Work>
    <dc:type rdf:resource="http://purl.org/dc/dcmitype/StillImage"/>
    <dc:date>2020-11-21T21:55:15.046453</dc:date>
    <dc:format>image/svg+xml</dc:format>
    <dc:creator>
     <cc:Agent>
      <dc:title>Matplotlib v3.3.2, https://matplotlib.org/</dc:title>
     </cc:Agent>
    </dc:creator>
   </cc:Work>
  </rdf:RDF>
 </metadata>
 <defs>
  <style type="text/css">*{stroke-linecap:butt;stroke-linejoin:round;}</style>
 </defs>
 <g id="figure_1">
  <g id="patch_1">
   <path d="M 0 295.1 
L 575.9 295.1 
L 575.9 0 
L 0 0 
z
" style="fill:#ffffff;"/>
  </g>
  <g id="axes_1">
   <g id="patch_2">
    <path d="M 10.7 284.4 
L 568.7 284.4 
L 568.7 7.2 
L 10.7 7.2 
z
" style="fill:#ffffff;"/>
   </g>
   <g id="matplotlib.axis_1"/>
   <g id="matplotlib.axis_2"/>
   <g id="line2d_1">
    <path clip-path="url(#p97e9f5276d)" d="M 36.063636 19.8 
L 37.610896 19.912417 
L 39.158155 20.249334 
L 40.730779 20.820791 
L 42.354133 21.650995 
L 44.028216 22.759982 
L 45.778395 24.189721 
L 47.630033 25.997239 
L 49.583131 28.224046 
L 51.637688 30.910043 
L 53.844434 34.171599 
L 56.203371 38.067805 
L 58.739861 42.699901 
L 61.479271 48.176809 
L 64.497694 54.723607 
L 67.871227 62.59031 
L 71.777422 72.288427 
L 76.647484 85.012775 
L 94.732661 132.876604 
L 98.689586 142.375552 
L 102.189943 150.215574 
L 105.385921 156.839381 
L 108.32825 162.439707 
L 111.093024 167.236602 
L 113.705609 171.335319 
L 116.19137 174.831415 
L 118.575671 177.808484 
L 120.858512 180.311236 
L 123.065259 182.408085 
L 125.221276 184.153794 
L 127.326563 185.574705 
L 129.38112 186.697874 
L 131.435678 187.56915 
L 133.490235 188.198544 
L 135.570157 188.6012 
L 137.675444 188.782344 
L 139.856826 188.746376 
L 142.139667 188.485406 
L 144.574698 187.981371 
L 147.238013 187.198561 
L 150.231072 186.081026 
L 153.832888 184.487956 
L 159.286343 181.79865 
L 165.830488 178.625482 
L 169.45767 177.117996 
L 172.501458 176.089518 
L 175.215503 175.403392 
L 177.726629 174.995279 
L 180.085565 174.834 
L 182.343041 174.898861 
L 184.549788 175.183308 
L 186.73117 175.690216 
L 188.887187 176.42019 
L 191.068568 177.396733 
L 193.275315 178.632405 
L 195.532792 180.156316 
L 197.840998 181.985564 
L 200.250664 184.183873 
L 202.761789 186.780653 
L 205.425104 189.862535 
L 208.265974 193.500342 
L 211.309762 197.766823 
L 214.683295 202.889991 
L 218.513395 209.124756 
L 223.256632 217.296393 
L 239.718455 246.054484 
L 243.320272 251.670799 
L 246.440155 256.136281 
L 249.25566 259.786373 
L 251.817515 262.752499 
L 254.201816 265.178724 
L 256.408563 267.115209 
L 258.488485 268.65228 
L 260.466947 269.842802 
L 262.34395 270.718495 
L 264.144859 271.319694 
L 265.895037 271.674683 
L 267.619851 271.799663 
L 269.319299 271.70182 
L 271.018748 271.382908 
L 272.743561 270.83236 
L 274.49374 270.0402 
L 276.294648 268.980712 
L 278.171651 267.615189 
L 280.124749 265.915424 
L 282.179306 263.8269 
L 284.335323 261.313456 
L 286.618164 258.306471 
L 289.053195 254.726175 
L 291.691145 250.440607 
L 294.532014 245.390966 
L 297.677262 239.332001 
L 301.202984 232.041939 
L 305.362829 222.909741 
L 310.993837 209.964808 
L 322.33195 183.799457 
L 326.618619 174.545393 
L 330.220435 167.283531 
L 333.416413 161.32851 
L 336.308012 156.397492 
L 338.996692 152.243548 
L 341.482453 148.801128 
L 343.816024 145.937179 
L 346.022771 143.570029 
L 348.128058 141.630023 
L 350.131885 140.078141 
L 352.059618 138.859861 
L 353.936621 137.934081 
L 355.762894 137.280103 
L 357.538437 136.876559 
L 359.313981 136.699818 
L 361.089524 136.746606 
L 362.890432 137.017931 
L 364.74207 137.526035 
L 366.644438 138.282348 
L 368.622901 139.310913 
L 370.702823 140.645398 
L 372.934934 142.348831 
L 375.319236 144.455234 
L 377.906456 147.043816 
L 380.77269 150.233368 
L 384.044763 154.216863 
L 388.052418 159.465099 
L 394.469738 168.297823 
L 400.937789 177.075954 
L 404.81862 181.971729 
L 408.039962 185.687757 
L 410.880832 188.633271 
L 413.442687 190.978093 
L 415.801623 192.845085 
L 418.00837 194.315801 
L 420.088292 195.441487 
L 422.066755 196.26539 
L 423.969123 196.821333 
L 425.820761 197.132906 
L 427.621669 197.213412 
L 429.422577 197.0705 
L 431.223485 196.701376 
L 433.024393 196.104403 
L 434.876032 195.25256 
L 436.778399 194.126828 
L 438.731497 192.709268 
L 440.786054 190.936196 
L 442.916706 188.799125 
L 445.174183 186.213863 
L 447.558484 183.139801 
L 450.120339 179.465258 
L 452.885114 175.099264 
L 455.903537 169.903995 
L 459.251705 163.686218 
L 463.132535 155.992112 
L 468.027962 145.760243 
L 483.551283 112.935834 
L 487.381384 105.569772 
L 490.704187 99.645343 
L 493.697245 94.751601 
L 496.436655 90.688552 
L 498.973145 87.314192 
L 501.357447 84.505758 
L 503.589558 82.21228 
L 505.694845 80.358009 
L 507.724038 78.862518 
L 509.65177 77.712293 
L 511.528773 76.848831 
L 513.355046 76.253281 
L 515.13059 75.905911 
L 516.906133 75.786175 
L 518.681676 75.892269 
L 520.45722 76.221339 
L 522.283493 76.788335 
L 524.160496 77.606982 
L 526.113593 78.705189 
L 528.168151 80.121559 
L 530.324168 81.882416 
L 532.632374 84.061142 
L 535.118135 86.722221 
L 537.806814 89.933833 
L 540.799873 93.866906 
L 543.336364 97.451215 
L 543.336364 97.451215 
" style="fill:none;stroke:#1f77b4;stroke-linecap:square;stroke-width:1.5;"/>
   </g>
   <g id="patch_3">
    <path d="M 10.7 284.4 
L 10.7 7.2 
" style="fill:none;stroke:#000000;stroke-linecap:square;stroke-linejoin:miter;stroke-width:0.8;"/>
   </g>
   <g id="patch_4">
    <path d="M 568.7 284.4 
L 568.7 7.2 
" style="fill:none;stroke:#000000;stroke-linecap:square;stroke-linejoin:miter;stroke-width:0.8;"/>
   </g>
   <g id="patch_5">
    <path d="M 10.7 284.4 
L 568.7 284.4 
" style="fill:none;stroke:#000000;stroke-linecap:square;stroke-linejoin:miter;stroke-width:0.8;"/>
   </g>
   <g id="patch_6">
    <path d="M 10.7 7.2 
L 568.7 7.2 
" style="fill:none;stroke:#000000;stroke-linecap:square;stroke-linejoin:miter;stroke-width:0.8;"/>
   </g>
  </g>
 </g>
 <defs>
  <clipPath id="p97e9f5276d">
   <rect height="277.2" width="558" x="10.7" y="7.2"/>
  </clipPath>
 </defs>
</svg>
