<?xml version="1.0" encoding="utf-8" standalone="no"?>
<!DOCTYPE svg PUBLIC "-//W3C//DTD SVG 1.1//EN"
  "http://www.w3.org/Graphics/SVG/1.1/DTD/svg11.dtd">
<!-- Created with matplotlib (https://matplotlib.org/) -->
<svg height="295.1pt" version="1.1" viewBox="0 0 575.9 295.1" width="575.9pt" xmlns="http://www.w3.org/2000/svg" xmlns:xlink="http://www.w3.org/1999/xlink">
 <metadata>
  <rdf:RDF xmlns:cc="http://creativecommons.org/ns#" xmlns:dc="http://purl.org/dc/elements/1.1/" xmlns:rdf="http://www.w3.org/1999/02/22-rdf-syntax-ns#">
   <cc:Work>
    <dc:type rdf:resource="http://purl.org/dc/dcmitype/StillImage"/>
    <dc:date>2020-11-21T21:55:15.139456</dc:date>
    <dc:format>image/svg+xml</dc:format>
    <dc:creator>
     <cc:Agent>
      <dc:title>Matplotlib v3.3.2, https://matplotlib.org/</dc:title>
     </cc:Agent>
    </dc:creator>
   </cc:Work>
  </rdf:RDF>
 </metadata>
 <defs>
  <style type="text/css">*{stroke-linecap:butt;stroke-linejoin:round;}</style>
 </defs>
 <g id="figure_1">
  <g id="patch_1">
   <path d="M 0 295.1 
L 575.9 295.1 
L 575.9 0 
L 0 0 
z
" style="fill:#ffffff;"/>
  </g>
  <g id="axes_1">
   <g id="patch_2">
    <path d="M 10.7 284.4 
L 568.7 284.4 
L 568.7 7.2 
L 10.7 7.2 
z
" style="fill:#ffffff;"/>
   </g>
   <g id="matplotlib.axis_1"/>
   <g id="matplotlib.axis_2"/>
   <g id="LineCollection_1">
    <path clip-path="url(#pb4011edafa)" d="M 36.063636 164.592428 
L 36.063636 19.8 
" style="fill:none;stroke:#1f77b4;stroke-width:1.5;"/>
    <path clip-path="url(#pb4011edafa)" d="M 62.762201 164.592428 
L 62.762201 48.60847 
" style="fill:none;stroke:#1f77b4;stroke-width:1.5;"/>
    <path clip-path="url(#pb4011edafa)" d="M 89.460766 164.592428 
L 89.460766 113.71275 
" style="fill:none;stroke:#1f77b4;stroke-width:1.5;"/>
    <path clip-path="url(#pb4011edafa)" d="M 116.15933 164.592428 
L 116.15933 170.17891 
" style="fill:none;stroke:#1f77b4;stroke-width:1.5;"/>
    <path clip-path="url(#pb4011edafa)" d="M 142.857895 164.592428 
L 142.857895 188.823543 
" style="fill:none;stroke:#1f77b4;stroke-width:1.5;"/>
    <path clip-path="url(#pb4011edafa)" d="M 169.556459 164.592428 
L 169.556459 179.422723 
" style="fill:none;stroke:#1f77b4;stroke-width:1.5;"/>
    <path clip-path="url(#pb4011edafa)" d="M 196.255024 164.592428 
L 196.255024 176.818977 
" style="fill:none;stroke:#1f77b4;stroke-width:1.5;"/>
    <path clip-path="url(#pb4011edafa)" d="M 222.953589 164.592428 
L 222.953589 204.061602 
" style="fill:none;stroke:#1f77b4;stroke-width:1.5;"/>
    <path clip-path="url(#pb4011edafa)" d="M 249.652153 164.592428 
L 249.652153 248.177649 
" style="fill:none;stroke:#1f77b4;stroke-width:1.5;"/>
    <path clip-path="url(#pb4011edafa)" d="M 276.350718 164.592428 
L 276.350718 271.8 
" style="fill:none;stroke:#1f77b4;stroke-width:1.5;"/>
    <path clip-path="url(#pb4011edafa)" d="M 303.049282 164.592428 
L 303.049282 249.500453 
" style="fill:none;stroke:#1f77b4;stroke-width:1.5;"/>
    <path clip-path="url(#pb4011edafa)" d="M 329.747847 164.592428 
L 329.747847 193.93143 
" style="fill:none;stroke:#1f77b4;stroke-width:1.5;"/>
    <path clip-path="url(#pb4011edafa)" d="M 356.446411 164.592428 
L 356.446411 146.323552 
" style="fill:none;stroke:#1f77b4;stroke-width:1.5;"/>
    <path clip-path="url(#pb4011edafa)" d="M 383.144976 164.592428 
L 383.144976 139.628423 
" style="fill:none;stroke:#1f77b4;stroke-width:1.5;"/>
    <path clip-path="url(#pb4011edafa)" d="M 409.843541 164.592428 
L 409.843541 168.699951 
" style="fill:none;stroke:#1f77b4;stroke-width:1.5;"/>
    <path clip-path="url(#pb4011edafa)" d="M 436.542105 164.592428 
L 436.542105 195.600087 
" style="fill:none;stroke:#1f77b4;stroke-width:1.5;"/>
    <path clip-path="url(#pb4011edafa)" d="M 463.24067 164.592428 
L 463.24067 185.240913 
" style="fill:none;stroke:#1f77b4;stroke-width:1.5;"/>
    <path clip-path="url(#pb4011edafa)" d="M 489.939234 164.592428 
L 489.939234 138.109596 
" style="fill:none;stroke:#1f77b4;stroke-width:1.5;"/>
    <path clip-path="url(#pb4011edafa)" d="M 516.637799 164.592428 
L 516.637799 89.616495 
" style="fill:none;stroke:#1f77b4;stroke-width:1.5;"/>
    <path clip-path="url(#pb4011edafa)" d="M 543.336364 164.592428 
L 543.336364 77.016503 
" style="fill:none;stroke:#1f77b4;stroke-width:1.5;"/>
   </g>
   <g id="line2d_1">
    <defs>
     <path d="M 0 3 
C 0.795609 3 1.55874 2.683901 2.12132 2.12132 
C 2.683901 1.55874 3 0.795609 3 0 
C 3 -0.795609 2.683901 -1.55874 2.12132 -2.12132 
C 1.55874 -2.683901 0.795609 -3 0 -3 
C -0.795609 -3 -1.55874 -2.683901 -2.12132 -2.12132 
C -2.683901 -1.55874 -3 -0.795609 -3 0 
C -3 0.795609 -2.683901 1.55874 -2.12132 2.12132 
C -1.55874 2.683901 -0.795609 3 0 3 
z
" id="mba365d77d6" style="stroke:#1f77b4;"/>
    </defs>
    <g clip-path="url(#pb4011edafa)">
     <use style="fill:#1f77b4;stroke:#1f77b4;" x="36.063636" xlink:href="#mba365d77d6" y="19.8"/>
     <use style="fill:#1f77b4;stroke:#1f77b4;" x="62.762201" xlink:href="#mba365d77d6" y="48.60847"/>
     <use style="fill:#1f77b4;stroke:#1f77b4;" x="89.460766" xlink:href="#mba365d77d6" y="113.71275"/>
     <use style="fill:#1f77b4;stroke:#1f77b4;" x="116.15933" xlink:href="#mba365d77d6" y="170.17891"/>
     <use style="fill:#1f77b4;stroke:#1f77b4;" x="142.857895" xlink:href="#mba365d77d6" y="188.823543"/>
     <use style="fill:#1f77b4;stroke:#1f77b4;" x="169.556459" xlink:href="#mba365d77d6" y="179.422723"/>
     <use style="fill:#1f77b4;stroke:#1f77b4;" x="196.255024" xlink:href="#mba365d77d6" y="176.818977"/>
     <use style="fill:#1f77b4;stroke:#1f77b4;" x="222.953589" xlink:href="#mba365d77d6" y="204.061602"/>
     <use style="fill:#1f77b4;stroke:#1f77b4;" x="249.652153" xlink:href="#mba365d77d6" y="248.177649"/>
     <use style="fill:#1f77b4;stroke:#1f77b4;" x="276.350718" xlink:href="#mba365d77d6" y="271.8"/>
     <use style="fill:#1f77b4;stroke:#1f77b4;" x="303.049282" xlink:href="#mba365d77d6" y="249.500453"/>
     <use style="fill:#1f77b4;stroke:#1f77b4;" x="329.747847" xlink:href="#mba365d77d6" y="193.93143"/>
     <use style="fill:#1f77b4;stroke:#1f77b4;" x="356.446411" xlink:href="#mba365d77d6" y="146.323552"/>
     <use style="fill:#1f77b4;stroke:#1f77b4;" x="383.144976" xlink:href="#mba365d77d6" y="139.628423"/>
     <use style="fill:#1f77b4;stroke:#1f77b4;" x="409.843541" xlink:href="#mba365d77d6" y="168.699951"/>
     <use style="fill:#1f77b4;stroke:#1f77b4;" x="436.542105" xlink:href="#mba365d77d6" y="195.600087"/>
     <use style="fill:#1f77b4;stroke:#1f77b4;" x="463.24067" xlink:href="#mba365d77d6" y="185.240913"/>
     <use style="fill:#1f77b4;stroke:#1f77b4;" x="489.939234" xlink:href="#mba365d77d6" y="138.109596"/>
     <use style="fill:#1f77b4;stroke:#1f77b4;" x="516.637799" xlink:href="#mba365d77d6" y="89.616495"/>
     <use style="fill:#1f77b4;stroke:#1f77b4;" x="543.336364" xlink:href="#mba365d77d6" y="77.016503"/>
    </g>
   </g>
   <g id="line2d_2">
    <path clip-path="url(#pb4011edafa)" d="M 36.063636 164.592428 
L 543.336364 164.592428 
" style="fill:none;stroke:#d62728;stroke-linecap:square;stroke-width:1.5;"/>
   </g>
   <g id="patch_3">
    <path d="M 10.7 284.4 
L 10.7 7.2 
" style="fill:none;stroke:#000000;stroke-linecap:square;stroke-linejoin:miter;stroke-width:0.8;"/>
   </g>
   <g id="patch_4">
    <path d="M 568.7 284.4 
L 568.7 7.2 
" style="fill:none;stroke:#000000;stroke-linecap:square;stroke-linejoin:miter;stroke-width:0.8;"/>
   </g>
   <g id="patch_5">
    <path d="M 10.7 284.4 
L 568.7 284.4 
" style="fill:none;stroke:#000000;stroke-linecap:square;stroke-linejoin:miter;stroke-width:0.8;"/>
   </g>
   <g id="patch_6">
    <path d="M 10.7 7.2 
L 568.7 7.2 
" style="fill:none;stroke:#000000;stroke-linecap:square;stroke-linejoin:miter;stroke-width:0.8;"/>
   </g>
  </g>
 </g>
 <defs>
  <clipPath id="pb4011edafa">
   <rect height="277.2" width="558" x="10.7" y="7.2"/>
  </clipPath>
 </defs>
</svg>
