<?xml version="1.0" encoding="UTF-8" standalone="no"?>
<svg
   xmlns:dc="http://purl.org/dc/elements/1.1/"
   xmlns:cc="http://creativecommons.org/ns#"
   xmlns:rdf="http://www.w3.org/1999/02/22-rdf-syntax-ns#"
   xmlns:svg="http://www.w3.org/2000/svg"
   xmlns="http://www.w3.org/2000/svg"
   xmlns:xlink="http://www.w3.org/1999/xlink"
   xmlns:sodipodi="http://sodipodi.sourceforge.net/DTD/sodipodi-0.dtd"
   xmlns:inkscape="http://www.inkscape.org/namespaces/inkscape"
   width="1920"
   height="1080"
   viewBox="0 0 508 285.75"
   version="1.1"
   id="svg1099"
   sodipodi:docname="gr_espectro_fc.svg"
   inkscape:version="1.0.1 (3bc2e813f5, 2020-09-07)"
   inkscape:export-filename="D:\Users\grigo\Google Drive\Facultad\Balseiro\PI Lucas\git-repository\digital-beamforming\Tesis\images\07-GNURadio\gr_espectro_fc.png"
   inkscape:export-xdpi="299"
   inkscape:export-ydpi="299">
  <defs
     id="defs1093">
    <marker
       style="overflow:visible;"
       id="marker2436"
       refX="0.0"
       refY="0.0"
       orient="auto"
       inkscape:stockid="Arrow1Mend"
       inkscape:isstock="true">
      <path
         transform="scale(0.4) rotate(180) translate(10,0)"
         style="fill-rule:evenodd;stroke:#000000;stroke-width:1pt;stroke-opacity:1;fill:#000000;fill-opacity:1"
         d="M 0.0,0.0 L 5.0,-5.0 L -12.5,0.0 L 5.0,5.0 L 0.0,0.0 z "
         id="path2434" />
    </marker>
    <marker
       style="overflow:visible"
       id="marker2384"
       refX="0.0"
       refY="0.0"
       orient="auto"
       inkscape:stockid="Arrow1Mstart"
       inkscape:isstock="true">
      <path
         transform="scale(0.4) translate(10,0)"
         style="fill-rule:evenodd;stroke:#000000;stroke-width:1pt;stroke-opacity:1;fill:#000000;fill-opacity:1"
         d="M 0.0,0.0 L 5.0,-5.0 L -12.5,0.0 L 5.0,5.0 L 0.0,0.0 z "
         id="path2382" />
    </marker>
    <marker
       style="overflow:visible;"
       id="marker2336"
       refX="0.0"
       refY="0.0"
       orient="auto"
       inkscape:stockid="Arrow1Mend"
       inkscape:isstock="true"
       inkscape:collect="always">
      <path
         transform="scale(0.4) rotate(180) translate(10,0)"
         style="fill-rule:evenodd;stroke:#000000;stroke-width:1pt;stroke-opacity:1;fill:#000000;fill-opacity:1"
         d="M 0.0,0.0 L 5.0,-5.0 L -12.5,0.0 L 5.0,5.0 L 0.0,0.0 z "
         id="path2334" />
    </marker>
    <marker
       style="overflow:visible;"
       id="Arrow1Mend"
       refX="0.0"
       refY="0.0"
       orient="auto"
       inkscape:stockid="Arrow1Mend"
       inkscape:isstock="true"
       inkscape:collect="always">
      <path
         transform="scale(0.4) rotate(180) translate(10,0)"
         style="fill-rule:evenodd;stroke:#000000;stroke-width:1pt;stroke-opacity:1;fill:#000000;fill-opacity:1"
         d="M 0.0,0.0 L 5.0,-5.0 L -12.5,0.0 L 5.0,5.0 L 0.0,0.0 z "
         id="path1798" />
    </marker>
    <marker
       style="overflow:visible"
       id="Arrow1Mstart"
       refX="0.0"
       refY="0.0"
       orient="auto"
       inkscape:stockid="Arrow1Mstart"
       inkscape:isstock="true"
       inkscape:collect="always">
      <path
         transform="scale(0.4) translate(10,0)"
         style="fill-rule:evenodd;stroke:#000000;stroke-width:1pt;stroke-opacity:1;fill:#000000;fill-opacity:1"
         d="M 0.0,0.0 L 5.0,-5.0 L -12.5,0.0 L 5.0,5.0 L 0.0,0.0 z "
         id="path1795" />
    </marker>
    <marker
       style="overflow:visible"
       id="Arrow1Lstart"
       refX="0.0"
       refY="0.0"
       orient="auto"
       inkscape:stockid="Arrow1Lstart"
       inkscape:isstock="true">
      <path
         transform="scale(0.8) translate(12.5,0)"
         style="fill-rule:evenodd;stroke:#000000;stroke-width:1pt;stroke-opacity:1;fill:#000000;fill-opacity:1"
         d="M 0.0,0.0 L 5.0,-5.0 L -12.5,0.0 L 5.0,5.0 L 0.0,0.0 z "
         id="path1789" />
    </marker>
    <g
       id="g8418">
      <symbol
         overflow="visible"
         id="symbol5190">
        <path
           style="stroke:none;"
           d=""
           id="path9430" />
      </symbol>
      <symbol
         overflow="visible"
         id="symbol5161">
        <path
           style="stroke:none;"
           d="M 3.65625 -3.984375 L 4.515625 -3.984375 C 4.71875 -3.984375 4.8125 -3.984375 4.8125 -4.1875 C 4.8125 -4.296875 4.71875 -4.296875 4.546875 -4.296875 L 3.71875 -4.296875 L 3.921875 -5.4375 C 3.96875 -5.640625 4.109375 -6.34375 4.171875 -6.46875 C 4.25 -6.65625 4.421875 -6.8125 4.640625 -6.8125 C 4.671875 -6.8125 4.9375 -6.8125 5.125 -6.625 C 4.6875 -6.59375 4.578125 -6.234375 4.578125 -6.09375 C 4.578125 -5.859375 4.765625 -5.734375 4.953125 -5.734375 C 5.21875 -5.734375 5.5 -5.96875 5.5 -6.34375 C 5.5 -6.796875 5.046875 -7.03125 4.640625 -7.03125 C 4.296875 -7.03125 3.671875 -6.84375 3.375 -5.859375 C 3.3125 -5.65625 3.28125 -5.546875 3.046875 -4.296875 L 2.359375 -4.296875 C 2.15625 -4.296875 2.046875 -4.296875 2.046875 -4.109375 C 2.046875 -3.984375 2.140625 -3.984375 2.328125 -3.984375 L 2.984375 -3.984375 L 2.25 -0.046875 C 2.0625 0.921875 1.890625 1.828125 1.375 1.828125 C 1.328125 1.828125 1.09375 1.828125 0.890625 1.640625 C 1.359375 1.609375 1.453125 1.25 1.453125 1.109375 C 1.453125 0.875 1.265625 0.75 1.078125 0.75 C 0.8125 0.75 0.53125 0.984375 0.53125 1.359375 C 0.53125 1.796875 0.96875 2.046875 1.375 2.046875 C 1.921875 2.046875 2.328125 1.453125 2.5 1.078125 C 2.828125 0.453125 3.046875 -0.75 3.0625 -0.828125 Z M 3.65625 -3.984375 "
           id="path5202" />
      </symbol>
      <symbol
         overflow="visible"
         id="symbol3579">
        <path
           style="stroke:none;"
           d=""
           id="path4964" />
      </symbol>
      <symbol
         overflow="visible"
         id="symbol6102">
        <path
           style="stroke:none;"
           d="M 3.046875 -2.671875 C 2.796875 -2.625 2.703125 -2.4375 2.703125 -2.28125 C 2.703125 -2.09375 2.84375 -2.015625 2.96875 -2.015625 C 3.125 -2.015625 3.359375 -2.125 3.359375 -2.46875 C 3.359375 -2.9375 2.828125 -3.078125 2.453125 -3.078125 C 1.40625 -3.078125 0.4375 -2.109375 0.4375 -1.140625 C 0.4375 -0.546875 0.84375 0.0625 1.71875 0.0625 C 2.90625 0.0625 3.453125 -0.625 3.453125 -0.71875 C 3.453125 -0.765625 3.390625 -0.84375 3.328125 -0.84375 C 3.296875 -0.84375 3.28125 -0.828125 3.21875 -0.765625 C 2.671875 -0.125 1.859375 -0.125 1.734375 -0.125 C 1.234375 -0.125 1.015625 -0.46875 1.015625 -0.90625 C 1.015625 -1.09375 1.109375 -1.859375 1.46875 -2.34375 C 1.734375 -2.6875 2.09375 -2.875 2.453125 -2.875 C 2.546875 -2.875 2.875 -2.859375 3.046875 -2.671875 Z M 3.046875 -2.671875 "
           id="path526" />
      </symbol>
    </g>
    <g
       id="g8603">
      <symbol
         overflow="visible"
         id="symbol4605">
        <path
           style="stroke:none;"
           d=""
           id="path3574" />
      </symbol>
      <symbol
         overflow="visible"
         id="symbol9710">
        <path
           style="stroke:none;"
           d="M 6.5625 -2.296875 C 6.734375 -2.296875 6.921875 -2.296875 6.921875 -2.5 C 6.921875 -2.6875 6.734375 -2.6875 6.5625 -2.6875 L 1.171875 -2.6875 C 1 -2.6875 0.828125 -2.6875 0.828125 -2.5 C 0.828125 -2.296875 1 -2.296875 1.171875 -2.296875 Z M 6.5625 -2.296875 "
           id="path452" />
      </symbol>
      <symbol
         overflow="visible"
         id="symbol3494">
        <path
           style="stroke:none;"
           d=""
           id="path909" />
      </symbol>
      <symbol
         overflow="visible"
         id="symbol8124">
        <path
           style="stroke:none;"
           d="M 3.65625 -3.984375 L 4.515625 -3.984375 C 4.71875 -3.984375 4.8125 -3.984375 4.8125 -4.1875 C 4.8125 -4.296875 4.71875 -4.296875 4.546875 -4.296875 L 3.71875 -4.296875 L 3.921875 -5.4375 C 3.96875 -5.640625 4.109375 -6.34375 4.171875 -6.46875 C 4.25 -6.65625 4.421875 -6.8125 4.640625 -6.8125 C 4.671875 -6.8125 4.9375 -6.8125 5.125 -6.625 C 4.6875 -6.59375 4.578125 -6.234375 4.578125 -6.09375 C 4.578125 -5.859375 4.765625 -5.734375 4.953125 -5.734375 C 5.21875 -5.734375 5.5 -5.96875 5.5 -6.34375 C 5.5 -6.796875 5.046875 -7.03125 4.640625 -7.03125 C 4.296875 -7.03125 3.671875 -6.84375 3.375 -5.859375 C 3.3125 -5.65625 3.28125 -5.546875 3.046875 -4.296875 L 2.359375 -4.296875 C 2.15625 -4.296875 2.046875 -4.296875 2.046875 -4.109375 C 2.046875 -3.984375 2.140625 -3.984375 2.328125 -3.984375 L 2.984375 -3.984375 L 2.25 -0.046875 C 2.0625 0.921875 1.890625 1.828125 1.375 1.828125 C 1.328125 1.828125 1.09375 1.828125 0.890625 1.640625 C 1.359375 1.609375 1.453125 1.25 1.453125 1.109375 C 1.453125 0.875 1.265625 0.75 1.078125 0.75 C 0.8125 0.75 0.53125 0.984375 0.53125 1.359375 C 0.53125 1.796875 0.96875 2.046875 1.375 2.046875 C 1.921875 2.046875 2.328125 1.453125 2.5 1.078125 C 2.828125 0.453125 3.046875 -0.75 3.0625 -0.828125 Z M 3.65625 -3.984375 "
           id="path653" />
      </symbol>
      <symbol
         overflow="visible"
         id="symbol343">
        <path
           style="stroke:none;"
           d=""
           id="path5499" />
      </symbol>
      <symbol
         overflow="visible"
         id="symbol7154">
        <path
           style="stroke:none;"
           d="M 3.046875 -2.671875 C 2.796875 -2.625 2.703125 -2.4375 2.703125 -2.28125 C 2.703125 -2.09375 2.84375 -2.015625 2.96875 -2.015625 C 3.125 -2.015625 3.359375 -2.125 3.359375 -2.46875 C 3.359375 -2.9375 2.828125 -3.078125 2.453125 -3.078125 C 1.40625 -3.078125 0.4375 -2.109375 0.4375 -1.140625 C 0.4375 -0.546875 0.84375 0.0625 1.71875 0.0625 C 2.90625 0.0625 3.453125 -0.625 3.453125 -0.71875 C 3.453125 -0.765625 3.390625 -0.84375 3.328125 -0.84375 C 3.296875 -0.84375 3.28125 -0.828125 3.21875 -0.765625 C 2.671875 -0.125 1.859375 -0.125 1.734375 -0.125 C 1.234375 -0.125 1.015625 -0.46875 1.015625 -0.90625 C 1.015625 -1.09375 1.109375 -1.859375 1.46875 -2.34375 C 1.734375 -2.6875 2.09375 -2.875 2.453125 -2.875 C 2.546875 -2.875 2.875 -2.859375 3.046875 -2.671875 Z M 3.046875 -2.671875 "
           id="path1451" />
      </symbol>
    </g>
    <g
       id="g7685">
      <symbol
         overflow="visible"
         id="symbol393">
        <path
           style="stroke:none;"
           d=""
           id="path9938" />
      </symbol>
      <symbol
         overflow="visible"
         id="symbol6916">
        <path
           style="stroke:none;"
           d="M 1.59375 -0.78125 C 1.5 -0.390625 1.46875 -0.3125 0.6875 -0.3125 C 0.515625 -0.3125 0.421875 -0.3125 0.421875 -0.109375 C 0.421875 0 0.515625 0 0.6875 0 L 4.25 0 C 5.828125 0 7 -1.171875 7 -2.15625 C 7 -2.875 6.421875 -3.453125 5.453125 -3.5625 C 6.484375 -3.75 7.53125 -4.484375 7.53125 -5.4375 C 7.53125 -6.171875 6.875 -6.8125 5.6875 -6.8125 L 2.328125 -6.8125 C 2.140625 -6.8125 2.046875 -6.8125 2.046875 -6.609375 C 2.046875 -6.5 2.140625 -6.5 2.328125 -6.5 C 2.34375 -6.5 2.53125 -6.5 2.703125 -6.484375 C 2.875 -6.453125 2.96875 -6.453125 2.96875 -6.3125 C 2.96875 -6.28125 2.953125 -6.25 2.9375 -6.125 Z M 3.09375 -3.65625 L 3.71875 -6.125 C 3.8125 -6.46875 3.828125 -6.5 4.25 -6.5 L 5.546875 -6.5 C 6.421875 -6.5 6.625 -5.90625 6.625 -5.46875 C 6.625 -4.59375 5.765625 -3.65625 4.5625 -3.65625 Z M 2.65625 -0.3125 C 2.515625 -0.3125 2.5 -0.3125 2.4375 -0.3125 C 2.328125 -0.328125 2.296875 -0.34375 2.296875 -0.421875 C 2.296875 -0.453125 2.296875 -0.46875 2.359375 -0.640625 L 3.046875 -3.421875 L 4.921875 -3.421875 C 5.875 -3.421875 6.078125 -2.6875 6.078125 -2.265625 C 6.078125 -1.28125 5.1875 -0.3125 4 -0.3125 Z M 2.65625 -0.3125 "
           id="path9481" />
      </symbol>
      <symbol
         overflow="visible"
         id="symbol6714">
        <path
           style="stroke:none;"
           d="M 9.140625 -5.65625 C 9.390625 -6.09375 9.625 -6.453125 10.265625 -6.5 C 10.34375 -6.515625 10.453125 -6.515625 10.453125 -6.703125 C 10.453125 -6.734375 10.40625 -6.8125 10.328125 -6.8125 C 10.09375 -6.8125 9.8125 -6.78125 9.5625 -6.78125 C 9.21875 -6.78125 8.859375 -6.8125 8.515625 -6.8125 C 8.46875 -6.8125 8.328125 -6.8125 8.328125 -6.625 C 8.328125 -6.515625 8.421875 -6.5 8.484375 -6.5 C 8.71875 -6.484375 9.078125 -6.40625 9.078125 -6.109375 C 9.078125 -6 9.015625 -5.921875 8.9375 -5.78125 L 6.25 -1.09375 L 5.875 -6.03125 C 5.875 -6.234375 5.859375 -6.484375 6.578125 -6.5 C 6.75 -6.5 6.84375 -6.5 6.84375 -6.703125 C 6.84375 -6.796875 6.734375 -6.8125 6.703125 -6.8125 C 6.296875 -6.8125 5.875 -6.78125 5.484375 -6.78125 C 5.25 -6.78125 4.671875 -6.8125 4.4375 -6.8125 C 4.375 -6.8125 4.25 -6.8125 4.25 -6.609375 C 4.25 -6.5 4.34375 -6.5 4.484375 -6.5 C 4.921875 -6.5 5 -6.4375 5.015625 -6.25 L 5.078125 -5.484375 L 2.546875 -1.09375 L 2.171875 -6.140625 C 2.171875 -6.265625 2.171875 -6.484375 2.9375 -6.5 C 3.03125 -6.5 3.140625 -6.5 3.140625 -6.703125 C 3.140625 -6.8125 3.015625 -6.8125 3 -6.8125 C 2.609375 -6.8125 2.1875 -6.78125 1.78125 -6.78125 C 1.421875 -6.78125 1.0625 -6.8125 0.734375 -6.8125 C 0.671875 -6.8125 0.546875 -6.8125 0.546875 -6.625 C 0.546875 -6.5 0.640625 -6.5 0.796875 -6.5 C 1.296875 -6.5 1.3125 -6.40625 1.328125 -6.125 L 1.78125 -0.046875 C 1.78125 0.140625 1.796875 0.21875 1.9375 0.21875 C 2.046875 0.21875 2.078125 0.15625 2.171875 0.015625 L 5.109375 -5.078125 L 5.46875 -0.046875 C 5.5 0.171875 5.515625 0.21875 5.625 0.21875 C 5.765625 0.21875 5.828125 0.125 5.875 0.03125 Z M 9.140625 -5.65625 "
           id="path9922" />
      </symbol>
    </g>
    <g
       id="g5934">
      <symbol
         overflow="visible"
         id="symbol8903">
        <path
           style="stroke:none;"
           d=""
           id="path3405" />
      </symbol>
      <symbol
         overflow="visible"
         id="symbol8510">
        <path
           style="stroke:none;"
           d="M 1.578125 -7.125 C 1.578125 -7.296875 1.578125 -7.484375 1.390625 -7.484375 C 1.1875 -7.484375 1.1875 -7.296875 1.1875 -7.125 L 1.1875 2.140625 C 1.1875 2.3125 1.1875 2.5 1.390625 2.5 C 1.578125 2.5 1.578125 2.3125 1.578125 2.140625 Z M 1.578125 -7.125 "
           id="path413" />
      </symbol>
      <symbol
         overflow="visible"
         id="symbol2076">
        <path
           style="stroke:none;"
           d=""
           id="path5978" />
      </symbol>
      <symbol
         overflow="visible"
         id="symbol375">
        <path
           style="stroke:none;"
           d="M 6.4375 -6.921875 C 6.4375 -6.953125 6.40625 -7.03125 6.3125 -7.03125 C 6.265625 -7.03125 6.265625 -7.015625 6.140625 -6.875 L 5.65625 -6.3125 C 5.40625 -6.78125 4.890625 -7.03125 4.234375 -7.03125 C 2.96875 -7.03125 1.78125 -5.875 1.78125 -4.671875 C 1.78125 -3.875 2.296875 -3.40625 2.8125 -3.265625 L 3.875 -2.984375 C 4.25 -2.890625 4.796875 -2.734375 4.796875 -1.921875 C 4.796875 -1.03125 3.984375 -0.09375 3 -0.09375 C 2.359375 -0.09375 1.25 -0.3125 1.25 -1.546875 C 1.25 -1.78125 1.3125 -2.03125 1.3125 -2.078125 C 1.328125 -2.125 1.328125 -2.140625 1.328125 -2.15625 C 1.328125 -2.25 1.265625 -2.265625 1.21875 -2.265625 C 1.171875 -2.265625 1.140625 -2.25 1.109375 -2.21875 C 1.078125 -2.1875 0.515625 0.09375 0.515625 0.125 C 0.515625 0.171875 0.5625 0.21875 0.625 0.21875 C 0.671875 0.21875 0.6875 0.203125 0.8125 0.0625 L 1.296875 -0.5 C 1.71875 0.078125 2.40625 0.21875 2.984375 0.21875 C 4.34375 0.21875 5.515625 -1.109375 5.515625 -2.34375 C 5.515625 -3.03125 5.171875 -3.375 5.03125 -3.515625 C 4.796875 -3.734375 4.640625 -3.78125 3.765625 -4 C 3.53125 -4.0625 3.1875 -4.171875 3.09375 -4.1875 C 2.828125 -4.28125 2.484375 -4.5625 2.484375 -5.09375 C 2.484375 -5.90625 3.28125 -6.75 4.234375 -6.75 C 5.046875 -6.75 5.65625 -6.3125 5.65625 -5.203125 C 5.65625 -4.890625 5.625 -4.703125 5.625 -4.640625 C 5.625 -4.640625 5.625 -4.546875 5.734375 -4.546875 C 5.84375 -4.546875 5.859375 -4.578125 5.890625 -4.75 Z M 6.4375 -6.921875 "
           id="path4307" />
      </symbol>
      <symbol
         overflow="visible"
         id="symbol7194">
        <path
           style="stroke:none;"
           d="M 3.65625 -3.984375 L 4.515625 -3.984375 C 4.71875 -3.984375 4.8125 -3.984375 4.8125 -4.1875 C 4.8125 -4.296875 4.71875 -4.296875 4.546875 -4.296875 L 3.71875 -4.296875 L 3.921875 -5.4375 C 3.96875 -5.640625 4.109375 -6.34375 4.171875 -6.46875 C 4.25 -6.65625 4.421875 -6.8125 4.640625 -6.8125 C 4.671875 -6.8125 4.9375 -6.8125 5.125 -6.625 C 4.6875 -6.59375 4.578125 -6.234375 4.578125 -6.09375 C 4.578125 -5.859375 4.765625 -5.734375 4.953125 -5.734375 C 5.21875 -5.734375 5.5 -5.96875 5.5 -6.34375 C 5.5 -6.796875 5.046875 -7.03125 4.640625 -7.03125 C 4.296875 -7.03125 3.671875 -6.84375 3.375 -5.859375 C 3.3125 -5.65625 3.28125 -5.546875 3.046875 -4.296875 L 2.359375 -4.296875 C 2.15625 -4.296875 2.046875 -4.296875 2.046875 -4.109375 C 2.046875 -3.984375 2.140625 -3.984375 2.328125 -3.984375 L 2.984375 -3.984375 L 2.25 -0.046875 C 2.0625 0.921875 1.890625 1.828125 1.375 1.828125 C 1.328125 1.828125 1.09375 1.828125 0.890625 1.640625 C 1.359375 1.609375 1.453125 1.25 1.453125 1.109375 C 1.453125 0.875 1.265625 0.75 1.078125 0.75 C 0.8125 0.75 0.53125 0.984375 0.53125 1.359375 C 0.53125 1.796875 0.96875 2.046875 1.375 2.046875 C 1.921875 2.046875 2.328125 1.453125 2.5 1.078125 C 2.828125 0.453125 3.046875 -0.75 3.0625 -0.828125 Z M 3.65625 -3.984375 "
           id="path8099" />
      </symbol>
      <symbol
         overflow="visible"
         id="symbol4932">
        <path
           style="stroke:none;"
           d=""
           id="path6127" />
      </symbol>
      <symbol
         overflow="visible"
         id="symbol8859">
        <path
           style="stroke:none;"
           d="M 3.296875 2.390625 C 3.296875 2.359375 3.296875 2.34375 3.125 2.171875 C 1.890625 0.921875 1.5625 -0.96875 1.5625 -2.5 C 1.5625 -4.234375 1.9375 -5.96875 3.171875 -7.203125 C 3.296875 -7.328125 3.296875 -7.34375 3.296875 -7.375 C 3.296875 -7.453125 3.265625 -7.484375 3.203125 -7.484375 C 3.09375 -7.484375 2.203125 -6.796875 1.609375 -5.53125 C 1.109375 -4.4375 0.984375 -3.328125 0.984375 -2.5 C 0.984375 -1.71875 1.09375 -0.515625 1.640625 0.625 C 2.25 1.84375 3.09375 2.5 3.203125 2.5 C 3.265625 2.5 3.296875 2.46875 3.296875 2.390625 Z M 3.296875 2.390625 "
           id="path3890" />
      </symbol>
      <symbol
         overflow="visible"
         id="symbol8538">
        <path
           style="stroke:none;"
           d="M 2.875 -2.5 C 2.875 -3.265625 2.765625 -4.46875 2.21875 -5.609375 C 1.625 -6.828125 0.765625 -7.484375 0.671875 -7.484375 C 0.609375 -7.484375 0.5625 -7.4375 0.5625 -7.375 C 0.5625 -7.34375 0.5625 -7.328125 0.75 -7.140625 C 1.734375 -6.15625 2.296875 -4.578125 2.296875 -2.5 C 2.296875 -0.78125 1.9375 0.96875 0.703125 2.21875 C 0.5625 2.34375 0.5625 2.359375 0.5625 2.390625 C 0.5625 2.453125 0.609375 2.5 0.671875 2.5 C 0.765625 2.5 1.671875 1.8125 2.25 0.546875 C 2.765625 -0.546875 2.875 -1.65625 2.875 -2.5 Z M 2.875 -2.5 "
           id="path4838" />
      </symbol>
    </g>
  </defs>
  <sodipodi:namedview
     id="base"
     pagecolor="#ffffff"
     bordercolor="#666666"
     borderopacity="1.0"
     inkscape:pageopacity="0.0"
     inkscape:pageshadow="2"
     inkscape:zoom="1.979899"
     inkscape:cx="489.47044"
     inkscape:cy="326.63938"
     inkscape:document-units="mm"
     inkscape:current-layer="layer1"
     inkscape:document-rotation="0"
     showgrid="true"
     units="px"
     showborder="false"
     inkscape:snap-grids="true"
     inkscape:window-width="1920"
     inkscape:window-height="1017"
     inkscape:window-x="-8"
     inkscape:window-y="-8"
     inkscape:window-maximized="1">
    <inkscape:grid
       type="xygrid"
       id="grid1662"
       spacingx="2.6458333"
       spacingy="2.6458333" />
  </sodipodi:namedview>
  <metadata
     id="metadata1096">
    <rdf:RDF>
      <cc:Work
         rdf:about="">
        <dc:format>image/svg+xml</dc:format>
        <dc:type
           rdf:resource="http://purl.org/dc/dcmitype/StillImage" />
        <dc:title />
      </cc:Work>
    </rdf:RDF>
  </metadata>
  <g
     inkscape:label="Layer 1"
     inkscape:groupmode="layer"
     id="layer1">
    <path
       style="fill:#ff0000;stroke:#ff0000;stroke-width:0.111001px;stroke-linecap:butt;stroke-linejoin:miter;stroke-opacity:1"
       d="m 161.39583,92.604166 5.29167,-13.229167 5.29166,13.229167 z"
       id="path1141"
       sodipodi:nodetypes="cccc" />
    <path
       style="fill:#008000;stroke:#008000;stroke-width:0.105833px;stroke-linecap:butt;stroke-linejoin:miter;stroke-opacity:1"
       d="M 185.20833,92.604166 V 82.020832 h 10.58333 v 10.583334 z"
       id="path1143" />
    <path
       style="fill:#000080;stroke:#000080;stroke-width:0.111001px;stroke-linecap:butt;stroke-linejoin:miter;stroke-opacity:1"
       d="m 171.97916,92.604166 c 0,0 0.82599,-13.24846 2.7103,-13.249294 1.77551,-7.98e-4 2.75309,5.535262 3.87338,5.479197 1.25888,-0.063 1.86202,-5.466515 3.897,-5.502821 1.52007,-0.02712 2.74849,13.272918 2.74849,13.272918 z"
       id="path1145"
       sodipodi:nodetypes="cssscc" />
    <path
       style="fill:none;stroke:#000000;stroke-width:0.5;stroke-linecap:butt;stroke-linejoin:miter;stroke-miterlimit:4;stroke-dasharray:none;stroke-opacity:1;marker-end:url(#marker2336)"
       d="m 132.29166,97.895832 0,-44.979166"
       id="path1746"
       sodipodi:nodetypes="cc" />
    <path
       style="fill:#ff0000;stroke:#ff0000;stroke-width:0.111001px;stroke-linecap:butt;stroke-linejoin:miter;stroke-opacity:1"
       d="M 103.1875,92.604166 97.89583,79.374999 92.60417,92.604166 Z"
       id="path1141-0"
       sodipodi:nodetypes="cccc" />
    <path
       style="fill:#008000;stroke:#008000;stroke-width:0.105833px;stroke-linecap:butt;stroke-linejoin:miter;stroke-opacity:1"
       d="M 79.375,92.604166 V 82.020832 H 68.79167 v 10.583334 z"
       id="path1143-7" />
    <path
       style="fill:#000080;stroke:#000080;stroke-width:0.111001px;stroke-linecap:butt;stroke-linejoin:miter;stroke-opacity:1"
       d="m 92.60417,92.604166 c 0,0 -0.82599,-13.24846 -2.7103,-13.249294 -1.77551,-7.98e-4 -2.75309,5.535262 -3.87338,5.479197 -1.25888,-0.063 -1.86202,-5.466515 -3.897,-5.502821 C 80.60342,79.304128 79.375,92.604166 79.375,92.604166 Z"
       id="path1145-2"
       sodipodi:nodetypes="cssscc" />
    <path
       style="fill:none;stroke:#000000;stroke-width:0.5;stroke-linecap:butt;stroke-linejoin:miter;stroke-miterlimit:4;stroke-dasharray:none;stroke-opacity:1;marker-start:url(#Arrow1Mstart);marker-end:url(#Arrow1Mend)"
       d="M 58.20833,92.604166 H 206.375"
       id="path1137-4"
       sodipodi:nodetypes="cc" />
    <g
       inkscape:label=""
       transform="matrix(0.49999312,0,0,0.49999312,130.41721,57.535636)"
       id="g2149">
      <g
         id="g1746">
        <g
           style="fill:#000000;fill-opacity:1"
           id="g5060">
          <use
             xlink:href="#symbol5161"
             x="91.925003"
             y="81.962997"
             id="use1765"
             width="100%"
             height="100%" />
        </g>
        <g
           style="fill:#000000;fill-opacity:1"
           id="g6074">
          <use
             xlink:href="#symbol6102"
             x="96.803001"
             y="83.457001"
             id="use9658"
             width="100%"
             height="100%" />
        </g>
      </g>
    </g>
    <g
       inkscape:label=""
       transform="matrix(0.49999312,0,0,0.49999312,34.212314,57.535636)"
       id="g2222">
      <g
         id="g1927">
        <g
           style="fill:#000000;fill-opacity:1"
           id="g722">
          <use
             xlink:href="#symbol9710"
             x="91.925003"
             y="81.962997"
             id="use7981"
             width="100%"
             height="100%" />
        </g>
        <g
           style="fill:#000000;fill-opacity:1"
           id="g8997">
          <use
             xlink:href="#symbol8124"
             x="99.674004"
             y="81.962997"
             id="use3758"
             width="100%"
             height="100%" />
        </g>
        <g
           style="fill:#000000;fill-opacity:1"
           id="g8534">
          <use
             xlink:href="#symbol7154"
             x="104.552"
             y="83.457001"
             id="use2200"
             width="100%"
             height="100%" />
        </g>
      </g>
    </g>
    <path
       style="fill:none;stroke:#000000;stroke-width:0.265;stroke-linecap:butt;stroke-linejoin:miter;stroke-miterlimit:4;stroke-dasharray:none;stroke-opacity:1"
       d="m 178.59464,91.281166 v 2.646"
       id="path2248" />
    <path
       style="fill:none;stroke:#000000;stroke-width:0.264999;stroke-linecap:butt;stroke-linejoin:miter;stroke-miterlimit:4;stroke-dasharray:none;stroke-opacity:1"
       d="m 85.988688,91.281166 v 2.646"
       id="path2248-1" />
    <path
       style="fill:none;stroke:#666666;stroke-width:0.26458299;stroke-linecap:butt;stroke-linejoin:miter;stroke-opacity:1;stroke-miterlimit:4;stroke-dasharray:0.26458299, 2.11666388999999988;stroke-dashoffset:0"
       d="M 161.39583,71.437499 V 92.604166"
       id="path2492" />
    <path
       style="fill:none;stroke:#666666;stroke-width:0.264583;stroke-linecap:butt;stroke-linejoin:miter;stroke-miterlimit:4;stroke-dasharray:0.264583, 2.11666;stroke-dashoffset:0;stroke-opacity:1"
       d="M 195.79166,71.437499 V 92.604166"
       id="path2492-2" />
    <path
       style="fill:none;stroke:#000000;stroke-width:0.264583px;stroke-linecap:butt;stroke-linejoin:miter;stroke-opacity:1;marker-start:url(#marker2384);marker-end:url(#marker2436)"
       d="m 161.39583,71.437499 34.39583,0"
       id="path2380"
       sodipodi:nodetypes="cc" />
    <g
       inkscape:label=""
       transform="matrix(0.49998222,0,0,0.49998222,127.90061,28.785668)"
       id="g2598">
      <g
         id="g4042">
        <g
           style="fill:#000000;fill-opacity:1"
           id="g6551">
          <use
             xlink:href="#symbol6916"
             x="91.925003"
             y="81.962997"
             id="use8444"
             width="100%"
             height="100%" />
        </g>
        <g
           style="fill:#000000;fill-opacity:1"
           id="g6677">
          <use
             xlink:href="#symbol6714"
             x="99.979759"
             y="81.962997"
             id="use878"
             width="100%"
             height="100%" />
        </g>
      </g>
    </g>
    <g
       inkscape:label=""
       transform="matrix(0.49998122,0,0,0.49998122,88.318895,14.693413)"
       id="g2784">
      <g
         id="g9142">
        <g
           style="fill:#000000;fill-opacity:1"
           id="g8764">
          <use
             xlink:href="#symbol8510"
             x="91.925003"
             y="81.962997"
             id="use1695"
             width="100%"
             height="100%" />
        </g>
        <g
           style="fill:#000000;fill-opacity:1"
           id="g7337">
          <use
             xlink:href="#symbol375"
             x="94.693001"
             y="81.962997"
             id="use7050"
             width="100%"
             height="100%" />
        </g>
        <g
           style="fill:#000000;fill-opacity:1"
           id="g5020">
          <use
             xlink:href="#symbol8859"
             x="101.376"
             y="81.962997"
             id="use1384"
             width="100%"
             height="100%" />
        </g>
        <g
           style="fill:#000000;fill-opacity:1"
           id="g9284">
          <use
             xlink:href="#symbol7194"
             x="105.25"
             y="81.962997"
             id="use518"
             width="100%"
             height="100%" />
        </g>
        <g
           style="fill:#000000;fill-opacity:1"
           id="g7035">
          <use
             xlink:href="#symbol8538"
             x="111.2"
             y="81.962997"
             id="use2564"
             width="100%"
             height="100%" />
        </g>
        <g
           style="fill:#000000;fill-opacity:1"
           id="g6606">
          <use
             xlink:href="#symbol8510"
             x="115.075"
             y="81.962997"
             id="use106"
             width="100%"
             height="100%" />
        </g>
      </g>
    </g>
  </g>
</svg>
