<?xml version="1.0" encoding="UTF-8" standalone="no"?>
<svg
   xmlns:dc="http://purl.org/dc/elements/1.1/"
   xmlns:cc="http://creativecommons.org/ns#"
   xmlns:rdf="http://www.w3.org/1999/02/22-rdf-syntax-ns#"
   xmlns:svg="http://www.w3.org/2000/svg"
   xmlns="http://www.w3.org/2000/svg"
   xmlns:xlink="http://www.w3.org/1999/xlink"
   xmlns:sodipodi="http://sodipodi.sourceforge.net/DTD/sodipodi-0.dtd"
   xmlns:inkscape="http://www.inkscape.org/namespaces/inkscape"
   width="1920"
   height="1080"
   viewBox="0 0 508 285.75"
   version="1.1"
   id="svg8"
   sodipodi:docname="sistema_radomsampler.svg"
   inkscape:version="1.0.1 (3bc2e813f5, 2020-09-07)"
   inkscape:export-filename="D:\Users\grigo\Google Drive\Facultad\Balseiro\PI Lucas\git-repository\digital-beamforming\Tesis\images\06-Sistema\sistema_randomsampler.png"
   inkscape:export-xdpi="299"
   inkscape:export-ydpi="299">
  <defs
     id="defs2">
    <marker
       style="overflow:visible;"
       id="Arrow1Lend"
       refX="0.0"
       refY="0.0"
       orient="auto"
       inkscape:stockid="Arrow1Lend"
       inkscape:isstock="true">
      <path
         transform="scale(0.8) rotate(180) translate(12.5,0)"
         style="fill-rule:evenodd;stroke:#000000;stroke-width:1pt;stroke-opacity:1;fill:#000000;fill-opacity:1"
         d="M 0.0,0.0 L 5.0,-5.0 L -12.5,0.0 L 5.0,5.0 L 0.0,0.0 z "
         id="path951" />
    </marker>
    <g
       id="g3860">
      <symbol
         overflow="visible"
         id="symbol790">
        <path
           style="stroke:none;"
           d=""
           id="path7870" />
      </symbol>
      <symbol
         overflow="visible"
         id="symbol4500">
        <path
           style="stroke:none;"
           d="M 4.53125 -4.984375 C 4.53125 -5.640625 4.359375 -7.03125 3.34375 -7.03125 C 1.953125 -7.03125 0.421875 -4.21875 0.421875 -1.9375 C 0.421875 -1 0.703125 0.109375 1.609375 0.109375 C 3.015625 0.109375 4.53125 -2.75 4.53125 -4.984375 Z M 1.46875 -3.625 C 1.640625 -4.25 1.84375 -5.046875 2.25 -5.765625 C 2.515625 -6.25 2.875 -6.8125 3.328125 -6.8125 C 3.8125 -6.8125 3.875 -6.171875 3.875 -5.609375 C 3.875 -5.109375 3.796875 -4.609375 3.5625 -3.625 Z M 3.46875 -3.296875 C 3.359375 -2.84375 3.15625 -2 2.765625 -1.28125 C 2.421875 -0.59375 2.046875 -0.109375 1.609375 -0.109375 C 1.28125 -0.109375 1.078125 -0.40625 1.078125 -1.328125 C 1.078125 -1.75 1.140625 -2.328125 1.390625 -3.296875 Z M 3.46875 -3.296875 "
           id="path4301" />
      </symbol>
    </g>
    <g
       id="g953">
      <symbol
         overflow="visible"
         id="symbol5382">
        <path
           style="stroke:none;"
           d=""
           id="path3344" />
      </symbol>
      <symbol
         overflow="visible"
         id="symbol413">
        <path
           style="stroke:none;"
           d="M 3.296875 2.390625 C 3.296875 2.359375 3.296875 2.34375 3.125 2.171875 C 1.890625 0.921875 1.5625 -0.96875 1.5625 -2.5 C 1.5625 -4.234375 1.9375 -5.96875 3.171875 -7.203125 C 3.296875 -7.328125 3.296875 -7.34375 3.296875 -7.375 C 3.296875 -7.453125 3.265625 -7.484375 3.203125 -7.484375 C 3.09375 -7.484375 2.203125 -6.796875 1.609375 -5.53125 C 1.109375 -4.4375 0.984375 -3.328125 0.984375 -2.5 C 0.984375 -1.71875 1.09375 -0.515625 1.640625 0.625 C 2.25 1.84375 3.09375 2.5 3.203125 2.5 C 3.265625 2.5 3.296875 2.46875 3.296875 2.390625 Z M 3.296875 2.390625 "
           id="path6395" />
      </symbol>
      <symbol
         overflow="visible"
         id="symbol6976">
        <path
           style="stroke:none;"
           d="M 2.875 -2.5 C 2.875 -3.265625 2.765625 -4.46875 2.21875 -5.609375 C 1.625 -6.828125 0.765625 -7.484375 0.671875 -7.484375 C 0.609375 -7.484375 0.5625 -7.4375 0.5625 -7.375 C 0.5625 -7.34375 0.5625 -7.328125 0.75 -7.140625 C 1.734375 -6.15625 2.296875 -4.578125 2.296875 -2.5 C 2.296875 -0.78125 1.9375 0.96875 0.703125 2.21875 C 0.5625 2.34375 0.5625 2.359375 0.5625 2.390625 C 0.5625 2.453125 0.609375 2.5 0.671875 2.5 C 0.765625 2.5 1.671875 1.8125 2.25 0.546875 C 2.765625 -0.546875 2.875 -1.65625 2.875 -2.5 Z M 2.875 -2.5 "
           id="path6796" />
      </symbol>
      <symbol
         overflow="visible"
         id="symbol6162">
        <path
           style="stroke:none;"
           d=""
           id="path8209" />
      </symbol>
      <symbol
         overflow="visible"
         id="symbol4700">
        <path
           style="stroke:none;"
           d="M 0.453125 1.21875 C 0.375 1.5625 0.34375 1.625 -0.09375 1.625 C -0.203125 1.625 -0.3125 1.625 -0.3125 1.8125 C -0.3125 1.890625 -0.265625 1.9375 -0.1875 1.9375 C 0.078125 1.9375 0.375 1.90625 0.640625 1.90625 C 0.984375 1.90625 1.3125 1.9375 1.640625 1.9375 C 1.6875 1.9375 1.8125 1.9375 1.8125 1.734375 C 1.8125 1.625 1.71875 1.625 1.578125 1.625 C 1.078125 1.625 1.078125 1.5625 1.078125 1.46875 C 1.078125 1.34375 1.5 -0.28125 1.5625 -0.53125 C 1.6875 -0.234375 1.96875 0.109375 2.484375 0.109375 C 3.640625 0.109375 4.890625 -1.34375 4.890625 -2.8125 C 4.890625 -3.75 4.3125 -4.40625 3.5625 -4.40625 C 3.0625 -4.40625 2.578125 -4.046875 2.25 -3.65625 C 2.15625 -4.203125 1.71875 -4.40625 1.359375 -4.40625 C 0.890625 -4.40625 0.703125 -4.015625 0.625 -3.84375 C 0.4375 -3.5 0.3125 -2.90625 0.3125 -2.875 C 0.3125 -2.765625 0.40625 -2.765625 0.421875 -2.765625 C 0.53125 -2.765625 0.53125 -2.78125 0.59375 -3 C 0.765625 -3.703125 0.96875 -4.1875 1.328125 -4.1875 C 1.5 -4.1875 1.640625 -4.109375 1.640625 -3.734375 C 1.640625 -3.5 1.609375 -3.390625 1.5625 -3.21875 Z M 2.203125 -3.109375 C 2.265625 -3.375 2.546875 -3.65625 2.71875 -3.8125 C 3.078125 -4.109375 3.359375 -4.1875 3.53125 -4.1875 C 3.921875 -4.1875 4.171875 -3.84375 4.171875 -3.25 C 4.171875 -2.65625 3.84375 -1.515625 3.65625 -1.140625 C 3.3125 -0.4375 2.84375 -0.109375 2.46875 -0.109375 C 1.8125 -0.109375 1.6875 -0.9375 1.6875 -1 C 1.6875 -1.015625 1.6875 -1.03125 1.71875 -1.15625 Z M 2.203125 -3.109375 "
           id="path3797" />
      </symbol>
    </g>
    <marker
       style="overflow:visible"
       id="Arrow1Lend-0"
       refX="0"
       refY="0"
       orient="auto"
       inkscape:stockid="Arrow1Lend"
       inkscape:isstock="true">
      <path
         transform="matrix(-0.8,0,0,-0.8,-10,0)"
         style="fill:#000000;fill-opacity:1;fill-rule:evenodd;stroke:#000000;stroke-width:1pt;stroke-opacity:1"
         d="M 0,0 5,-5 -12.5,0 5,5 Z"
         id="path951-8" />
    </marker>
    <g
       id="g883">
      <symbol
         overflow="visible"
         id="symbol1774">
        <path
           style="stroke:none;"
           d=""
           id="path4139" />
      </symbol>
      <symbol
         overflow="visible"
         id="symbol7628">
        <path
           style="stroke:none;"
           d="M 4.28125 -5.578125 L 4.28125 -5.875 L 0.6875 -5.875 L 0.6875 -5.578125 Z M 4.28125 -5.578125 "
           id="path1016" />
      </symbol>
      <symbol
         overflow="visible"
         id="symbol4125">
        <path
           style="stroke:none;"
           d=""
           id="path8196" />
      </symbol>
      <symbol
         overflow="visible"
         id="symbol689">
        <path
           style="stroke:none;"
           d="M 3.328125 -3.015625 C 3.390625 -3.265625 3.625 -4.1875 4.3125 -4.1875 C 4.359375 -4.1875 4.609375 -4.1875 4.8125 -4.0625 C 4.53125 -4 4.34375 -3.765625 4.34375 -3.515625 C 4.34375 -3.359375 4.453125 -3.171875 4.71875 -3.171875 C 4.9375 -3.171875 5.25 -3.34375 5.25 -3.75 C 5.25 -4.265625 4.671875 -4.40625 4.328125 -4.40625 C 3.75 -4.40625 3.40625 -3.875 3.28125 -3.65625 C 3.03125 -4.3125 2.5 -4.40625 2.203125 -4.40625 C 1.171875 -4.40625 0.59375 -3.125 0.59375 -2.875 C 0.59375 -2.765625 0.703125 -2.765625 0.71875 -2.765625 C 0.796875 -2.765625 0.828125 -2.796875 0.84375 -2.875 C 1.1875 -3.9375 1.84375 -4.1875 2.1875 -4.1875 C 2.375 -4.1875 2.71875 -4.09375 2.71875 -3.515625 C 2.71875 -3.203125 2.546875 -2.546875 2.1875 -1.140625 C 2.03125 -0.53125 1.671875 -0.109375 1.234375 -0.109375 C 1.171875 -0.109375 0.953125 -0.109375 0.734375 -0.234375 C 0.984375 -0.296875 1.203125 -0.5 1.203125 -0.78125 C 1.203125 -1.046875 0.984375 -1.125 0.84375 -1.125 C 0.53125 -1.125 0.296875 -0.875 0.296875 -0.546875 C 0.296875 -0.09375 0.78125 0.109375 1.21875 0.109375 C 1.890625 0.109375 2.25 -0.59375 2.265625 -0.640625 C 2.390625 -0.28125 2.75 0.109375 3.34375 0.109375 C 4.375 0.109375 4.9375 -1.171875 4.9375 -1.421875 C 4.9375 -1.53125 4.859375 -1.53125 4.828125 -1.53125 C 4.734375 -1.53125 4.71875 -1.484375 4.6875 -1.421875 C 4.359375 -0.34375 3.6875 -0.109375 3.375 -0.109375 C 2.984375 -0.109375 2.828125 -0.421875 2.828125 -0.765625 C 2.828125 -0.984375 2.875 -1.203125 2.984375 -1.640625 Z M 3.328125 -3.015625 "
           id="path4105" />
      </symbol>
      <symbol
         overflow="visible"
         id="symbol927">
        <path
           style="stroke:none;"
           d=""
           id="path4911" />
      </symbol>
      <symbol
         overflow="visible"
         id="symbol6954">
        <path
           style="stroke:none;"
           d="M 2.46875 -5.21875 C 1.15625 -4.296875 0.796875 -2.8125 0.796875 -1.75 C 0.796875 -0.765625 1.09375 0.765625 2.46875 1.734375 C 2.53125 1.734375 2.609375 1.734375 2.609375 1.65625 C 2.609375 1.609375 2.59375 1.59375 2.546875 1.546875 C 1.609375 0.703125 1.28125 -0.46875 1.28125 -1.734375 C 1.28125 -3.625 2 -4.546875 2.5625 -5.0625 C 2.59375 -5.09375 2.609375 -5.109375 2.609375 -5.140625 C 2.609375 -5.21875 2.53125 -5.21875 2.46875 -5.21875 Z M 2.46875 -5.21875 "
           id="path3569" />
      </symbol>
      <symbol
         overflow="visible"
         id="symbol6127">
        <path
           style="stroke:none;"
           d="M 0.625 -5.21875 C 0.578125 -5.21875 0.5 -5.21875 0.5 -5.140625 C 0.5 -5.109375 0.515625 -5.09375 0.5625 -5.03125 C 1.15625 -4.484375 1.828125 -3.546875 1.828125 -1.75 C 1.828125 -0.296875 1.375 0.8125 0.625 1.484375 C 0.5 1.609375 0.5 1.609375 0.5 1.65625 C 0.5 1.6875 0.515625 1.734375 0.578125 1.734375 C 0.671875 1.734375 1.328125 1.28125 1.796875 0.40625 C 2.09375 -0.171875 2.296875 -0.921875 2.296875 -1.734375 C 2.296875 -2.71875 2 -4.25 0.625 -5.21875 Z M 0.625 -5.21875 "
           id="path560" />
      </symbol>
      <symbol
         overflow="visible"
         id="symbol437">
        <path
           style="stroke:none;"
           d=""
           id="path3414" />
      </symbol>
      <symbol
         overflow="visible"
         id="symbol7277">
        <path
           style="stroke:none;"
           d="M 7.109375 -4.1875 C 7.171875 -4.453125 7.1875 -4.515625 7.703125 -4.515625 C 7.859375 -4.515625 7.9375 -4.515625 7.9375 -4.65625 C 7.9375 -4.765625 7.859375 -4.765625 7.734375 -4.765625 L 6.78125 -4.765625 C 6.578125 -4.765625 6.578125 -4.75 6.484375 -4.625 L 3.796875 -0.640625 L 3.109375 -4.578125 C 3.078125 -4.75 3.078125 -4.765625 2.859375 -4.765625 L 1.875 -4.765625 C 1.734375 -4.765625 1.640625 -4.765625 1.640625 -4.609375 C 1.640625 -4.515625 1.71875 -4.515625 1.875 -4.515625 C 1.984375 -4.515625 2.015625 -4.515625 2.140625 -4.5 C 2.28125 -4.484375 2.296875 -4.46875 2.296875 -4.390625 C 2.296875 -4.390625 2.296875 -4.34375 2.265625 -4.25 L 1.390625 -0.75 C 1.328125 -0.515625 1.21875 -0.265625 0.65625 -0.25 C 0.609375 -0.25 0.515625 -0.25 0.515625 -0.09375 C 0.515625 -0.09375 0.515625 0 0.625 0 C 0.828125 0 1.125 -0.03125 1.34375 -0.03125 C 1.515625 -0.03125 1.921875 0 2.078125 0 C 2.125 0 2.21875 0 2.21875 -0.15625 C 2.21875 -0.25 2.125 -0.25 2.0625 -0.25 C 1.625 -0.265625 1.625 -0.453125 1.625 -0.546875 C 1.625 -0.578125 1.625 -0.609375 1.65625 -0.71875 L 2.578125 -4.421875 L 3.328125 -0.1875 C 3.359375 -0.0625 3.359375 0 3.46875 0 C 3.5625 0 3.625 -0.078125 3.671875 -0.15625 L 6.59375 -4.5 L 6.609375 -4.484375 L 5.625 -0.546875 C 5.5625 -0.3125 5.546875 -0.25 5.015625 -0.25 C 4.890625 -0.25 4.796875 -0.25 4.796875 -0.09375 C 4.796875 -0.09375 4.796875 0 4.90625 0 C 5.046875 0 5.203125 -0.015625 5.34375 -0.015625 C 5.484375 -0.015625 5.640625 -0.03125 5.78125 -0.03125 C 5.984375 -0.03125 6.46875 0 6.671875 0 C 6.703125 0 6.8125 0 6.8125 -0.15625 C 6.8125 -0.25 6.734375 -0.25 6.59375 -0.25 C 6.578125 -0.25 6.453125 -0.25 6.328125 -0.265625 C 6.171875 -0.28125 6.171875 -0.296875 6.171875 -0.375 C 6.171875 -0.40625 6.1875 -0.484375 6.1875 -0.515625 Z M 7.109375 -4.1875 "
           id="path9492" />
      </symbol>
      <symbol
         overflow="visible"
         id="symbol8548">
        <path
           style="stroke:none;"
           d="M 5.8125 -4 C 5.875 -4.265625 6 -4.5 6.546875 -4.515625 C 6.578125 -4.515625 6.6875 -4.515625 6.6875 -4.65625 C 6.6875 -4.703125 6.65625 -4.765625 6.578125 -4.765625 C 6.359375 -4.765625 6.09375 -4.734375 5.859375 -4.734375 C 5.6875 -4.734375 5.296875 -4.765625 5.125 -4.765625 C 5.09375 -4.765625 4.984375 -4.765625 4.984375 -4.609375 C 4.984375 -4.515625 5.078125 -4.515625 5.140625 -4.515625 C 5.46875 -4.5 5.578125 -4.390625 5.578125 -4.21875 C 5.578125 -4.171875 5.578125 -4.125 5.546875 -4.0625 L 4.796875 -1.015625 L 3.03125 -4.640625 C 2.96875 -4.765625 2.953125 -4.765625 2.78125 -4.765625 L 1.828125 -4.765625 C 1.703125 -4.765625 1.609375 -4.765625 1.609375 -4.609375 C 1.609375 -4.515625 1.6875 -4.515625 1.84375 -4.515625 C 1.984375 -4.515625 2.140625 -4.5 2.28125 -4.46875 L 1.359375 -0.75 C 1.296875 -0.484375 1.171875 -0.265625 0.625 -0.25 C 0.578125 -0.25 0.484375 -0.25 0.484375 -0.109375 C 0.484375 -0.03125 0.53125 0 0.578125 0 C 0.8125 0 1.078125 -0.03125 1.3125 -0.03125 C 1.484375 -0.03125 1.875 0 2.046875 0 C 2.125 0 2.1875 -0.03125 2.1875 -0.140625 C 2.1875 -0.25 2.109375 -0.25 2.03125 -0.25 C 1.59375 -0.265625 1.59375 -0.453125 1.59375 -0.546875 C 1.59375 -0.578125 1.59375 -0.609375 1.609375 -0.71875 L 2.515625 -4.28125 L 4.546875 -0.125 C 4.59375 0 4.625 0 4.703125 0 C 4.8125 0 4.8125 -0.015625 4.84375 -0.140625 Z M 5.8125 -4 "
           id="path6155" />
      </symbol>
      <symbol
         overflow="visible"
         id="symbol8307">
        <path
           style="stroke:none;"
           d=""
           id="path3161" />
      </symbol>
      <symbol
         overflow="visible"
         id="symbol6627">
        <path
           style="stroke:none;"
           d="M 4.875 -3.265625 C 4.953125 -3.34375 4.96875 -3.390625 4.96875 -3.4375 C 4.96875 -3.546875 4.890625 -3.609375 4.8125 -3.609375 C 4.734375 -3.609375 4.71875 -3.59375 4.640625 -3.5 L 3.109375 -1.984375 L 1.578125 -3.515625 C 1.5 -3.578125 1.484375 -3.609375 1.421875 -3.609375 C 1.3125 -3.609375 1.234375 -3.53125 1.234375 -3.4375 C 1.234375 -3.375 1.265625 -3.359375 1.34375 -3.265625 L 2.859375 -1.75 L 1.34375 -0.234375 C 1.25 -0.125 1.234375 -0.09375 1.234375 -0.0625 C 1.234375 0.046875 1.3125 0.125 1.421875 0.125 C 1.484375 0.125 1.5 0.09375 1.578125 0.015625 L 3.109375 -1.5 L 4.703125 0.078125 C 4.734375 0.109375 4.765625 0.125 4.8125 0.125 C 4.890625 0.125 4.96875 0.0625 4.96875 -0.0625 C 4.96875 -0.109375 4.96875 -0.125 4.9375 -0.140625 C 4.921875 -0.171875 3.578125 -1.53125 3.359375 -1.734375 Z M 4.875 -3.265625 "
           id="path4921" />
      </symbol>
    </g>
    <g
       id="g88">
      <symbol
         overflow="visible"
         id="symbol6984">
        <path
           style="stroke:none;"
           d=""
           id="path8443" />
      </symbol>
      <symbol
         overflow="visible"
         id="symbol3908">
        <path
           style="stroke:none;"
           d="M 4.828125 -3.953125 L 6.5 -6.15625 C 6.609375 -6.296875 6.625 -6.3125 6.96875 -6.34375 C 7.203125 -6.375 7.265625 -6.375 7.546875 -6.375 L 7.828125 -6.375 L 7.828125 -6.84375 C 7.421875 -6.8125 6.921875 -6.8125 6.5 -6.8125 C 6.109375 -6.8125 5.34375 -6.8125 4.984375 -6.84375 L 4.984375 -6.375 C 5.15625 -6.375 5.546875 -6.375 5.90625 -6.265625 C 5.890625 -6.234375 5.84375 -6.1875 5.828125 -6.15625 L 4.5 -4.40625 L 3.078125 -6.375 L 3.90625 -6.375 L 3.90625 -6.84375 C 3.5 -6.8125 2.546875 -6.8125 2.109375 -6.8125 C 1.703125 -6.8125 0.84375 -6.8125 0.484375 -6.84375 L 0.484375 -6.375 L 1.46875 -6.375 L 3.671875 -3.3125 L 1.671875 -0.671875 C 1.578125 -0.546875 1.5625 -0.53125 1.234375 -0.5 C 1.03125 -0.484375 0.828125 -0.46875 0.625 -0.46875 L 0.34375 -0.46875 L 0.34375 0 C 0.75 -0.03125 1.25 -0.03125 1.671875 -0.03125 C 2.0625 -0.03125 2.828125 -0.03125 3.1875 0 L 3.1875 -0.46875 C 3.015625 -0.46875 2.625 -0.46875 2.265625 -0.578125 C 2.28125 -0.59375 2.328125 -0.65625 2.359375 -0.6875 L 4 -2.875 L 5.734375 -0.46875 L 4.90625 -0.46875 L 4.90625 0 C 5.3125 -0.03125 6.265625 -0.03125 6.703125 -0.03125 C 7.109375 -0.03125 7.96875 -0.03125 8.328125 0 L 8.328125 -0.46875 L 7.34375 -0.46875 Z M 4.828125 -3.953125 "
           id="path3342" />
      </symbol>
    </g>
    <g
       id="g4813">
      <symbol
         overflow="visible"
         id="symbol1042">
        <path
           style="stroke:none;"
           d=""
           id="path5637" />
      </symbol>
      <symbol
         overflow="visible"
         id="symbol3032">
        <path
           style="stroke:none;"
           d="M 4.828125 -3.953125 L 6.5 -6.15625 C 6.609375 -6.296875 6.625 -6.3125 6.96875 -6.34375 C 7.203125 -6.375 7.265625 -6.375 7.546875 -6.375 L 7.828125 -6.375 L 7.828125 -6.84375 C 7.421875 -6.8125 6.921875 -6.8125 6.5 -6.8125 C 6.109375 -6.8125 5.34375 -6.8125 4.984375 -6.84375 L 4.984375 -6.375 C 5.15625 -6.375 5.546875 -6.375 5.90625 -6.265625 C 5.890625 -6.234375 5.84375 -6.1875 5.828125 -6.15625 L 4.5 -4.40625 L 3.078125 -6.375 L 3.90625 -6.375 L 3.90625 -6.84375 C 3.5 -6.8125 2.546875 -6.8125 2.109375 -6.8125 C 1.703125 -6.8125 0.84375 -6.8125 0.484375 -6.84375 L 0.484375 -6.375 L 1.46875 -6.375 L 3.671875 -3.3125 L 1.671875 -0.671875 C 1.578125 -0.546875 1.5625 -0.53125 1.234375 -0.5 C 1.03125 -0.484375 0.828125 -0.46875 0.625 -0.46875 L 0.34375 -0.46875 L 0.34375 0 C 0.75 -0.03125 1.25 -0.03125 1.671875 -0.03125 C 2.0625 -0.03125 2.828125 -0.03125 3.1875 0 L 3.1875 -0.46875 C 3.015625 -0.46875 2.625 -0.46875 2.265625 -0.578125 C 2.28125 -0.59375 2.328125 -0.65625 2.359375 -0.6875 L 4 -2.875 L 5.734375 -0.46875 L 4.90625 -0.46875 L 4.90625 0 C 5.3125 -0.03125 6.265625 -0.03125 6.703125 -0.03125 C 7.109375 -0.03125 7.96875 -0.03125 8.328125 0 L 8.328125 -0.46875 L 7.34375 -0.46875 Z M 4.828125 -3.953125 "
           id="path9051" />
      </symbol>
      <symbol
         overflow="visible"
         id="symbol5194">
        <path
           style="stroke:none;"
           d=""
           id="path6412" />
      </symbol>
      <symbol
         overflow="visible"
         id="symbol694">
        <path
           style="stroke:none;"
           d="M 2.46875 -5.21875 C 1.15625 -4.296875 0.796875 -2.8125 0.796875 -1.75 C 0.796875 -0.765625 1.09375 0.765625 2.46875 1.734375 C 2.53125 1.734375 2.609375 1.734375 2.609375 1.65625 C 2.609375 1.609375 2.59375 1.59375 2.546875 1.546875 C 1.609375 0.703125 1.28125 -0.46875 1.28125 -1.734375 C 1.28125 -3.625 2 -4.546875 2.5625 -5.0625 C 2.59375 -5.09375 2.609375 -5.109375 2.609375 -5.140625 C 2.609375 -5.21875 2.53125 -5.21875 2.46875 -5.21875 Z M 2.46875 -5.21875 "
           id="path1949" />
      </symbol>
      <symbol
         overflow="visible"
         id="symbol2362">
        <path
           style="stroke:none;"
           d="M 0.625 -5.21875 C 0.578125 -5.21875 0.5 -5.21875 0.5 -5.140625 C 0.5 -5.109375 0.515625 -5.09375 0.5625 -5.03125 C 1.15625 -4.484375 1.828125 -3.546875 1.828125 -1.75 C 1.828125 -0.296875 1.375 0.8125 0.625 1.484375 C 0.5 1.609375 0.5 1.609375 0.5 1.65625 C 0.5 1.6875 0.515625 1.734375 0.578125 1.734375 C 0.671875 1.734375 1.328125 1.28125 1.796875 0.40625 C 2.09375 -0.171875 2.296875 -0.921875 2.296875 -1.734375 C 2.296875 -2.71875 2 -4.25 0.625 -5.21875 Z M 0.625 -5.21875 "
           id="path3390" />
      </symbol>
      <symbol
         overflow="visible"
         id="symbol6430">
        <path
           style="stroke:none;"
           d=""
           id="path1409" />
      </symbol>
      <symbol
         overflow="visible"
         id="symbol8830">
        <path
           style="stroke:none;"
           d="M 7.109375 -4.1875 C 7.171875 -4.453125 7.1875 -4.515625 7.703125 -4.515625 C 7.859375 -4.515625 7.9375 -4.515625 7.9375 -4.65625 C 7.9375 -4.765625 7.859375 -4.765625 7.734375 -4.765625 L 6.78125 -4.765625 C 6.578125 -4.765625 6.578125 -4.75 6.484375 -4.625 L 3.796875 -0.640625 L 3.109375 -4.578125 C 3.078125 -4.75 3.078125 -4.765625 2.859375 -4.765625 L 1.875 -4.765625 C 1.734375 -4.765625 1.640625 -4.765625 1.640625 -4.609375 C 1.640625 -4.515625 1.71875 -4.515625 1.875 -4.515625 C 1.984375 -4.515625 2.015625 -4.515625 2.140625 -4.5 C 2.28125 -4.484375 2.296875 -4.46875 2.296875 -4.390625 C 2.296875 -4.390625 2.296875 -4.34375 2.265625 -4.25 L 1.390625 -0.75 C 1.328125 -0.515625 1.21875 -0.265625 0.65625 -0.25 C 0.609375 -0.25 0.515625 -0.25 0.515625 -0.09375 C 0.515625 -0.09375 0.515625 0 0.625 0 C 0.828125 0 1.125 -0.03125 1.34375 -0.03125 C 1.515625 -0.03125 1.921875 0 2.078125 0 C 2.125 0 2.21875 0 2.21875 -0.15625 C 2.21875 -0.25 2.125 -0.25 2.0625 -0.25 C 1.625 -0.265625 1.625 -0.453125 1.625 -0.546875 C 1.625 -0.578125 1.625 -0.609375 1.65625 -0.71875 L 2.578125 -4.421875 L 3.328125 -0.1875 C 3.359375 -0.0625 3.359375 0 3.46875 0 C 3.5625 0 3.625 -0.078125 3.671875 -0.15625 L 6.59375 -4.5 L 6.609375 -4.484375 L 5.625 -0.546875 C 5.5625 -0.3125 5.546875 -0.25 5.015625 -0.25 C 4.890625 -0.25 4.796875 -0.25 4.796875 -0.09375 C 4.796875 -0.09375 4.796875 0 4.90625 0 C 5.046875 0 5.203125 -0.015625 5.34375 -0.015625 C 5.484375 -0.015625 5.640625 -0.03125 5.78125 -0.03125 C 5.984375 -0.03125 6.46875 0 6.671875 0 C 6.703125 0 6.8125 0 6.8125 -0.15625 C 6.8125 -0.25 6.734375 -0.25 6.59375 -0.25 C 6.578125 -0.25 6.453125 -0.25 6.328125 -0.265625 C 6.171875 -0.28125 6.171875 -0.296875 6.171875 -0.375 C 6.171875 -0.40625 6.1875 -0.484375 6.1875 -0.515625 Z M 7.109375 -4.1875 "
           id="path3818" />
      </symbol>
      <symbol
         overflow="visible"
         id="symbol9583">
        <path
           style="stroke:none;"
           d="M 5.8125 -4 C 5.875 -4.265625 6 -4.5 6.546875 -4.515625 C 6.578125 -4.515625 6.6875 -4.515625 6.6875 -4.65625 C 6.6875 -4.703125 6.65625 -4.765625 6.578125 -4.765625 C 6.359375 -4.765625 6.09375 -4.734375 5.859375 -4.734375 C 5.6875 -4.734375 5.296875 -4.765625 5.125 -4.765625 C 5.09375 -4.765625 4.984375 -4.765625 4.984375 -4.609375 C 4.984375 -4.515625 5.078125 -4.515625 5.140625 -4.515625 C 5.46875 -4.5 5.578125 -4.390625 5.578125 -4.21875 C 5.578125 -4.171875 5.578125 -4.125 5.546875 -4.0625 L 4.796875 -1.015625 L 3.03125 -4.640625 C 2.96875 -4.765625 2.953125 -4.765625 2.78125 -4.765625 L 1.828125 -4.765625 C 1.703125 -4.765625 1.609375 -4.765625 1.609375 -4.609375 C 1.609375 -4.515625 1.6875 -4.515625 1.84375 -4.515625 C 1.984375 -4.515625 2.140625 -4.5 2.28125 -4.46875 L 1.359375 -0.75 C 1.296875 -0.484375 1.171875 -0.265625 0.625 -0.25 C 0.578125 -0.25 0.484375 -0.25 0.484375 -0.109375 C 0.484375 -0.03125 0.53125 0 0.578125 0 C 0.8125 0 1.078125 -0.03125 1.3125 -0.03125 C 1.484375 -0.03125 1.875 0 2.046875 0 C 2.125 0 2.1875 -0.03125 2.1875 -0.140625 C 2.1875 -0.25 2.109375 -0.25 2.03125 -0.25 C 1.59375 -0.265625 1.59375 -0.453125 1.59375 -0.546875 C 1.59375 -0.578125 1.59375 -0.609375 1.609375 -0.71875 L 2.515625 -4.28125 L 4.546875 -0.125 C 4.59375 0 4.625 0 4.703125 0 C 4.8125 0 4.8125 -0.015625 4.84375 -0.140625 Z M 5.8125 -4 "
           id="path1876" />
      </symbol>
      <symbol
         overflow="visible"
         id="symbol6342">
        <path
           style="stroke:none;"
           d=""
           id="path6150" />
      </symbol>
      <symbol
         overflow="visible"
         id="symbol7636">
        <path
           style="stroke:none;"
           d="M 4.875 -3.265625 C 4.953125 -3.34375 4.96875 -3.390625 4.96875 -3.4375 C 4.96875 -3.546875 4.890625 -3.609375 4.8125 -3.609375 C 4.734375 -3.609375 4.71875 -3.59375 4.640625 -3.5 L 3.109375 -1.984375 L 1.578125 -3.515625 C 1.5 -3.578125 1.484375 -3.609375 1.421875 -3.609375 C 1.3125 -3.609375 1.234375 -3.53125 1.234375 -3.4375 C 1.234375 -3.375 1.265625 -3.359375 1.34375 -3.265625 L 2.859375 -1.75 L 1.34375 -0.234375 C 1.25 -0.125 1.234375 -0.09375 1.234375 -0.0625 C 1.234375 0.046875 1.3125 0.125 1.421875 0.125 C 1.484375 0.125 1.5 0.09375 1.578125 0.015625 L 3.109375 -1.5 L 4.703125 0.078125 C 4.734375 0.109375 4.765625 0.125 4.8125 0.125 C 4.890625 0.125 4.96875 0.0625 4.96875 -0.0625 C 4.96875 -0.109375 4.96875 -0.125 4.9375 -0.140625 C 4.921875 -0.171875 3.578125 -1.53125 3.359375 -1.734375 Z M 4.875 -3.265625 "
           id="path9272" />
      </symbol>
    </g>
    <g
       id="g4974">
      <symbol
         overflow="visible"
         id="symbol3118">
        <path
           style="stroke:none;"
           d=""
           id="path9157" />
      </symbol>
      <symbol
         overflow="visible"
         id="symbol3142">
        <path
           style="stroke:none;"
           d="M 4.828125 -3.953125 L 6.5 -6.15625 C 6.609375 -6.296875 6.625 -6.3125 6.96875 -6.34375 C 7.203125 -6.375 7.265625 -6.375 7.546875 -6.375 L 7.828125 -6.375 L 7.828125 -6.84375 C 7.421875 -6.8125 6.921875 -6.8125 6.5 -6.8125 C 6.109375 -6.8125 5.34375 -6.8125 4.984375 -6.84375 L 4.984375 -6.375 C 5.15625 -6.375 5.546875 -6.375 5.90625 -6.265625 C 5.890625 -6.234375 5.84375 -6.1875 5.828125 -6.15625 L 4.5 -4.40625 L 3.078125 -6.375 L 3.90625 -6.375 L 3.90625 -6.84375 C 3.5 -6.8125 2.546875 -6.8125 2.109375 -6.8125 C 1.703125 -6.8125 0.84375 -6.8125 0.484375 -6.84375 L 0.484375 -6.375 L 1.46875 -6.375 L 3.671875 -3.3125 L 1.671875 -0.671875 C 1.578125 -0.546875 1.5625 -0.53125 1.234375 -0.5 C 1.03125 -0.484375 0.828125 -0.46875 0.625 -0.46875 L 0.34375 -0.46875 L 0.34375 0 C 0.75 -0.03125 1.25 -0.03125 1.671875 -0.03125 C 2.0625 -0.03125 2.828125 -0.03125 3.1875 0 L 3.1875 -0.46875 C 3.015625 -0.46875 2.625 -0.46875 2.265625 -0.578125 C 2.28125 -0.59375 2.328125 -0.65625 2.359375 -0.6875 L 4 -2.875 L 5.734375 -0.46875 L 4.90625 -0.46875 L 4.90625 0 C 5.3125 -0.03125 6.265625 -0.03125 6.703125 -0.03125 C 7.109375 -0.03125 7.96875 -0.03125 8.328125 0 L 8.328125 -0.46875 L 7.34375 -0.46875 Z M 4.828125 -3.953125 "
           id="path429" />
      </symbol>
      <symbol
         overflow="visible"
         id="symbol9209">
        <path
           style="stroke:none;"
           d=""
           id="path6283" />
      </symbol>
      <symbol
         overflow="visible"
         id="symbol490">
        <path
           style="stroke:none;"
           d="M 3.5 -2.375 C 4.125 -2.515625 4.75 -2.9375 4.75 -3.5 C 4.75 -4.1875 3.828125 -4.765625 2.75 -4.765625 L 0.40625 -4.765625 L 0.40625 -4.515625 L 0.578125 -4.515625 C 1.109375 -4.515625 1.125 -4.4375 1.125 -4.1875 L 1.125 -0.5625 C 1.125 -0.328125 1.109375 -0.25 0.578125 -0.25 L 0.40625 -0.25 L 0.40625 0 C 0.40625 0 1.15625 -0.03125 1.4375 -0.03125 C 1.734375 -0.03125 2.125 -0.015625 2.46875 0 L 2.46875 -0.25 L 2.3125 -0.25 C 1.765625 -0.25 1.75 -0.328125 1.75 -0.5625 L 1.75 -2.28125 L 2.6875 -2.28125 C 2.8125 -2.28125 3.171875 -2.28125 3.484375 -2 C 3.71875 -1.78125 3.71875 -1.609375 3.71875 -1.140625 C 3.71875 -0.6875 3.71875 -0.40625 4.046875 -0.140625 C 4.34375 0.109375 4.75 0.140625 4.953125 0.140625 C 5.546875 0.140625 5.6875 -0.421875 5.6875 -0.640625 C 5.6875 -0.6875 5.6875 -0.765625 5.578125 -0.765625 C 5.46875 -0.765625 5.46875 -0.703125 5.453125 -0.640625 C 5.421875 -0.234375 5.1875 -0.0625 4.96875 -0.0625 C 4.578125 -0.0625 4.515625 -0.46875 4.4375 -1.09375 C 4.359375 -1.65625 4.34375 -1.765625 4.140625 -2 C 4.0625 -2.078125 3.875 -2.265625 3.5 -2.375 Z M 2.65625 -2.484375 L 1.75 -2.484375 L 1.75 -4.234375 C 1.75 -4.4375 1.765625 -4.484375 1.9375 -4.5 C 2 -4.515625 2.234375 -4.515625 2.390625 -4.515625 C 3.046875 -4.515625 4 -4.515625 4 -3.5 C 4 -2.71875 3.40625 -2.484375 2.65625 -2.484375 Z M 2.65625 -2.484375 "
           id="path885" />
      </symbol>
      <symbol
         overflow="visible"
         id="symbol7145">
        <path
           style="stroke:none;"
           d="M 1.734375 -2.90625 C 1.125 -3.046875 0.9375 -3.484375 0.9375 -3.78125 C 0.9375 -4.234375 1.359375 -4.671875 2 -4.671875 C 2.9375 -4.671875 3.34375 -4.046875 3.453125 -3.3125 C 3.46875 -3.21875 3.46875 -3.171875 3.578125 -3.171875 C 3.6875 -3.171875 3.6875 -3.21875 3.6875 -3.359375 L 3.6875 -4.71875 C 3.6875 -4.84375 3.6875 -4.90625 3.59375 -4.90625 C 3.546875 -4.90625 3.53125 -4.875 3.484375 -4.796875 L 3.21875 -4.40625 C 2.765625 -4.875 2.1875 -4.90625 2 -4.90625 C 1.109375 -4.90625 0.484375 -4.265625 0.484375 -3.5625 C 0.484375 -3.171875 0.65625 -2.875 0.90625 -2.640625 C 1.1875 -2.375 1.421875 -2.328125 2.171875 -2.15625 C 2.8125 -2.015625 2.953125 -1.984375 3.15625 -1.796875 C 3.3125 -1.625 3.453125 -1.40625 3.453125 -1.09375 C 3.453125 -0.609375 3.046875 -0.109375 2.390625 -0.109375 C 1.703125 -0.109375 0.78125 -0.375 0.71875 -1.421875 C 0.71875 -1.546875 0.71875 -1.578125 0.609375 -1.578125 C 0.484375 -1.578125 0.484375 -1.53125 0.484375 -1.390625 L 0.484375 -0.046875 C 0.484375 0.078125 0.484375 0.140625 0.578125 0.140625 C 0.640625 0.140625 0.65625 0.125 0.703125 0.0625 C 0.765625 -0.03125 0.90625 -0.25 0.953125 -0.34375 C 1.390625 0.046875 1.9375 0.140625 2.390625 0.140625 C 3.296875 0.140625 3.90625 -0.546875 3.90625 -1.296875 C 3.90625 -1.921875 3.46875 -2.515625 2.765625 -2.671875 Z M 1.734375 -2.90625 "
           id="path8244" />
      </symbol>
    </g>
    <g
       id="g9850">
      <symbol
         overflow="visible"
         id="symbol2548">
        <path
           style="stroke:none;"
           d=""
           id="path3896" />
      </symbol>
      <symbol
         overflow="visible"
         id="symbol702">
        <path
           style="stroke:none;"
           d="M 4.828125 -3.953125 L 6.5 -6.15625 C 6.609375 -6.296875 6.625 -6.3125 6.96875 -6.34375 C 7.203125 -6.375 7.265625 -6.375 7.546875 -6.375 L 7.828125 -6.375 L 7.828125 -6.84375 C 7.421875 -6.8125 6.921875 -6.8125 6.5 -6.8125 C 6.109375 -6.8125 5.34375 -6.8125 4.984375 -6.84375 L 4.984375 -6.375 C 5.15625 -6.375 5.546875 -6.375 5.90625 -6.265625 C 5.890625 -6.234375 5.84375 -6.1875 5.828125 -6.15625 L 4.5 -4.40625 L 3.078125 -6.375 L 3.90625 -6.375 L 3.90625 -6.84375 C 3.5 -6.8125 2.546875 -6.8125 2.109375 -6.8125 C 1.703125 -6.8125 0.84375 -6.8125 0.484375 -6.84375 L 0.484375 -6.375 L 1.46875 -6.375 L 3.671875 -3.3125 L 1.671875 -0.671875 C 1.578125 -0.546875 1.5625 -0.53125 1.234375 -0.5 C 1.03125 -0.484375 0.828125 -0.46875 0.625 -0.46875 L 0.34375 -0.46875 L 0.34375 0 C 0.75 -0.03125 1.25 -0.03125 1.671875 -0.03125 C 2.0625 -0.03125 2.828125 -0.03125 3.1875 0 L 3.1875 -0.46875 C 3.015625 -0.46875 2.625 -0.46875 2.265625 -0.578125 C 2.28125 -0.59375 2.328125 -0.65625 2.359375 -0.6875 L 4 -2.875 L 5.734375 -0.46875 L 4.90625 -0.46875 L 4.90625 0 C 5.3125 -0.03125 6.265625 -0.03125 6.703125 -0.03125 C 7.109375 -0.03125 7.96875 -0.03125 8.328125 0 L 8.328125 -0.46875 L 7.34375 -0.46875 Z M 4.828125 -3.953125 "
           id="path4725" />
      </symbol>
    </g>
    <g
       id="g1981">
      <symbol
         overflow="visible"
         id="symbol4379">
        <path
           style="stroke:none;"
           d=""
           id="path6057" />
      </symbol>
      <symbol
         overflow="visible"
         id="symbol7325">
        <path
           style="stroke:none;"
           d="M 3.296875 2.390625 C 3.296875 2.359375 3.296875 2.34375 3.125 2.171875 C 1.890625 0.921875 1.5625 -0.96875 1.5625 -2.5 C 1.5625 -4.234375 1.9375 -5.96875 3.171875 -7.203125 C 3.296875 -7.328125 3.296875 -7.34375 3.296875 -7.375 C 3.296875 -7.453125 3.265625 -7.484375 3.203125 -7.484375 C 3.09375 -7.484375 2.203125 -6.796875 1.609375 -5.53125 C 1.109375 -4.4375 0.984375 -3.328125 0.984375 -2.5 C 0.984375 -1.71875 1.09375 -0.515625 1.640625 0.625 C 2.25 1.84375 3.09375 2.5 3.203125 2.5 C 3.265625 2.5 3.296875 2.46875 3.296875 2.390625 Z M 3.296875 2.390625 "
           id="path368" />
      </symbol>
      <symbol
         overflow="visible"
         id="symbol5188">
        <path
           style="stroke:none;"
           d="M 2.875 -2.5 C 2.875 -3.265625 2.765625 -4.46875 2.21875 -5.609375 C 1.625 -6.828125 0.765625 -7.484375 0.671875 -7.484375 C 0.609375 -7.484375 0.5625 -7.4375 0.5625 -7.375 C 0.5625 -7.34375 0.5625 -7.328125 0.75 -7.140625 C 1.734375 -6.15625 2.296875 -4.578125 2.296875 -2.5 C 2.296875 -0.78125 1.9375 0.96875 0.703125 2.21875 C 0.5625 2.34375 0.5625 2.359375 0.5625 2.390625 C 0.5625 2.453125 0.609375 2.5 0.671875 2.5 C 0.765625 2.5 1.671875 1.8125 2.25 0.546875 C 2.765625 -0.546875 2.875 -1.65625 2.875 -2.5 Z M 2.875 -2.5 "
           id="path1743" />
      </symbol>
      <symbol
         overflow="visible"
         id="symbol5166">
        <path
           style="stroke:none;"
           d=""
           id="path8907" />
      </symbol>
      <symbol
         overflow="visible"
         id="symbol7991">
        <path
           style="stroke:none;"
           d="M 0.453125 1.21875 C 0.375 1.5625 0.34375 1.625 -0.09375 1.625 C -0.203125 1.625 -0.3125 1.625 -0.3125 1.8125 C -0.3125 1.890625 -0.265625 1.9375 -0.1875 1.9375 C 0.078125 1.9375 0.375 1.90625 0.640625 1.90625 C 0.984375 1.90625 1.3125 1.9375 1.640625 1.9375 C 1.6875 1.9375 1.8125 1.9375 1.8125 1.734375 C 1.8125 1.625 1.71875 1.625 1.578125 1.625 C 1.078125 1.625 1.078125 1.5625 1.078125 1.46875 C 1.078125 1.34375 1.5 -0.28125 1.5625 -0.53125 C 1.6875 -0.234375 1.96875 0.109375 2.484375 0.109375 C 3.640625 0.109375 4.890625 -1.34375 4.890625 -2.8125 C 4.890625 -3.75 4.3125 -4.40625 3.5625 -4.40625 C 3.0625 -4.40625 2.578125 -4.046875 2.25 -3.65625 C 2.15625 -4.203125 1.71875 -4.40625 1.359375 -4.40625 C 0.890625 -4.40625 0.703125 -4.015625 0.625 -3.84375 C 0.4375 -3.5 0.3125 -2.90625 0.3125 -2.875 C 0.3125 -2.765625 0.40625 -2.765625 0.421875 -2.765625 C 0.53125 -2.765625 0.53125 -2.78125 0.59375 -3 C 0.765625 -3.703125 0.96875 -4.1875 1.328125 -4.1875 C 1.5 -4.1875 1.640625 -4.109375 1.640625 -3.734375 C 1.640625 -3.5 1.609375 -3.390625 1.5625 -3.21875 Z M 2.203125 -3.109375 C 2.265625 -3.375 2.546875 -3.65625 2.71875 -3.8125 C 3.078125 -4.109375 3.359375 -4.1875 3.53125 -4.1875 C 3.921875 -4.1875 4.171875 -3.84375 4.171875 -3.25 C 4.171875 -2.65625 3.84375 -1.515625 3.65625 -1.140625 C 3.3125 -0.4375 2.84375 -0.109375 2.46875 -0.109375 C 1.8125 -0.109375 1.6875 -0.9375 1.6875 -1 C 1.6875 -1.015625 1.6875 -1.03125 1.71875 -1.15625 Z M 2.203125 -3.109375 "
           id="path8800" />
      </symbol>
      <symbol
         overflow="visible"
         id="symbol7792">
        <path
           style="stroke:none;"
           d="M 2.03125 -0.015625 C 2.03125 -0.671875 1.78125 -1.0625 1.390625 -1.0625 C 1.0625 -1.0625 0.859375 -0.8125 0.859375 -0.53125 C 0.859375 -0.265625 1.0625 0 1.390625 0 C 1.5 0 1.640625 -0.046875 1.734375 -0.125 C 1.765625 -0.15625 1.78125 -0.15625 1.78125 -0.15625 C 1.796875 -0.15625 1.796875 -0.15625 1.796875 -0.015625 C 1.796875 0.734375 1.453125 1.328125 1.125 1.65625 C 1.015625 1.765625 1.015625 1.78125 1.015625 1.8125 C 1.015625 1.890625 1.0625 1.921875 1.109375 1.921875 C 1.21875 1.921875 2.03125 1.15625 2.03125 -0.015625 Z M 2.03125 -0.015625 "
           id="path9235" />
      </symbol>
      <symbol
         overflow="visible"
         id="symbol8117">
        <path
           style="stroke:none;"
           d="M 7.53125 -5.765625 C 7.640625 -6.15625 7.8125 -6.46875 8.609375 -6.5 C 8.65625 -6.5 8.78125 -6.515625 8.78125 -6.703125 C 8.78125 -6.703125 8.78125 -6.8125 8.65625 -6.8125 C 8.328125 -6.8125 7.96875 -6.78125 7.640625 -6.78125 C 7.3125 -6.78125 6.953125 -6.8125 6.625 -6.8125 C 6.5625 -6.8125 6.453125 -6.8125 6.453125 -6.609375 C 6.453125 -6.5 6.546875 -6.5 6.625 -6.5 C 7.203125 -6.484375 7.3125 -6.28125 7.3125 -6.0625 C 7.3125 -6.03125 7.28125 -5.875 7.28125 -5.859375 L 6.15625 -1.421875 L 3.953125 -6.625 C 3.875 -6.796875 3.875 -6.8125 3.640625 -6.8125 L 2.296875 -6.8125 C 2.109375 -6.8125 2.015625 -6.8125 2.015625 -6.609375 C 2.015625 -6.5 2.109375 -6.5 2.296875 -6.5 C 2.34375 -6.5 2.96875 -6.5 2.96875 -6.40625 L 1.640625 -1.0625 C 1.53125 -0.65625 1.359375 -0.34375 0.5625 -0.3125 C 0.5 -0.3125 0.390625 -0.296875 0.390625 -0.109375 C 0.390625 -0.046875 0.4375 0 0.515625 0 C 0.84375 0 1.1875 -0.03125 1.515625 -0.03125 C 1.859375 -0.03125 2.21875 0 2.546875 0 C 2.59375 0 2.71875 0 2.71875 -0.203125 C 2.71875 -0.296875 2.625 -0.3125 2.515625 -0.3125 C 1.9375 -0.328125 1.859375 -0.546875 1.859375 -0.75 C 1.859375 -0.8125 1.875 -0.875 1.90625 -0.984375 L 3.21875 -6.234375 C 3.265625 -6.1875 3.265625 -6.15625 3.3125 -6.0625 L 5.796875 -0.1875 C 5.859375 -0.015625 5.890625 0 5.984375 0 C 6.09375 0 6.09375 -0.03125 6.140625 -0.203125 Z M 7.53125 -5.765625 "
           id="path8886" />
      </symbol>
    </g>
    <g
       id="g7791">
      <symbol
         overflow="visible"
         id="symbol901">
        <path
           style="stroke:none;"
           d=""
           id="path1995" />
      </symbol>
      <symbol
         overflow="visible"
         id="symbol970">
        <path
           style="stroke:none;"
           d="M 4.828125 -3.953125 L 6.5 -6.15625 C 6.609375 -6.296875 6.625 -6.3125 6.96875 -6.34375 C 7.203125 -6.375 7.265625 -6.375 7.546875 -6.375 L 7.828125 -6.375 L 7.828125 -6.84375 C 7.421875 -6.8125 6.921875 -6.8125 6.5 -6.8125 C 6.109375 -6.8125 5.34375 -6.8125 4.984375 -6.84375 L 4.984375 -6.375 C 5.15625 -6.375 5.546875 -6.375 5.90625 -6.265625 C 5.890625 -6.234375 5.84375 -6.1875 5.828125 -6.15625 L 4.5 -4.40625 L 3.078125 -6.375 L 3.90625 -6.375 L 3.90625 -6.84375 C 3.5 -6.8125 2.546875 -6.8125 2.109375 -6.8125 C 1.703125 -6.8125 0.84375 -6.8125 0.484375 -6.84375 L 0.484375 -6.375 L 1.46875 -6.375 L 3.671875 -3.3125 L 1.671875 -0.671875 C 1.578125 -0.546875 1.5625 -0.53125 1.234375 -0.5 C 1.03125 -0.484375 0.828125 -0.46875 0.625 -0.46875 L 0.34375 -0.46875 L 0.34375 0 C 0.75 -0.03125 1.25 -0.03125 1.671875 -0.03125 C 2.0625 -0.03125 2.828125 -0.03125 3.1875 0 L 3.1875 -0.46875 C 3.015625 -0.46875 2.625 -0.46875 2.265625 -0.578125 C 2.28125 -0.59375 2.328125 -0.65625 2.359375 -0.6875 L 4 -2.875 L 5.734375 -0.46875 L 4.90625 -0.46875 L 4.90625 0 C 5.3125 -0.03125 6.265625 -0.03125 6.703125 -0.03125 C 7.109375 -0.03125 7.96875 -0.03125 8.328125 0 L 8.328125 -0.46875 L 7.34375 -0.46875 Z M 4.828125 -3.953125 "
           id="path2546" />
      </symbol>
      <symbol
         overflow="visible"
         id="symbol1077">
        <path
           style="stroke:none;"
           d=""
           id="path1086" />
      </symbol>
      <symbol
         overflow="visible"
         id="symbol8074">
        <path
           style="stroke:none;"
           d="M 4.390625 -2.359375 C 4.78125 -2.484375 5.546875 -2.796875 5.546875 -3.46875 C 5.546875 -4.21875 4.640625 -4.78125 3.25 -4.78125 L 0.390625 -4.78125 L 0.390625 -4.390625 L 1.140625 -4.390625 L 1.140625 -0.390625 L 0.390625 -0.390625 L 0.390625 0 C 0.5625 -0.015625 1.578125 -0.03125 1.640625 -0.03125 C 1.671875 -0.03125 2.703125 -0.015625 2.890625 0 L 2.890625 -0.390625 L 2.140625 -0.390625 L 2.140625 -2.234375 L 3.109375 -2.234375 C 3.25 -2.234375 3.546875 -2.234375 3.828125 -2 C 4.078125 -1.8125 4.078125 -1.640625 4.078125 -1.140625 C 4.078125 -0.578125 4.078125 0.078125 5.6875 0.078125 C 6.515625 0.078125 6.625 -0.53125 6.625 -0.6875 C 6.625 -0.859375 6.5 -0.859375 6.40625 -0.859375 C 6.3125 -0.859375 6.203125 -0.859375 6.1875 -0.703125 C 6.15625 -0.328125 5.90625 -0.234375 5.75 -0.234375 C 5.296875 -0.234375 5.234375 -0.6875 5.171875 -1.234375 C 5.09375 -1.703125 5.046875 -2.125 4.390625 -2.359375 Z M 3.15625 -2.546875 L 2.140625 -2.546875 L 2.140625 -4.390625 L 3.1875 -4.390625 C 4.3125 -4.390625 4.40625 -3.921875 4.40625 -3.46875 C 4.40625 -3.03125 4.3125 -2.546875 3.15625 -2.546875 Z M 3.15625 -2.546875 "
           id="path4966" />
      </symbol>
      <symbol
         overflow="visible"
         id="symbol1425">
        <path
           style="stroke:none;"
           d="M 2 -3.109375 C 1.484375 -3.203125 1.234375 -3.5 1.234375 -3.796875 C 1.234375 -4.09375 1.4375 -4.515625 2.265625 -4.515625 C 2.859375 -4.515625 3.609375 -4.296875 3.765625 -3.390625 C 3.8125 -3.21875 3.8125 -3.1875 4 -3.1875 C 4.203125 -3.1875 4.21875 -3.21875 4.21875 -3.421875 L 4.21875 -4.640625 C 4.21875 -4.78125 4.21875 -4.859375 4.0625 -4.859375 C 3.984375 -4.859375 3.96875 -4.859375 3.875 -4.78125 L 3.640625 -4.546875 C 3.59375 -4.5 3.578125 -4.5 3.578125 -4.5 C 3.5625 -4.5 3.5625 -4.5 3.515625 -4.53125 C 3.125 -4.796875 2.65625 -4.859375 2.265625 -4.859375 C 1 -4.859375 0.515625 -4.109375 0.515625 -3.46875 C 0.515625 -3.09375 0.6875 -2.796875 0.890625 -2.578125 C 1.265625 -2.203125 1.609375 -2.125 2.46875 -1.96875 C 2.671875 -1.9375 3.015625 -1.875 3.078125 -1.859375 C 3.421875 -1.765625 3.765625 -1.5 3.765625 -1.09375 C 3.765625 -1.015625 3.765625 -0.3125 2.703125 -0.3125 C 2.484375 -0.3125 1.953125 -0.328125 1.53125 -0.53125 C 1.046875 -0.78125 0.96875 -1.171875 0.96875 -1.40625 C 0.953125 -1.546875 0.953125 -1.59375 0.75 -1.59375 C 0.546875 -1.59375 0.515625 -1.5625 0.515625 -1.359375 L 0.515625 -0.140625 C 0.515625 0 0.515625 0.078125 0.6875 0.078125 C 0.765625 0.078125 0.78125 0.078125 0.828125 0.03125 C 0.90625 -0.03125 1.078125 -0.21875 1.15625 -0.28125 C 1.640625 0.015625 2.234375 0.078125 2.71875 0.078125 C 4.03125 0.078125 4.46875 -0.75 4.46875 -1.421875 C 4.46875 -2.21875 3.8125 -2.75 3.140625 -2.890625 Z M 2 -3.109375 "
           id="path6575" />
      </symbol>
    </g>
    <g
       id="g944">
      <symbol
         overflow="visible"
         id="symbol6040">
        <path
           style="stroke:none;"
           d=""
           id="path9857" />
      </symbol>
      <symbol
         overflow="visible"
         id="symbol7008">
        <path
           style="stroke:none;"
           d="M 3.296875 2.390625 C 3.296875 2.359375 3.296875 2.34375 3.125 2.171875 C 1.890625 0.921875 1.5625 -0.96875 1.5625 -2.5 C 1.5625 -4.234375 1.9375 -5.96875 3.171875 -7.203125 C 3.296875 -7.328125 3.296875 -7.34375 3.296875 -7.375 C 3.296875 -7.453125 3.265625 -7.484375 3.203125 -7.484375 C 3.09375 -7.484375 2.203125 -6.796875 1.609375 -5.53125 C 1.109375 -4.4375 0.984375 -3.328125 0.984375 -2.5 C 0.984375 -1.71875 1.09375 -0.515625 1.640625 0.625 C 2.25 1.84375 3.09375 2.5 3.203125 2.5 C 3.265625 2.5 3.296875 2.46875 3.296875 2.390625 Z M 3.296875 2.390625 "
           id="path7855" />
      </symbol>
      <symbol
         overflow="visible"
         id="symbol1238">
        <path
           style="stroke:none;"
           d="M 2.875 -2.5 C 2.875 -3.265625 2.765625 -4.46875 2.21875 -5.609375 C 1.625 -6.828125 0.765625 -7.484375 0.671875 -7.484375 C 0.609375 -7.484375 0.5625 -7.4375 0.5625 -7.375 C 0.5625 -7.34375 0.5625 -7.328125 0.75 -7.140625 C 1.734375 -6.15625 2.296875 -4.578125 2.296875 -2.5 C 2.296875 -0.78125 1.9375 0.96875 0.703125 2.21875 C 0.5625 2.34375 0.5625 2.359375 0.5625 2.390625 C 0.5625 2.453125 0.609375 2.5 0.671875 2.5 C 0.765625 2.5 1.671875 1.8125 2.25 0.546875 C 2.765625 -0.546875 2.875 -1.65625 2.875 -2.5 Z M 2.875 -2.5 "
           id="path5651" />
      </symbol>
      <symbol
         overflow="visible"
         id="symbol5554">
        <path
           style="stroke:none;"
           d=""
           id="path5965" />
      </symbol>
      <symbol
         overflow="visible"
         id="symbol3235">
        <path
           style="stroke:none;"
           d="M 0.453125 1.21875 C 0.375 1.5625 0.34375 1.625 -0.09375 1.625 C -0.203125 1.625 -0.3125 1.625 -0.3125 1.8125 C -0.3125 1.890625 -0.265625 1.9375 -0.1875 1.9375 C 0.078125 1.9375 0.375 1.90625 0.640625 1.90625 C 0.984375 1.90625 1.3125 1.9375 1.640625 1.9375 C 1.6875 1.9375 1.8125 1.9375 1.8125 1.734375 C 1.8125 1.625 1.71875 1.625 1.578125 1.625 C 1.078125 1.625 1.078125 1.5625 1.078125 1.46875 C 1.078125 1.34375 1.5 -0.28125 1.5625 -0.53125 C 1.6875 -0.234375 1.96875 0.109375 2.484375 0.109375 C 3.640625 0.109375 4.890625 -1.34375 4.890625 -2.8125 C 4.890625 -3.75 4.3125 -4.40625 3.5625 -4.40625 C 3.0625 -4.40625 2.578125 -4.046875 2.25 -3.65625 C 2.15625 -4.203125 1.71875 -4.40625 1.359375 -4.40625 C 0.890625 -4.40625 0.703125 -4.015625 0.625 -3.84375 C 0.4375 -3.5 0.3125 -2.90625 0.3125 -2.875 C 0.3125 -2.765625 0.40625 -2.765625 0.421875 -2.765625 C 0.53125 -2.765625 0.53125 -2.78125 0.59375 -3 C 0.765625 -3.703125 0.96875 -4.1875 1.328125 -4.1875 C 1.5 -4.1875 1.640625 -4.109375 1.640625 -3.734375 C 1.640625 -3.5 1.609375 -3.390625 1.5625 -3.21875 Z M 2.203125 -3.109375 C 2.265625 -3.375 2.546875 -3.65625 2.71875 -3.8125 C 3.078125 -4.109375 3.359375 -4.1875 3.53125 -4.1875 C 3.921875 -4.1875 4.171875 -3.84375 4.171875 -3.25 C 4.171875 -2.65625 3.84375 -1.515625 3.65625 -1.140625 C 3.3125 -0.4375 2.84375 -0.109375 2.46875 -0.109375 C 1.8125 -0.109375 1.6875 -0.9375 1.6875 -1 C 1.6875 -1.015625 1.6875 -1.03125 1.71875 -1.15625 Z M 2.203125 -3.109375 "
           id="path8415" />
      </symbol>
      <symbol
         overflow="visible"
         id="symbol1097">
        <path
           style="stroke:none;"
           d="M 2.03125 -0.015625 C 2.03125 -0.671875 1.78125 -1.0625 1.390625 -1.0625 C 1.0625 -1.0625 0.859375 -0.8125 0.859375 -0.53125 C 0.859375 -0.265625 1.0625 0 1.390625 0 C 1.5 0 1.640625 -0.046875 1.734375 -0.125 C 1.765625 -0.15625 1.78125 -0.15625 1.78125 -0.15625 C 1.796875 -0.15625 1.796875 -0.15625 1.796875 -0.015625 C 1.796875 0.734375 1.453125 1.328125 1.125 1.65625 C 1.015625 1.765625 1.015625 1.78125 1.015625 1.8125 C 1.015625 1.890625 1.0625 1.921875 1.109375 1.921875 C 1.21875 1.921875 2.03125 1.15625 2.03125 -0.015625 Z M 2.03125 -0.015625 "
           id="path6619" />
      </symbol>
      <symbol
         overflow="visible"
         id="symbol7728">
        <path
           style="stroke:none;"
           d="M 7.53125 -5.765625 C 7.640625 -6.15625 7.8125 -6.46875 8.609375 -6.5 C 8.65625 -6.5 8.78125 -6.515625 8.78125 -6.703125 C 8.78125 -6.703125 8.78125 -6.8125 8.65625 -6.8125 C 8.328125 -6.8125 7.96875 -6.78125 7.640625 -6.78125 C 7.3125 -6.78125 6.953125 -6.8125 6.625 -6.8125 C 6.5625 -6.8125 6.453125 -6.8125 6.453125 -6.609375 C 6.453125 -6.5 6.546875 -6.5 6.625 -6.5 C 7.203125 -6.484375 7.3125 -6.28125 7.3125 -6.0625 C 7.3125 -6.03125 7.28125 -5.875 7.28125 -5.859375 L 6.15625 -1.421875 L 3.953125 -6.625 C 3.875 -6.796875 3.875 -6.8125 3.640625 -6.8125 L 2.296875 -6.8125 C 2.109375 -6.8125 2.015625 -6.8125 2.015625 -6.609375 C 2.015625 -6.5 2.109375 -6.5 2.296875 -6.5 C 2.34375 -6.5 2.96875 -6.5 2.96875 -6.40625 L 1.640625 -1.0625 C 1.53125 -0.65625 1.359375 -0.34375 0.5625 -0.3125 C 0.5 -0.3125 0.390625 -0.296875 0.390625 -0.109375 C 0.390625 -0.046875 0.4375 0 0.515625 0 C 0.84375 0 1.1875 -0.03125 1.515625 -0.03125 C 1.859375 -0.03125 2.21875 0 2.546875 0 C 2.59375 0 2.71875 0 2.71875 -0.203125 C 2.71875 -0.296875 2.625 -0.3125 2.515625 -0.3125 C 1.9375 -0.328125 1.859375 -0.546875 1.859375 -0.75 C 1.859375 -0.8125 1.875 -0.875 1.90625 -0.984375 L 3.21875 -6.234375 C 3.265625 -6.1875 3.265625 -6.15625 3.3125 -6.0625 L 5.796875 -0.1875 C 5.859375 -0.015625 5.890625 0 5.984375 0 C 6.09375 0 6.09375 -0.03125 6.140625 -0.203125 Z M 7.53125 -5.765625 "
           id="path7971" />
      </symbol>
      <symbol
         overflow="visible"
         id="symbol8826">
        <path
           style="stroke:none;"
           d=""
           id="path2741" />
      </symbol>
      <symbol
         overflow="visible"
         id="symbol6658">
        <path
           style="stroke:none;"
           d="M 3.5 -2.375 C 4.125 -2.515625 4.75 -2.9375 4.75 -3.5 C 4.75 -4.1875 3.828125 -4.765625 2.75 -4.765625 L 0.40625 -4.765625 L 0.40625 -4.515625 L 0.578125 -4.515625 C 1.109375 -4.515625 1.125 -4.4375 1.125 -4.1875 L 1.125 -0.5625 C 1.125 -0.328125 1.109375 -0.25 0.578125 -0.25 L 0.40625 -0.25 L 0.40625 0 C 0.40625 0 1.15625 -0.03125 1.4375 -0.03125 C 1.734375 -0.03125 2.125 -0.015625 2.46875 0 L 2.46875 -0.25 L 2.3125 -0.25 C 1.765625 -0.25 1.75 -0.328125 1.75 -0.5625 L 1.75 -2.28125 L 2.6875 -2.28125 C 2.8125 -2.28125 3.171875 -2.28125 3.484375 -2 C 3.71875 -1.78125 3.71875 -1.609375 3.71875 -1.140625 C 3.71875 -0.6875 3.71875 -0.40625 4.046875 -0.140625 C 4.34375 0.109375 4.75 0.140625 4.953125 0.140625 C 5.546875 0.140625 5.6875 -0.421875 5.6875 -0.640625 C 5.6875 -0.6875 5.6875 -0.765625 5.578125 -0.765625 C 5.46875 -0.765625 5.46875 -0.703125 5.453125 -0.640625 C 5.421875 -0.234375 5.1875 -0.0625 4.96875 -0.0625 C 4.578125 -0.0625 4.515625 -0.46875 4.4375 -1.09375 C 4.359375 -1.65625 4.34375 -1.765625 4.140625 -2 C 4.0625 -2.078125 3.875 -2.265625 3.5 -2.375 Z M 2.65625 -2.484375 L 1.75 -2.484375 L 1.75 -4.234375 C 1.75 -4.4375 1.765625 -4.484375 1.9375 -4.5 C 2 -4.515625 2.234375 -4.515625 2.390625 -4.515625 C 3.046875 -4.515625 4 -4.515625 4 -3.5 C 4 -2.71875 3.40625 -2.484375 2.65625 -2.484375 Z M 2.65625 -2.484375 "
           id="path8771" />
      </symbol>
      <symbol
         overflow="visible"
         id="symbol2857">
        <path
           style="stroke:none;"
           d="M 1.734375 -2.90625 C 1.125 -3.046875 0.9375 -3.484375 0.9375 -3.78125 C 0.9375 -4.234375 1.359375 -4.671875 2 -4.671875 C 2.9375 -4.671875 3.34375 -4.046875 3.453125 -3.3125 C 3.46875 -3.21875 3.46875 -3.171875 3.578125 -3.171875 C 3.6875 -3.171875 3.6875 -3.21875 3.6875 -3.359375 L 3.6875 -4.71875 C 3.6875 -4.84375 3.6875 -4.90625 3.59375 -4.90625 C 3.546875 -4.90625 3.53125 -4.875 3.484375 -4.796875 L 3.21875 -4.40625 C 2.765625 -4.875 2.1875 -4.90625 2 -4.90625 C 1.109375 -4.90625 0.484375 -4.265625 0.484375 -3.5625 C 0.484375 -3.171875 0.65625 -2.875 0.90625 -2.640625 C 1.1875 -2.375 1.421875 -2.328125 2.171875 -2.15625 C 2.8125 -2.015625 2.953125 -1.984375 3.15625 -1.796875 C 3.3125 -1.625 3.453125 -1.40625 3.453125 -1.09375 C 3.453125 -0.609375 3.046875 -0.109375 2.390625 -0.109375 C 1.703125 -0.109375 0.78125 -0.375 0.71875 -1.421875 C 0.71875 -1.546875 0.71875 -1.578125 0.609375 -1.578125 C 0.484375 -1.578125 0.484375 -1.53125 0.484375 -1.390625 L 0.484375 -0.046875 C 0.484375 0.078125 0.484375 0.140625 0.578125 0.140625 C 0.640625 0.140625 0.65625 0.125 0.703125 0.0625 C 0.765625 -0.03125 0.90625 -0.25 0.953125 -0.34375 C 1.390625 0.046875 1.9375 0.140625 2.390625 0.140625 C 3.296875 0.140625 3.90625 -0.546875 3.90625 -1.296875 C 3.90625 -1.921875 3.46875 -2.515625 2.765625 -2.671875 Z M 1.734375 -2.90625 "
           id="path7489" />
      </symbol>
    </g>
  </defs>
  <sodipodi:namedview
     id="base"
     pagecolor="#ffffff"
     bordercolor="#666666"
     borderopacity="1.0"
     inkscape:pageopacity="0.0"
     inkscape:pageshadow="2"
     inkscape:zoom="1"
     inkscape:cx="-870.88562"
     inkscape:cy="1014.6085"
     inkscape:document-units="mm"
     inkscape:current-layer="layer1"
     inkscape:document-rotation="0"
     showgrid="true"
     units="px"
     showborder="false"
     inkscape:window-width="1920"
     inkscape:window-height="1017"
     inkscape:window-x="-8"
     inkscape:window-y="-8"
     inkscape:window-maximized="1">
    <inkscape:grid
       type="xygrid"
       id="grid833"
       spacingx="2.6458333"
       spacingy="2.6458333" />
  </sodipodi:namedview>
  <metadata
     id="metadata5">
    <rdf:RDF>
      <cc:Work
         rdf:about="">
        <dc:format>image/svg+xml</dc:format>
        <dc:type
           rdf:resource="http://purl.org/dc/dcmitype/StillImage" />
        <dc:title />
      </cc:Work>
    </rdf:RDF>
  </metadata>
  <g
     inkscape:label="Layer 1"
     inkscape:groupmode="layer"
     id="layer1">
    <rect
       style="fill:none;fill-rule:evenodd;stroke:#000000;stroke-width:2;stroke-linecap:round;stroke-linejoin:round;stroke-miterlimit:4;stroke-dasharray:none;paint-order:markers stroke fill"
       id="rect864"
       width="119.0625"
       height="66.145813"
       x="-238.125"
       y="238.125" />
    <text
       xml:space="preserve"
       style="font-size:10.5833px;line-height:1.25;font-family:sans-serif;text-align:center;letter-spacing:0px;word-spacing:0px;text-anchor:middle;stroke-width:0.264583"
       x="-179.13118"
       y="256.35236"
       id="text868"><tspan
         sodipodi:role="line"
         id="tspan866"
         x="-179.13118"
         y="256.35236"
         style="text-align:center;text-anchor:middle;stroke-width:0.264583">MUESTREADOR</tspan><tspan
         sodipodi:role="line"
         x="-179.13118"
         y="269.58148"
         style="text-align:center;text-anchor:middle;stroke-width:0.264583"
         id="tspan870">ALEATORIO</tspan></text>
    <rect
       style="fill:#000080;fill-rule:evenodd;stroke:none;stroke-width:2;stroke-linecap:round;stroke-linejoin:round;stroke-miterlimit:4;stroke-dasharray:none;paint-order:markers stroke fill"
       id="rect927"
       width="5.2916665"
       height="13.229166"
       x="-240.77083"
       y="264.58334" />
    <rect
       style="fill:#000080;fill-rule:evenodd;stroke:none;stroke-width:2;stroke-linecap:round;stroke-linejoin:round;stroke-miterlimit:4;stroke-dasharray:none;paint-order:markers stroke fill"
       id="rect927-3"
       width="5.2916665"
       height="13.229167"
       x="-121.70833"
       y="264.58334" />
    <path
       style="fill:none;stroke:#000000;stroke-width:0.264583px;stroke-linecap:butt;stroke-linejoin:miter;stroke-opacity:1;marker-end:url(#Arrow1Lend)"
       d="m -277.8125,271.19793 h 37.04167"
       id="path946" />
    <path
       style="fill:none;stroke:#000000;stroke-width:0.264583px;stroke-linecap:butt;stroke-linejoin:miter;stroke-opacity:1;marker-end:url(#Arrow1Lend-0)"
       d="m -116.41667,271.19793 h 37.041674"
       id="path946-6" />
    <g
       inkscape:label=""
       transform="translate(-373.79836,183.48253)"
       id="g1984">
      <g
         id="g2331">
        <g
           style="fill:#000000;fill-opacity:1"
           id="g5912">
          <use
             xlink:href="#symbol702"
             x="91.925003"
             y="81.962997"
             id="use8556"
             width="100%"
             height="100%" />
        </g>
      </g>
    </g>
    <g
       inkscape:label=""
       transform="translate(-181.13461,183.48253)"
       id="g1128">
      <g
         id="g9994">
        <g
           style="fill:#000000;fill-opacity:1"
           id="g7614">
          <use
             xlink:href="#symbol970"
             x="91.925003"
             y="81.962997"
             id="use7674"
             width="100%"
             height="100%" />
        </g>
        <g
           style="fill:#000000;fill-opacity:1"
           id="g1550">
          <use
             xlink:href="#symbol8074"
             x="100.587"
             y="83.457001"
             id="use3516"
             width="100%"
             height="100%" />
          <use
             xlink:href="#symbol1425"
             x="107.28115"
             y="83.457001"
             id="use5826"
             width="100%"
             height="100%" />
        </g>
      </g>
    </g>
    <g
       inkscape:label=""
       transform="translate(-288.44944,206.63021)"
       id="g1167">
      <g
         id="g7868">
        <g
           style="fill:#000000;fill-opacity:1"
           id="g9296">
          <use
             xlink:href="#symbol7008"
             x="91.925003"
             y="81.962997"
             id="use5392"
             width="100%"
             height="100%" />
        </g>
        <g
           style="fill:#000000;fill-opacity:1"
           id="g7257">
          <use
             xlink:href="#symbol3235"
             x="95.800003"
             y="81.962997"
             id="use5730"
             width="100%"
             height="100%" />
          <use
             xlink:href="#symbol1097"
             x="100.81219"
             y="81.962997"
             id="use4568"
             width="100%"
             height="100%" />
        </g>
        <g
           style="fill:#000000;fill-opacity:1"
           id="g9133">
          <use
             xlink:href="#symbol7728"
             x="105.24355"
             y="81.962997"
             id="use2938"
             width="100%"
             height="100%" />
        </g>
        <g
           style="fill:#000000;fill-opacity:1"
           id="g8956">
          <use
             xlink:href="#symbol6658"
             x="113.245"
             y="83.457001"
             id="use2979"
             width="100%"
             height="100%" />
          <use
             xlink:href="#symbol2857"
             x="119.02907"
             y="83.457001"
             id="use7101"
             width="100%"
             height="100%" />
        </g>
        <g
           style="fill:#000000;fill-opacity:1"
           id="g5794">
          <use
             xlink:href="#symbol1238"
             x="123.927"
             y="81.962997"
             id="use9530"
             width="100%"
             height="100%" />
        </g>
      </g>
    </g>
  </g>
</svg>
