<?xml version="1.0" encoding="UTF-8" standalone="no"?>
<svg
   xmlns:dc="http://purl.org/dc/elements/1.1/"
   xmlns:cc="http://creativecommons.org/ns#"
   xmlns:rdf="http://www.w3.org/1999/02/22-rdf-syntax-ns#"
   xmlns:svg="http://www.w3.org/2000/svg"
   xmlns="http://www.w3.org/2000/svg"
   xmlns:xlink="http://www.w3.org/1999/xlink"
   xmlns:sodipodi="http://sodipodi.sourceforge.net/DTD/sodipodi-0.dtd"
   xmlns:inkscape="http://www.inkscape.org/namespaces/inkscape"
   width="1920"
   height="1080"
   viewBox="0 0 508 285.75"
   version="1.1"
   id="svg8"
   sodipodi:docname="arraymanifold.svg"
   inkscape:version="1.0.1 (3bc2e813f5, 2020-09-07)"
   inkscape:export-filename="D:\Users\grigo\Google Drive\Facultad\Balseiro\PI Lucas\git-repository\digital-beamforming\Tesis\images\03-DOAEst\arraymanifold.png"
   inkscape:export-xdpi="299"
   inkscape:export-ydpi="299">
  <defs
     id="defs2">
    <marker
       style="overflow:visible;"
       id="marker1358"
       refX="0.0"
       refY="0.0"
       orient="auto"
       inkscape:stockid="Arrow1Lend"
       inkscape:isstock="true">
      <path
         transform="scale(0.8) rotate(180) translate(12.5,0)"
         style="fill-rule:evenodd;stroke:#ff0000;stroke-width:1pt;stroke-opacity:1;fill:#ff0000;fill-opacity:1"
         d="M 0.0,0.0 L 5.0,-5.0 L -12.5,0.0 L 5.0,5.0 L 0.0,0.0 z "
         id="path1356" />
    </marker>
    <marker
       style="overflow:visible;"
       id="marker1274"
       refX="0.0"
       refY="0.0"
       orient="auto"
       inkscape:stockid="Arrow1Lend"
       inkscape:isstock="true"
       inkscape:collect="always">
      <path
         transform="scale(0.8) rotate(180) translate(12.5,0)"
         style="fill-rule:evenodd;stroke:#ff0000;stroke-width:1pt;stroke-opacity:1;fill:#ff0000;fill-opacity:1"
         d="M 0.0,0.0 L 5.0,-5.0 L -12.5,0.0 L 5.0,5.0 L 0.0,0.0 z "
         id="path1272" />
    </marker>
    <marker
       style="overflow:visible;"
       id="marker1196"
       refX="0.0"
       refY="0.0"
       orient="auto"
       inkscape:stockid="Arrow1Lend"
       inkscape:isstock="true"
       inkscape:collect="always">
      <path
         transform="scale(0.8) rotate(180) translate(12.5,0)"
         style="fill-rule:evenodd;stroke:#ff0000;stroke-width:1pt;stroke-opacity:1;fill:#ff0000;fill-opacity:1"
         d="M 0.0,0.0 L 5.0,-5.0 L -12.5,0.0 L 5.0,5.0 L 0.0,0.0 z "
         id="path1194" />
    </marker>
    <marker
       style="overflow:visible;"
       id="marker1100"
       refX="0.0"
       refY="0.0"
       orient="auto"
       inkscape:stockid="Arrow1Lend"
       inkscape:isstock="true"
       inkscape:collect="always">
      <path
         transform="scale(0.8) rotate(180) translate(12.5,0)"
         style="fill-rule:evenodd;stroke:#ff0000;stroke-width:1pt;stroke-opacity:1;fill:#ff0000;fill-opacity:1"
         d="M 0.0,0.0 L 5.0,-5.0 L -12.5,0.0 L 5.0,5.0 L 0.0,0.0 z "
         id="path1098" />
    </marker>
    <marker
       style="overflow:visible;"
       id="marker1016"
       refX="0.0"
       refY="0.0"
       orient="auto"
       inkscape:stockid="Arrow1Lend"
       inkscape:isstock="true"
       inkscape:collect="always">
      <path
         transform="scale(0.8) rotate(180) translate(12.5,0)"
         style="fill-rule:evenodd;stroke:#ff0000;stroke-width:1pt;stroke-opacity:1;fill:#ff0000;fill-opacity:1"
         d="M 0.0,0.0 L 5.0,-5.0 L -12.5,0.0 L 5.0,5.0 L 0.0,0.0 z "
         id="path1014" />
    </marker>
    <marker
       style="overflow:visible"
       id="marker1345"
       refX="0.0"
       refY="0.0"
       orient="auto"
       inkscape:stockid="Arrow1Lstart"
       inkscape:isstock="true">
      <path
         transform="scale(0.8) translate(12.5,0)"
         style="fill-rule:evenodd;stroke:#ff0000;stroke-width:1pt;stroke-opacity:1;fill:#ff0000;fill-opacity:1"
         d="M 0.0,0.0 L 5.0,-5.0 L -12.5,0.0 L 5.0,5.0 L 0.0,0.0 z "
         id="path1343" />
    </marker>
    <marker
       style="overflow:visible"
       id="marker1287"
       refX="0.0"
       refY="0.0"
       orient="auto"
       inkscape:stockid="Arrow1Lstart"
       inkscape:isstock="true"
       inkscape:collect="always">
      <path
         transform="scale(0.8) translate(12.5,0)"
         style="fill-rule:evenodd;stroke:#000000;stroke-width:1pt;stroke-opacity:1;fill:#000000;fill-opacity:1"
         d="M 0.0,0.0 L 5.0,-5.0 L -12.5,0.0 L 5.0,5.0 L 0.0,0.0 z "
         id="path1285" />
    </marker>
    <marker
       style="overflow:visible;"
       id="marker1189"
       refX="0.0"
       refY="0.0"
       orient="auto"
       inkscape:stockid="Arrow1Lend"
       inkscape:isstock="true"
       inkscape:collect="always">
      <path
         transform="scale(0.8) rotate(180) translate(12.5,0)"
         style="fill-rule:evenodd;stroke:#ff0000;stroke-width:1pt;stroke-opacity:1;fill:#ff0000;fill-opacity:1"
         d="M 0.0,0.0 L 5.0,-5.0 L -12.5,0.0 L 5.0,5.0 L 0.0,0.0 z "
         id="path1187" />
    </marker>
    <marker
       style="overflow:visible"
       id="marker1149"
       refX="0.0"
       refY="0.0"
       orient="auto"
       inkscape:stockid="Arrow1Lstart"
       inkscape:isstock="true">
      <path
         transform="scale(0.8) translate(12.5,0)"
         style="fill-rule:evenodd;stroke:#ff0000;stroke-width:1pt;stroke-opacity:1;fill:#ff0000;fill-opacity:1"
         d="M 0.0,0.0 L 5.0,-5.0 L -12.5,0.0 L 5.0,5.0 L 0.0,0.0 z "
         id="path1147" />
    </marker>
    <marker
       style="overflow:visible"
       id="Arrow1Lstart"
       refX="0.0"
       refY="0.0"
       orient="auto"
       inkscape:stockid="Arrow1Lstart"
       inkscape:isstock="true"
       inkscape:collect="always">
      <path
         transform="scale(0.8) translate(12.5,0)"
         style="fill-rule:evenodd;stroke:#000000;stroke-width:1pt;stroke-opacity:1;fill:#000000;fill-opacity:1"
         d="M 0.0,0.0 L 5.0,-5.0 L -12.5,0.0 L 5.0,5.0 L 0.0,0.0 z "
         id="path843" />
    </marker>
    <marker
       style="overflow:visible;"
       id="Arrow1Lend"
       refX="0.0"
       refY="0.0"
       orient="auto"
       inkscape:stockid="Arrow1Lend"
       inkscape:isstock="true"
       inkscape:collect="always">
      <path
         transform="scale(0.8) rotate(180) translate(12.5,0)"
         style="fill-rule:evenodd;stroke:#000000;stroke-width:1pt;stroke-opacity:1;fill:#000000;fill-opacity:1"
         d="M 0.0,0.0 L 5.0,-5.0 L -12.5,0.0 L 5.0,5.0 L 0.0,0.0 z "
         id="path846" />
    </marker>
    <g
       id="g5823">
      <symbol
         overflow="visible"
         id="symbol3341">
        <path
           style="stroke:none;"
           d=""
           id="path9749" />
      </symbol>
      <symbol
         overflow="visible"
         id="symbol9489">
        <path
           style="stroke:none;"
           d="M 3.984375 -3.1875 C 4.28125 -3.78125 4.46875 -4.46875 4.46875 -5.140625 C 4.46875 -6.109375 3.671875 -6.84375 2.71875 -6.84375 C 1.90625 -6.84375 1.03125 -6.265625 0.78125 -6.015625 C 0.515625 -5.734375 0.21875 -5.4375 0.21875 -5.046875 C 0.21875 -4.453125 0.703125 -4.171875 1 -3.71875 C 1.0625 -3.640625 1.109375 -3.546875 1.109375 -3.453125 C 1.109375 -3.125 0.78125 -2.828125 0.484375 -2.65625 L 0.640625 -2.546875 C 1.171875 -2.796875 1.796875 -3.28125 1.796875 -3.875 C 1.796875 -4.453125 0.859375 -4.921875 0.859375 -5.359375 C 0.859375 -5.9375 1.453125 -6.3125 1.96875 -6.3125 C 2.953125 -6.3125 3.671875 -5.46875 3.671875 -4.5 C 3.671875 -3.96875 3.578125 -3.34375 3.234375 -2.90625 C 2.84375 -2.375 2.078125 -1.828125 1.4375 -1.328125 L 0.3125 -0.484375 L 0.484375 -0.375 C 0.84375 -0.59375 1.15625 -0.765625 1.53125 -0.765625 C 2.21875 -0.765625 2.65625 -0.28125 2.984375 0.265625 L 5 -1.21875 C 5.15625 -0.703125 5.328125 -0.21875 5.625 0.265625 L 7.0625 -0.84375 L 7.015625 -1 C 6.84375 -0.921875 6.5625 -0.75 6.40625 -0.75 C 6.234375 -0.75 5.984375 -1.390625 5.890625 -1.640625 C 5.859375 -1.734375 5.859375 -1.859375 5.84375 -1.96875 C 5.8125 -2.5625 5.796875 -3.15625 5.796875 -3.765625 C 5.796875 -4.765625 5.75 -6.15625 5.953125 -6.421875 C 6.015625 -6.515625 6.21875 -6.703125 6.375 -6.84375 L 6.203125 -6.953125 L 4.9375 -5.984375 C 4.96875 -5.609375 5 -5.140625 5 -4.71875 L 5 -1.484375 C 4.5 -1.171875 3.671875 -0.640625 3.5625 -0.640625 L 3.078125 -1.109375 C 2.859375 -1.328125 2.609375 -1.546875 2.21875 -1.546875 Z M 3.984375 -3.1875 "
           id="path7228" />
      </symbol>
    </g>
    <g
       id="g2473">
      <symbol
         overflow="visible"
         id="symbol5807">
        <path
           style="stroke:none;"
           d=""
           id="path3975" />
      </symbol>
      <symbol
         overflow="visible"
         id="symbol2343">
        <path
           style="stroke:none;"
           d="M 4.28125 -5.578125 L 4.28125 -5.875 L 0.6875 -5.875 L 0.6875 -5.578125 Z M 4.28125 -5.578125 "
           id="path4661" />
      </symbol>
      <symbol
         overflow="visible"
         id="symbol8397">
        <path
           style="stroke:none;"
           d=""
           id="path6293" />
      </symbol>
      <symbol
         overflow="visible"
         id="symbol5874">
        <path
           style="stroke:none;"
           d="M 3.328125 -3.015625 C 3.390625 -3.265625 3.625 -4.1875 4.3125 -4.1875 C 4.359375 -4.1875 4.609375 -4.1875 4.8125 -4.0625 C 4.53125 -4 4.34375 -3.765625 4.34375 -3.515625 C 4.34375 -3.359375 4.453125 -3.171875 4.71875 -3.171875 C 4.9375 -3.171875 5.25 -3.34375 5.25 -3.75 C 5.25 -4.265625 4.671875 -4.40625 4.328125 -4.40625 C 3.75 -4.40625 3.40625 -3.875 3.28125 -3.65625 C 3.03125 -4.3125 2.5 -4.40625 2.203125 -4.40625 C 1.171875 -4.40625 0.59375 -3.125 0.59375 -2.875 C 0.59375 -2.765625 0.703125 -2.765625 0.71875 -2.765625 C 0.796875 -2.765625 0.828125 -2.796875 0.84375 -2.875 C 1.1875 -3.9375 1.84375 -4.1875 2.1875 -4.1875 C 2.375 -4.1875 2.71875 -4.09375 2.71875 -3.515625 C 2.71875 -3.203125 2.546875 -2.546875 2.1875 -1.140625 C 2.03125 -0.53125 1.671875 -0.109375 1.234375 -0.109375 C 1.171875 -0.109375 0.953125 -0.109375 0.734375 -0.234375 C 0.984375 -0.296875 1.203125 -0.5 1.203125 -0.78125 C 1.203125 -1.046875 0.984375 -1.125 0.84375 -1.125 C 0.53125 -1.125 0.296875 -0.875 0.296875 -0.546875 C 0.296875 -0.09375 0.78125 0.109375 1.21875 0.109375 C 1.890625 0.109375 2.25 -0.59375 2.265625 -0.640625 C 2.390625 -0.28125 2.75 0.109375 3.34375 0.109375 C 4.375 0.109375 4.9375 -1.171875 4.9375 -1.421875 C 4.9375 -1.53125 4.859375 -1.53125 4.828125 -1.53125 C 4.734375 -1.53125 4.71875 -1.484375 4.6875 -1.421875 C 4.359375 -0.34375 3.6875 -0.109375 3.375 -0.109375 C 2.984375 -0.109375 2.828125 -0.421875 2.828125 -0.765625 C 2.828125 -0.984375 2.875 -1.203125 2.984375 -1.640625 Z M 3.328125 -3.015625 "
           id="path1493" />
      </symbol>
      <symbol
         overflow="visible"
         id="symbol6213">
        <path
           style="stroke:none;"
           d=""
           id="path742" />
      </symbol>
      <symbol
         overflow="visible"
         id="symbol4406">
        <path
           style="stroke:none;"
           d="M 3.59375 -2.21875 C 3.59375 -2.984375 3.5 -3.546875 3.1875 -4.03125 C 2.96875 -4.34375 2.53125 -4.625 1.984375 -4.625 C 0.359375 -4.625 0.359375 -2.71875 0.359375 -2.21875 C 0.359375 -1.71875 0.359375 0.140625 1.984375 0.140625 C 3.59375 0.140625 3.59375 -1.71875 3.59375 -2.21875 Z M 1.984375 -0.0625 C 1.65625 -0.0625 1.234375 -0.25 1.09375 -0.8125 C 1 -1.21875 1 -1.796875 1 -2.3125 C 1 -2.828125 1 -3.359375 1.09375 -3.734375 C 1.25 -4.28125 1.6875 -4.4375 1.984375 -4.4375 C 2.359375 -4.4375 2.71875 -4.203125 2.84375 -3.796875 C 2.953125 -3.421875 2.96875 -2.921875 2.96875 -2.3125 C 2.96875 -1.796875 2.96875 -1.28125 2.875 -0.84375 C 2.734375 -0.203125 2.265625 -0.0625 1.984375 -0.0625 Z M 1.984375 -0.0625 "
           id="path6494" />
      </symbol>
    </g>
    <g
       id="g9605">
      <symbol
         overflow="visible"
         id="symbol2529">
        <path
           style="stroke:none;"
           d=""
           id="path1288" />
      </symbol>
      <symbol
         overflow="visible"
         id="symbol69">
        <path
           style="stroke:none;"
           d="M 4.28125 -5.578125 L 4.28125 -5.875 L 0.6875 -5.875 L 0.6875 -5.578125 Z M 4.28125 -5.578125 "
           id="path3561" />
      </symbol>
      <symbol
         overflow="visible"
         id="symbol4523">
        <path
           style="stroke:none;"
           d=""
           id="path2893" />
      </symbol>
      <symbol
         overflow="visible"
         id="symbol7279">
        <path
           style="stroke:none;"
           d="M 3.328125 -3.015625 C 3.390625 -3.265625 3.625 -4.1875 4.3125 -4.1875 C 4.359375 -4.1875 4.609375 -4.1875 4.8125 -4.0625 C 4.53125 -4 4.34375 -3.765625 4.34375 -3.515625 C 4.34375 -3.359375 4.453125 -3.171875 4.71875 -3.171875 C 4.9375 -3.171875 5.25 -3.34375 5.25 -3.75 C 5.25 -4.265625 4.671875 -4.40625 4.328125 -4.40625 C 3.75 -4.40625 3.40625 -3.875 3.28125 -3.65625 C 3.03125 -4.3125 2.5 -4.40625 2.203125 -4.40625 C 1.171875 -4.40625 0.59375 -3.125 0.59375 -2.875 C 0.59375 -2.765625 0.703125 -2.765625 0.71875 -2.765625 C 0.796875 -2.765625 0.828125 -2.796875 0.84375 -2.875 C 1.1875 -3.9375 1.84375 -4.1875 2.1875 -4.1875 C 2.375 -4.1875 2.71875 -4.09375 2.71875 -3.515625 C 2.71875 -3.203125 2.546875 -2.546875 2.1875 -1.140625 C 2.03125 -0.53125 1.671875 -0.109375 1.234375 -0.109375 C 1.171875 -0.109375 0.953125 -0.109375 0.734375 -0.234375 C 0.984375 -0.296875 1.203125 -0.5 1.203125 -0.78125 C 1.203125 -1.046875 0.984375 -1.125 0.84375 -1.125 C 0.53125 -1.125 0.296875 -0.875 0.296875 -0.546875 C 0.296875 -0.09375 0.78125 0.109375 1.21875 0.109375 C 1.890625 0.109375 2.25 -0.59375 2.265625 -0.640625 C 2.390625 -0.28125 2.75 0.109375 3.34375 0.109375 C 4.375 0.109375 4.9375 -1.171875 4.9375 -1.421875 C 4.9375 -1.53125 4.859375 -1.53125 4.828125 -1.53125 C 4.734375 -1.53125 4.71875 -1.484375 4.6875 -1.421875 C 4.359375 -0.34375 3.6875 -0.109375 3.375 -0.109375 C 2.984375 -0.109375 2.828125 -0.421875 2.828125 -0.765625 C 2.828125 -0.984375 2.875 -1.203125 2.984375 -1.640625 Z M 3.328125 -3.015625 "
           id="path5669" />
      </symbol>
      <symbol
         overflow="visible"
         id="symbol193">
        <path
           style="stroke:none;"
           d=""
           id="path4871" />
      </symbol>
      <symbol
         overflow="visible"
         id="symbol8967">
        <path
           style="stroke:none;"
           d="M 2.328125 -4.4375 C 2.328125 -4.625 2.328125 -4.625 2.125 -4.625 C 1.671875 -4.1875 1.046875 -4.1875 0.765625 -4.1875 L 0.765625 -3.9375 C 0.921875 -3.9375 1.390625 -3.9375 1.765625 -4.125 L 1.765625 -0.578125 C 1.765625 -0.34375 1.765625 -0.25 1.078125 -0.25 L 0.8125 -0.25 L 0.8125 0 C 0.9375 0 1.796875 -0.03125 2.046875 -0.03125 C 2.265625 -0.03125 3.140625 0 3.296875 0 L 3.296875 -0.25 L 3.03125 -0.25 C 2.328125 -0.25 2.328125 -0.34375 2.328125 -0.578125 Z M 2.328125 -4.4375 "
           id="path1022" />
      </symbol>
    </g>
    <g
       id="g5872">
      <symbol
         overflow="visible"
         id="symbol129">
        <path
           style="stroke:none;"
           d=""
           id="path8224" />
      </symbol>
      <symbol
         overflow="visible"
         id="symbol850">
        <path
           style="stroke:none;"
           d="M 4.28125 -5.578125 L 4.28125 -5.875 L 0.6875 -5.875 L 0.6875 -5.578125 Z M 4.28125 -5.578125 "
           id="path6607" />
      </symbol>
      <symbol
         overflow="visible"
         id="symbol4432">
        <path
           style="stroke:none;"
           d="M 3.296875 2.390625 C 3.296875 2.359375 3.296875 2.34375 3.125 2.171875 C 1.890625 0.921875 1.5625 -0.96875 1.5625 -2.5 C 1.5625 -4.234375 1.9375 -5.96875 3.171875 -7.203125 C 3.296875 -7.328125 3.296875 -7.34375 3.296875 -7.375 C 3.296875 -7.453125 3.265625 -7.484375 3.203125 -7.484375 C 3.09375 -7.484375 2.203125 -6.796875 1.609375 -5.53125 C 1.109375 -4.4375 0.984375 -3.328125 0.984375 -2.5 C 0.984375 -1.71875 1.09375 -0.515625 1.640625 0.625 C 2.25 1.84375 3.09375 2.5 3.203125 2.5 C 3.265625 2.5 3.296875 2.46875 3.296875 2.390625 Z M 3.296875 2.390625 "
           id="path2448" />
      </symbol>
      <symbol
         overflow="visible"
         id="symbol9603">
        <path
           style="stroke:none;"
           d="M 2.875 -2.5 C 2.875 -3.265625 2.765625 -4.46875 2.21875 -5.609375 C 1.625 -6.828125 0.765625 -7.484375 0.671875 -7.484375 C 0.609375 -7.484375 0.5625 -7.4375 0.5625 -7.375 C 0.5625 -7.34375 0.5625 -7.328125 0.75 -7.140625 C 1.734375 -6.15625 2.296875 -4.578125 2.296875 -2.5 C 2.296875 -0.78125 1.9375 0.96875 0.703125 2.21875 C 0.5625 2.34375 0.5625 2.359375 0.5625 2.390625 C 0.5625 2.453125 0.609375 2.5 0.671875 2.5 C 0.765625 2.5 1.671875 1.8125 2.25 0.546875 C 2.765625 -0.546875 2.875 -1.65625 2.875 -2.5 Z M 2.875 -2.5 "
           id="path9308" />
      </symbol>
      <symbol
         overflow="visible"
         id="symbol610">
        <path
           style="stroke:none;"
           d=""
           id="path9412" />
      </symbol>
      <symbol
         overflow="visible"
         id="symbol7937">
        <path
           style="stroke:none;"
           d="M 3.71875 -3.765625 C 3.53125 -4.140625 3.25 -4.40625 2.796875 -4.40625 C 1.640625 -4.40625 0.40625 -2.9375 0.40625 -1.484375 C 0.40625 -0.546875 0.953125 0.109375 1.71875 0.109375 C 1.921875 0.109375 2.421875 0.0625 3.015625 -0.640625 C 3.09375 -0.21875 3.453125 0.109375 3.921875 0.109375 C 4.28125 0.109375 4.5 -0.125 4.671875 -0.4375 C 4.828125 -0.796875 4.96875 -1.40625 4.96875 -1.421875 C 4.96875 -1.53125 4.875 -1.53125 4.84375 -1.53125 C 4.75 -1.53125 4.734375 -1.484375 4.703125 -1.34375 C 4.53125 -0.703125 4.359375 -0.109375 3.953125 -0.109375 C 3.671875 -0.109375 3.65625 -0.375 3.65625 -0.5625 C 3.65625 -0.78125 3.671875 -0.875 3.78125 -1.3125 C 3.890625 -1.71875 3.90625 -1.828125 4 -2.203125 L 4.359375 -3.59375 C 4.421875 -3.875 4.421875 -3.890625 4.421875 -3.9375 C 4.421875 -4.109375 4.3125 -4.203125 4.140625 -4.203125 C 3.890625 -4.203125 3.75 -3.984375 3.71875 -3.765625 Z M 3.078125 -1.1875 C 3.015625 -1 3.015625 -0.984375 2.875 -0.8125 C 2.4375 -0.265625 2.03125 -0.109375 1.75 -0.109375 C 1.25 -0.109375 1.109375 -0.65625 1.109375 -1.046875 C 1.109375 -1.546875 1.421875 -2.765625 1.65625 -3.234375 C 1.96875 -3.8125 2.40625 -4.1875 2.8125 -4.1875 C 3.453125 -4.1875 3.59375 -3.375 3.59375 -3.3125 C 3.59375 -3.25 3.578125 -3.1875 3.5625 -3.140625 Z M 3.078125 -1.1875 "
           id="path5968" />
      </symbol>
      <symbol
         overflow="visible"
         id="symbol6655">
        <path
           style="stroke:none;"
           d="M 4.53125 -4.984375 C 4.53125 -5.640625 4.359375 -7.03125 3.34375 -7.03125 C 1.953125 -7.03125 0.421875 -4.21875 0.421875 -1.9375 C 0.421875 -1 0.703125 0.109375 1.609375 0.109375 C 3.015625 0.109375 4.53125 -2.75 4.53125 -4.984375 Z M 1.46875 -3.625 C 1.640625 -4.25 1.84375 -5.046875 2.25 -5.765625 C 2.515625 -6.25 2.875 -6.8125 3.328125 -6.8125 C 3.8125 -6.8125 3.875 -6.171875 3.875 -5.609375 C 3.875 -5.109375 3.796875 -4.609375 3.5625 -3.625 Z M 3.46875 -3.296875 C 3.359375 -2.84375 3.15625 -2 2.765625 -1.28125 C 2.421875 -0.59375 2.046875 -0.109375 1.609375 -0.109375 C 1.28125 -0.109375 1.078125 -0.40625 1.078125 -1.328125 C 1.078125 -1.75 1.140625 -2.328125 1.390625 -3.296875 Z M 3.46875 -3.296875 "
           id="path4706" />
      </symbol>
      <symbol
         overflow="visible"
         id="symbol1462">
        <path
           style="stroke:none;"
           d=""
           id="path9384" />
      </symbol>
      <symbol
         overflow="visible"
         id="symbol1618">
        <path
           style="stroke:none;"
           d="M 3.59375 -2.21875 C 3.59375 -2.984375 3.5 -3.546875 3.1875 -4.03125 C 2.96875 -4.34375 2.53125 -4.625 1.984375 -4.625 C 0.359375 -4.625 0.359375 -2.71875 0.359375 -2.21875 C 0.359375 -1.71875 0.359375 0.140625 1.984375 0.140625 C 3.59375 0.140625 3.59375 -1.71875 3.59375 -2.21875 Z M 1.984375 -0.0625 C 1.65625 -0.0625 1.234375 -0.25 1.09375 -0.8125 C 1 -1.21875 1 -1.796875 1 -2.3125 C 1 -2.828125 1 -3.359375 1.09375 -3.734375 C 1.25 -4.28125 1.6875 -4.4375 1.984375 -4.4375 C 2.359375 -4.4375 2.71875 -4.203125 2.84375 -3.796875 C 2.953125 -3.421875 2.96875 -2.921875 2.96875 -2.3125 C 2.96875 -1.796875 2.96875 -1.28125 2.875 -0.84375 C 2.734375 -0.203125 2.265625 -0.0625 1.984375 -0.0625 Z M 1.984375 -0.0625 "
           id="path968" />
      </symbol>
    </g>
    <g
       id="g5112">
      <symbol
         overflow="visible"
         id="symbol3957">
        <path
           style="stroke:none;"
           d=""
           id="path294" />
      </symbol>
      <symbol
         overflow="visible"
         id="symbol4515">
        <path
           style="stroke:none;"
           d="M 4.28125 -5.578125 L 4.28125 -5.875 L 0.6875 -5.875 L 0.6875 -5.578125 Z M 4.28125 -5.578125 "
           id="path8827" />
      </symbol>
      <symbol
         overflow="visible"
         id="symbol3284">
        <path
           style="stroke:none;"
           d="M 3.296875 2.390625 C 3.296875 2.359375 3.296875 2.34375 3.125 2.171875 C 1.890625 0.921875 1.5625 -0.96875 1.5625 -2.5 C 1.5625 -4.234375 1.9375 -5.96875 3.171875 -7.203125 C 3.296875 -7.328125 3.296875 -7.34375 3.296875 -7.375 C 3.296875 -7.453125 3.265625 -7.484375 3.203125 -7.484375 C 3.09375 -7.484375 2.203125 -6.796875 1.609375 -5.53125 C 1.109375 -4.4375 0.984375 -3.328125 0.984375 -2.5 C 0.984375 -1.71875 1.09375 -0.515625 1.640625 0.625 C 2.25 1.84375 3.09375 2.5 3.203125 2.5 C 3.265625 2.5 3.296875 2.46875 3.296875 2.390625 Z M 3.296875 2.390625 "
           id="path7078" />
      </symbol>
      <symbol
         overflow="visible"
         id="symbol986">
        <path
           style="stroke:none;"
           d="M 2.875 -2.5 C 2.875 -3.265625 2.765625 -4.46875 2.21875 -5.609375 C 1.625 -6.828125 0.765625 -7.484375 0.671875 -7.484375 C 0.609375 -7.484375 0.5625 -7.4375 0.5625 -7.375 C 0.5625 -7.34375 0.5625 -7.328125 0.75 -7.140625 C 1.734375 -6.15625 2.296875 -4.578125 2.296875 -2.5 C 2.296875 -0.78125 1.9375 0.96875 0.703125 2.21875 C 0.5625 2.34375 0.5625 2.359375 0.5625 2.390625 C 0.5625 2.453125 0.609375 2.5 0.671875 2.5 C 0.765625 2.5 1.671875 1.8125 2.25 0.546875 C 2.765625 -0.546875 2.875 -1.65625 2.875 -2.5 Z M 2.875 -2.5 "
           id="path5890" />
      </symbol>
      <symbol
         overflow="visible"
         id="symbol8014">
        <path
           style="stroke:none;"
           d=""
           id="path9623" />
      </symbol>
      <symbol
         overflow="visible"
         id="symbol3779">
        <path
           style="stroke:none;"
           d="M 3.71875 -3.765625 C 3.53125 -4.140625 3.25 -4.40625 2.796875 -4.40625 C 1.640625 -4.40625 0.40625 -2.9375 0.40625 -1.484375 C 0.40625 -0.546875 0.953125 0.109375 1.71875 0.109375 C 1.921875 0.109375 2.421875 0.0625 3.015625 -0.640625 C 3.09375 -0.21875 3.453125 0.109375 3.921875 0.109375 C 4.28125 0.109375 4.5 -0.125 4.671875 -0.4375 C 4.828125 -0.796875 4.96875 -1.40625 4.96875 -1.421875 C 4.96875 -1.53125 4.875 -1.53125 4.84375 -1.53125 C 4.75 -1.53125 4.734375 -1.484375 4.703125 -1.34375 C 4.53125 -0.703125 4.359375 -0.109375 3.953125 -0.109375 C 3.671875 -0.109375 3.65625 -0.375 3.65625 -0.5625 C 3.65625 -0.78125 3.671875 -0.875 3.78125 -1.3125 C 3.890625 -1.71875 3.90625 -1.828125 4 -2.203125 L 4.359375 -3.59375 C 4.421875 -3.875 4.421875 -3.890625 4.421875 -3.9375 C 4.421875 -4.109375 4.3125 -4.203125 4.140625 -4.203125 C 3.890625 -4.203125 3.75 -3.984375 3.71875 -3.765625 Z M 3.078125 -1.1875 C 3.015625 -1 3.015625 -0.984375 2.875 -0.8125 C 2.4375 -0.265625 2.03125 -0.109375 1.75 -0.109375 C 1.25 -0.109375 1.109375 -0.65625 1.109375 -1.046875 C 1.109375 -1.546875 1.421875 -2.765625 1.65625 -3.234375 C 1.96875 -3.8125 2.40625 -4.1875 2.8125 -4.1875 C 3.453125 -4.1875 3.59375 -3.375 3.59375 -3.3125 C 3.59375 -3.25 3.578125 -3.1875 3.5625 -3.140625 Z M 3.078125 -1.1875 "
           id="path9670" />
      </symbol>
      <symbol
         overflow="visible"
         id="symbol8283">
        <path
           style="stroke:none;"
           d="M 4.53125 -4.984375 C 4.53125 -5.640625 4.359375 -7.03125 3.34375 -7.03125 C 1.953125 -7.03125 0.421875 -4.21875 0.421875 -1.9375 C 0.421875 -1 0.703125 0.109375 1.609375 0.109375 C 3.015625 0.109375 4.53125 -2.75 4.53125 -4.984375 Z M 1.46875 -3.625 C 1.640625 -4.25 1.84375 -5.046875 2.25 -5.765625 C 2.515625 -6.25 2.875 -6.8125 3.328125 -6.8125 C 3.8125 -6.8125 3.875 -6.171875 3.875 -5.609375 C 3.875 -5.109375 3.796875 -4.609375 3.5625 -3.625 Z M 3.46875 -3.296875 C 3.359375 -2.84375 3.15625 -2 2.765625 -1.28125 C 2.421875 -0.59375 2.046875 -0.109375 1.609375 -0.109375 C 1.28125 -0.109375 1.078125 -0.40625 1.078125 -1.328125 C 1.078125 -1.75 1.140625 -2.328125 1.390625 -3.296875 Z M 3.46875 -3.296875 "
           id="path520" />
      </symbol>
      <symbol
         overflow="visible"
         id="symbol2675">
        <path
           style="stroke:none;"
           d=""
           id="path8472" />
      </symbol>
      <symbol
         overflow="visible"
         id="symbol6397">
        <path
           style="stroke:none;"
           d="M 2.328125 -4.4375 C 2.328125 -4.625 2.328125 -4.625 2.125 -4.625 C 1.671875 -4.1875 1.046875 -4.1875 0.765625 -4.1875 L 0.765625 -3.9375 C 0.921875 -3.9375 1.390625 -3.9375 1.765625 -4.125 L 1.765625 -0.578125 C 1.765625 -0.34375 1.765625 -0.25 1.078125 -0.25 L 0.8125 -0.25 L 0.8125 0 C 0.9375 0 1.796875 -0.03125 2.046875 -0.03125 C 2.265625 -0.03125 3.140625 0 3.296875 0 L 3.296875 -0.25 L 3.03125 -0.25 C 2.328125 -0.25 2.328125 -0.34375 2.328125 -0.578125 Z M 2.328125 -4.4375 "
           id="path936" />
      </symbol>
    </g>
    <marker
       style="overflow:visible"
       id="marker1358-1"
       refX="0"
       refY="0"
       orient="auto"
       inkscape:stockid="Arrow1Lend"
       inkscape:isstock="true">
      <path
         transform="matrix(-0.8,0,0,-0.8,-10,0)"
         style="fill:#ff0000;fill-opacity:1;fill-rule:evenodd;stroke:#ff0000;stroke-width:1pt;stroke-opacity:1"
         d="M 0,0 5,-5 -12.5,0 5,5 Z"
         id="path1356-3" />
    </marker>
    <marker
       style="overflow:visible"
       id="marker1358-2"
       refX="0"
       refY="0"
       orient="auto"
       inkscape:stockid="Arrow1Lend"
       inkscape:isstock="true">
      <path
         transform="matrix(-0.8,0,0,-0.8,-10,0)"
         style="fill:#ff0000;fill-opacity:1;fill-rule:evenodd;stroke:#ff0000;stroke-width:1pt;stroke-opacity:1"
         d="M 0,0 5,-5 -12.5,0 5,5 Z"
         id="path1356-0" />
    </marker>
  </defs>
  <sodipodi:namedview
     id="base"
     pagecolor="#ffffff"
     bordercolor="#666666"
     borderopacity="1.0"
     inkscape:pageopacity="0.0"
     inkscape:pageshadow="2"
     inkscape:zoom="0.98994949"
     inkscape:cx="567.86478"
     inkscape:cy="567.88336"
     inkscape:document-units="mm"
     inkscape:current-layer="layer1"
     inkscape:document-rotation="0"
     showgrid="true"
     units="px"
     inkscape:showpageshadow="false"
     showborder="false"
     inkscape:snap-bbox="true"
     inkscape:bbox-paths="false"
     inkscape:bbox-nodes="false"
     inkscape:snap-bbox-edge-midpoints="false"
     inkscape:snap-bbox-midpoints="false"
     inkscape:object-paths="true"
     inkscape:snap-intersection-paths="true"
     inkscape:snap-smooth-nodes="true"
     inkscape:snap-midpoints="true"
     inkscape:snap-object-midpoints="false"
     inkscape:snap-center="false"
     inkscape:snap-text-baseline="false"
     inkscape:snap-nodes="true"
     inkscape:snap-grids="false"
     inkscape:window-width="1920"
     inkscape:window-height="1017"
     inkscape:window-x="-8"
     inkscape:window-y="-8"
     inkscape:window-maximized="1">
    <inkscape:grid
       type="axonomgrid"
       id="grid839"
       spacingy="10" />
  </sodipodi:namedview>
  <metadata
     id="metadata5">
    <rdf:RDF>
      <cc:Work
         rdf:about="">
        <dc:format>image/svg+xml</dc:format>
        <dc:type
           rdf:resource="http://purl.org/dc/dcmitype/StillImage" />
        <dc:title />
      </cc:Work>
    </rdf:RDF>
  </metadata>
  <g
     inkscape:label="Layer 1"
     inkscape:groupmode="layer"
     id="layer1">
    <path
       style="fill:none;stroke:#ff0000;stroke-width:0.264583;stroke-linecap:butt;stroke-linejoin:miter;stroke-miterlimit:4;stroke-dasharray:2.11666, 2.11666;stroke-dashoffset:0;stroke-opacity:1;marker-end:url(#marker1358-2)"
       d="M 173.20508,130 121.24356,70"
       id="path1354-55"
       sodipodi:nodetypes="cc" />
    <path
       style="fill:none;stroke:#ff0000;stroke-width:0.264583;stroke-linecap:butt;stroke-linejoin:miter;stroke-miterlimit:4;stroke-dasharray:2.11666, 2.11666;stroke-dashoffset:0;stroke-opacity:1;marker-end:url(#marker1358-1)"
       d="M 173.20508,130 92.913909,97.030079"
       id="path1354-5"
       sodipodi:nodetypes="cc" />
    <path
       style="fill:none;stroke:#ff0000;stroke-width:0.26458299;stroke-linecap:butt;stroke-linejoin:miter;stroke-opacity:1;marker-end:url(#marker1358);stroke-miterlimit:4;stroke-dasharray:2.11666389,2.11666389;stroke-dashoffset:0"
       d="M 173.20508,130 H 103.92305"
       id="path1354" />
    <path
       style="fill:#e6e6e6;stroke:#000000;stroke-width:0.264583px;stroke-linecap:butt;stroke-linejoin:miter;stroke-opacity:1"
       d="m 129.90381,75 86.60254,-50 v 160 l -86.60254,50 z"
       id="path835"
       sodipodi:nodetypes="ccccc" />
    <path
       style="fill:none;stroke:#000000;stroke-width:0.265;stroke-linecap:butt;stroke-linejoin:miter;stroke-opacity:1;stroke-miterlimit:4;stroke-dasharray:none;marker-end:url(#Arrow1Lend);marker-start:url(#Arrow1Lstart)"
       d="m 199.18584,75 -25.98076,55 -8.66025,45"
       id="path841" />
    <path
       style="fill:none;stroke:#ff0000;stroke-width:0.26458299;stroke-linecap:butt;stroke-linejoin:miter;stroke-opacity:1;stroke-miterlimit:4;stroke-dasharray:none;stroke-dashoffset:0;marker-start:url(#marker1149);marker-end:url(#marker1189)"
       d="m 155.88457,160 17.32051,-30 25.98076,-25"
       id="path1145" />
    <path
       style="fill:none;stroke:#000000;stroke-width:0.264583px;stroke-linecap:butt;stroke-linejoin:miter;stroke-opacity:1;marker-start:url(#marker1287)"
       d="m 207.84609,39.999999 c 0.0275,-13.923109 -1.31173,-19.64615 -8.18944,-24.19819"
       id="path1283"
       sodipodi:nodetypes="cc" />
    <text
       xml:space="preserve"
       style="font-size:7.05556px;line-height:1.25;font-family:sans-serif;letter-spacing:0px;word-spacing:0px;stroke-width:0.264583"
       x="165.03612"
       y="13.412501"
       id="text1339"><tspan
         sodipodi:role="line"
         id="tspan1337"
         x="165.03612"
         y="13.412501"
         style="font-size:7.05556px;stroke-width:0.264583">SUBESPACIO DE SEÑAL</tspan></text>
    <path
       style="fill:none;stroke:#ff0000;stroke-width:0.264583px;stroke-linecap:butt;stroke-linejoin:miter;stroke-opacity:1;marker-start:url(#marker1345)"
       d="m 233.82686,195 c 9.77908,3.69184 10.4279,18.20835 8.66025,25"
       id="path1341"
       sodipodi:nodetypes="cc" />
    <g
       inkscape:label=""
       transform="translate(168.845, 155.001)"
       id="g1427">
      <g
         id="g8669">
        <g
           style="fill:rgb(0%,0%,0%);fill-opacity:1;"
           id="g177">
          <use
             xlink:href="#symbol9489"
             x="91.925003"
             y="81.962997"
             id="use7951"
             style="fill:#ff0000;stroke:#ff0000"
             transform="translate(-22.183371,-7.4835468)"
             width="100%"
             height="100%" />
        </g>
      </g>
    </g>
    <g
       inkscape:label=""
       transform="translate(68.618927,101.01256)"
       id="g1500">
      <g
         id="g1772">
        <g
           style="fill:#000000;fill-opacity:1"
           id="g6772">
          <use
             xlink:href="#symbol2343"
             x="92.557999"
             y="81.962997"
             id="use944"
             width="100%"
             height="100%" />
        </g>
        <g
           style="fill:#000000;fill-opacity:1"
           id="g1282">
          <use
             xlink:href="#symbol5874"
             x="91.925003"
             y="81.962997"
             id="use6082"
             width="100%"
             height="100%" />
        </g>
        <g
           style="fill:#000000;fill-opacity:1"
           id="g5533">
          <use
             xlink:href="#symbol4406"
             x="97.619003"
             y="83.457001"
             id="use4112"
             width="100%"
             height="100%" />
        </g>
      </g>
    </g>
    <g
       inkscape:label=""
       transform="translate(103.0967,-10.706107)"
       id="g1600">
      <g
         id="g7454">
        <g
           style="fill:#000000;fill-opacity:1"
           id="g8348">
          <use
             xlink:href="#symbol69"
             x="92.557999"
             y="81.962997"
             id="use8035"
             width="100%"
             height="100%" />
        </g>
        <g
           style="fill:#000000;fill-opacity:1"
           id="g598">
          <use
             xlink:href="#symbol7279"
             x="91.925003"
             y="81.962997"
             id="use4037"
             width="100%"
             height="100%" />
        </g>
        <g
           style="fill:#000000;fill-opacity:1"
           id="g6348">
          <use
             xlink:href="#symbol8967"
             x="97.619003"
             y="83.457001"
             id="use9403"
             width="100%"
             height="100%" />
        </g>
      </g>
    </g>
    <g
       inkscape:label=""
       transform="translate(99.087653,18.159002)"
       id="g1733"
       style="fill:#ff0000">
      <g
         id="g8158"
         style="fill:#ff0000">
        <g
           style="fill:#ff0000;fill-opacity:1"
           id="g8231">
          <use
             xlink:href="#symbol850"
             x="92.068001"
             y="81.962997"
             id="use8929"
             style="fill:#ff0000"
             width="100%"
             height="100%" />
        </g>
        <g
           style="fill:#ff0000;fill-opacity:1"
           id="g2438">
          <use
             xlink:href="#symbol7937"
             x="91.925003"
             y="81.962997"
             id="use1709"
             style="fill:#ff0000"
             width="100%"
             height="100%" />
        </g>
        <g
           style="fill:#ff0000;fill-opacity:1"
           id="g1274">
          <use
             xlink:href="#symbol4432"
             x="97.191002"
             y="81.962997"
             id="use5731"
             style="fill:#ff0000"
             width="100%"
             height="100%" />
        </g>
        <g
           style="fill:#ff0000;fill-opacity:1"
           id="g1881">
          <use
             xlink:href="#symbol6655"
             x="101.066"
             y="81.962997"
             id="use5573"
             style="fill:#ff0000"
             width="100%"
             height="100%" />
        </g>
        <g
           style="fill:#ff0000;fill-opacity:1"
           id="g3083">
          <use
             xlink:href="#symbol1618"
             x="105.743"
             y="83.457001"
             id="use4132"
             style="fill:#ff0000"
             width="100%"
             height="100%" />
        </g>
        <g
           style="fill:#ff0000;fill-opacity:1"
           id="g695">
          <use
             xlink:href="#symbol9603"
             x="110.212"
             y="81.962997"
             id="use6503"
             style="fill:#ff0000"
             width="100%"
             height="100%" />
        </g>
      </g>
    </g>
    <g
       inkscape:label=""
       transform="translate(46.688581,88.197061)"
       id="g1911"
       style="fill:#ff0000">
      <g
         id="g5734"
         style="fill:#ff0000">
        <g
           style="fill:#ff0000;fill-opacity:1"
           id="g1364">
          <use
             xlink:href="#symbol4515"
             x="92.068001"
             y="81.962997"
             id="use5441"
             width="100%"
             height="100%"
             style="fill:#ff0000" />
        </g>
        <g
           style="fill:#ff0000;fill-opacity:1"
           id="g7144">
          <use
             xlink:href="#symbol3779"
             x="91.925003"
             y="81.962997"
             id="use6108"
             width="100%"
             height="100%"
             style="fill:#ff0000" />
        </g>
        <g
           style="fill:#ff0000;fill-opacity:1"
           id="g2192">
          <use
             xlink:href="#symbol3284"
             x="97.191002"
             y="81.962997"
             id="use8314"
             width="100%"
             height="100%"
             style="fill:#ff0000" />
        </g>
        <g
           style="fill:#ff0000;fill-opacity:1"
           id="g6946">
          <use
             xlink:href="#symbol8283"
             x="101.066"
             y="81.962997"
             id="use265"
             width="100%"
             height="100%"
             style="fill:#ff0000" />
        </g>
        <g
           style="fill:#ff0000;fill-opacity:1"
           id="g9097">
          <use
             xlink:href="#symbol6397"
             x="105.743"
             y="83.457001"
             id="use2368"
             width="100%"
             height="100%"
             style="fill:#ff0000" />
        </g>
        <g
           style="fill:#ff0000;fill-opacity:1"
           id="g3235">
          <use
             xlink:href="#symbol986"
             x="110.212"
             y="81.962997"
             id="use1434"
             width="100%"
             height="100%"
             style="fill:#ff0000" />
        </g>
      </g>
    </g>
    <path
       style="fill:none;stroke:#ff0000;stroke-width:1;stroke-linecap:butt;stroke-linejoin:miter;stroke-miterlimit:4;stroke-dasharray:none;stroke-opacity:1"
       d="m 155.88457,160 c 8.66026,1.66667 18.04697,1.14868 25.98076,5 13.74175,6.67067 19.36577,30 34.64102,30 15.27525,0 26.65921,-16.97602 34.64102,-30 6.28005,-10.24721 10.34351,-23.09995 8.66025,-35 -1.61722,-11.43319 -7.32051,-24.2265 -17.32051,-30 -5,-2.886752 -11.57307,-0.548019 -17.32051,0 -8.77935,0.83711 -17.64743,7.88675 -25.98076,5 M 147.22432,65 c -13.79536,-4.560614 -11.75332,2.051927 -25.98076,5 -9.792,2.029003 -21.82537,5.904249 -25.980766,15 -6.347472,13.893989 1.37206,31.57556 8.660256,45 5.73432,10.56229 15.31013,19.4699 25.98076,25"
       id="path1233"
       sodipodi:nodetypes="csssccsscsssc" />
    <path
       style="fill:none;stroke:#ff0000;stroke-width:0.26499999;stroke-linecap:butt;stroke-linejoin:miter;stroke-opacity:1;stroke-miterlimit:4;stroke-dasharray:1.58999992,1.58999992;marker-end:url(#marker1016);stroke-dashoffset:0"
       d="m 173.20508,130 75.72334,-24.76672"
       id="path1012" />
    <path
       style="fill:none;stroke:#ff0000;stroke-width:0.26458299;stroke-linecap:butt;stroke-linejoin:miter;stroke-opacity:1;marker-end:url(#marker1100);stroke-miterlimit:4;stroke-dasharray:1.58749792, 1.58749791999999990;stroke-dashoffset:0"
       d="m 173.20508,130 86.98356,5.77967"
       id="path1096" />
    <path
       style="fill:none;stroke:#ff0000;stroke-width:0.26458299;stroke-linecap:butt;stroke-linejoin:miter;stroke-opacity:1;stroke-miterlimit:4;stroke-dasharray:2.11666389, 2.11666388999999988;stroke-dashoffset:0;marker-end:url(#marker1196)"
       d="m 173.20508,130 72.80099,43.03295"
       id="path1192" />
    <path
       style="fill:none;stroke:#ff0000;stroke-width:0.26458299;stroke-linecap:butt;stroke-linejoin:miter;stroke-opacity:1;stroke-miterlimit:4;stroke-dasharray:1.58749792, 1.58749791999999990;stroke-dashoffset:0;marker-end:url(#marker1274)"
       d="m 173.20508,130 25.70893,52.90174"
       id="path1270" />
  </g>
</svg>
