<?xml version="1.0" encoding="UTF-8" standalone="no"?>
<svg
   xmlns:dc="http://purl.org/dc/elements/1.1/"
   xmlns:cc="http://creativecommons.org/ns#"
   xmlns:rdf="http://www.w3.org/1999/02/22-rdf-syntax-ns#"
   xmlns:svg="http://www.w3.org/2000/svg"
   xmlns="http://www.w3.org/2000/svg"
   xmlns:xlink="http://www.w3.org/1999/xlink"
   xmlns:sodipodi="http://sodipodi.sourceforge.net/DTD/sodipodi-0.dtd"
   xmlns:inkscape="http://www.inkscape.org/namespaces/inkscape"
   width="1920"
   height="1080"
   viewBox="0 0 507.99999 285.75001"
   version="1.1"
   id="svg2688"
   inkscape:version="1.0.1 (3bc2e813f5, 2020-09-07)"
   sodipodi:docname="lookangles.svg"
   inkscape:export-filename="D:\Users\grigo\Google Drive\Facultad\Balseiro\PI Lucas\git-repository\digital-beamforming\Tesis\images\02-Beamforming\lookangles.png"
   inkscape:export-xdpi="299"
   inkscape:export-ydpi="299">
  <defs
     id="defs2682">
    <marker
       style="overflow:visible"
       id="marker4855"
       refX="0.0"
       refY="0.0"
       orient="auto"
       inkscape:stockid="Arrow1Mstart"
       inkscape:isstock="true">
      <path
         transform="scale(0.4) translate(10,0)"
         style="fill-rule:evenodd;stroke:#000000;stroke-width:1pt;stroke-opacity:1;fill:#000000;fill-opacity:1"
         d="M 0.0,0.0 L 5.0,-5.0 L -12.5,0.0 L 5.0,5.0 L 0.0,0.0 z "
         id="path4853" />
    </marker>
    <marker
       style="overflow:visible"
       id="Arrow1Mstart"
       refX="0.0"
       refY="0.0"
       orient="auto"
       inkscape:stockid="Arrow1Mstart"
       inkscape:isstock="true"
       inkscape:collect="always">
      <path
         transform="scale(0.4) translate(10,0)"
         style="fill-rule:evenodd;stroke:#ff0000;stroke-width:1pt;stroke-opacity:1;fill:#ff0000;fill-opacity:1"
         d="M 0.0,0.0 L 5.0,-5.0 L -12.5,0.0 L 5.0,5.0 L 0.0,0.0 z "
         id="path1935" />
    </marker>
    <marker
       style="overflow:visible"
       id="marker4620"
       refX="0.0"
       refY="0.0"
       orient="auto"
       inkscape:stockid="Arrow1Lstart"
       inkscape:isstock="true">
      <path
         transform="scale(0.8) translate(12.5,0)"
         style="fill-rule:evenodd;stroke:#0000ff;stroke-width:1pt;stroke-opacity:1;fill:#0000ff;fill-opacity:1"
         d="M 0.0,0.0 L 5.0,-5.0 L -12.5,0.0 L 5.0,5.0 L 0.0,0.0 z "
         id="path4618" />
    </marker>
    <marker
       style="overflow:visible"
       id="Arrow1Lstart"
       refX="0.0"
       refY="0.0"
       orient="auto"
       inkscape:stockid="Arrow1Lstart"
       inkscape:isstock="true">
      <path
         transform="scale(0.8) translate(12.5,0)"
         style="fill-rule:evenodd;stroke:#000000;stroke-width:1pt;stroke-opacity:1;fill:#000000;fill-opacity:1"
         d="M 0.0,0.0 L 5.0,-5.0 L -12.5,0.0 L 5.0,5.0 L 0.0,0.0 z "
         id="path1929" />
    </marker>
    <marker
       style="overflow:visible"
       id="marker4512"
       refX="0.0"
       refY="0.0"
       orient="auto"
       inkscape:stockid="Arrow2Lstart"
       inkscape:isstock="true">
      <path
         transform="scale(1.1) translate(1,0)"
         d="M 8.7185878,4.0337352 L -2.2072895,0.016013256 L 8.7185884,-4.0017078 C 6.9730900,-1.6296469 6.9831476,1.6157441 8.7185878,4.0337352 z "
         style="fill-rule:evenodd;stroke-width:0.625;stroke-linejoin:round;stroke:#000000;stroke-opacity:1;fill:#000000;fill-opacity:1"
         id="path4510" />
    </marker>
    <marker
       style="overflow:visible;"
       id="Arrow1Mend"
       refX="0.0"
       refY="0.0"
       orient="auto"
       inkscape:stockid="Arrow1Mend"
       inkscape:isstock="true">
      <path
         transform="scale(0.4) rotate(180) translate(10,0)"
         style="fill-rule:evenodd;stroke:#000000;stroke-width:1pt;stroke-opacity:1;fill:#000000;fill-opacity:1"
         d="M 0.0,0.0 L 5.0,-5.0 L -12.5,0.0 L 5.0,5.0 L 0.0,0.0 z "
         id="path1938" />
    </marker>
    <marker
       style="overflow:visible;"
       id="Arrow2Mend"
       refX="0.0"
       refY="0.0"
       orient="auto"
       inkscape:stockid="Arrow2Mend"
       inkscape:isstock="true">
      <path
         transform="scale(0.6) rotate(180) translate(0,0)"
         d="M 8.7185878,4.0337352 L -2.2072895,0.016013256 L 8.7185884,-4.0017078 C 6.9730900,-1.6296469 6.9831476,1.6157441 8.7185878,4.0337352 z "
         style="fill-rule:evenodd;stroke-width:0.625;stroke-linejoin:round;stroke:#000000;stroke-opacity:1;fill:#000000;fill-opacity:1"
         id="path1956" />
    </marker>
    <marker
       style="overflow:visible"
       id="Arrow2Lstart"
       refX="0.0"
       refY="0.0"
       orient="auto"
       inkscape:stockid="Arrow2Lstart"
       inkscape:isstock="true">
      <path
         transform="scale(1.1) translate(1,0)"
         d="M 8.7185878,4.0337352 L -2.2072895,0.016013256 L 8.7185884,-4.0017078 C 6.9730900,-1.6296469 6.9831476,1.6157441 8.7185878,4.0337352 z "
         style="fill-rule:evenodd;stroke-width:0.625;stroke-linejoin:round;stroke:#000000;stroke-opacity:1;fill:#000000;fill-opacity:1"
         id="path1947" />
    </marker>
    <marker
       style="overflow:visible"
       id="marker4620-9"
       refX="0"
       refY="0"
       orient="auto"
       inkscape:stockid="Arrow1Lstart"
       inkscape:isstock="true">
      <path
         transform="matrix(0.8,0,0,0.8,10,0)"
         style="fill:#000000;fill-opacity:1;fill-rule:evenodd;stroke:#000000;stroke-width:1pt;stroke-opacity:1"
         d="M 0,0 5,-5 -12.5,0 5,5 Z"
         id="path4618-6" />
    </marker>
    <marker
       style="overflow:visible"
       id="marker4620-0"
       refX="0"
       refY="0"
       orient="auto"
       inkscape:stockid="Arrow1Lstart"
       inkscape:isstock="true">
      <path
         transform="matrix(0.8,0,0,0.8,10,0)"
         style="fill:#000000;fill-opacity:1;fill-rule:evenodd;stroke:#000000;stroke-width:1pt;stroke-opacity:1"
         d="M 0,0 5,-5 -12.5,0 5,5 Z"
         id="path4618-2" />
    </marker>
    <g
       id="g1651">
      <symbol
         overflow="visible"
         id="symbol1191">
        <path
           style="stroke:none;"
           d=""
           id="path1162" />
      </symbol>
      <symbol
         overflow="visible"
         id="symbol5667">
        <path
           style="stroke:none;"
           d="M 4.53125 -4.984375 C 4.53125 -5.640625 4.359375 -7.03125 3.34375 -7.03125 C 1.953125 -7.03125 0.421875 -4.21875 0.421875 -1.9375 C 0.421875 -1 0.703125 0.109375 1.609375 0.109375 C 3.015625 0.109375 4.53125 -2.75 4.53125 -4.984375 Z M 1.46875 -3.625 C 1.640625 -4.25 1.84375 -5.046875 2.25 -5.765625 C 2.515625 -6.25 2.875 -6.8125 3.328125 -6.8125 C 3.8125 -6.8125 3.875 -6.171875 3.875 -5.609375 C 3.875 -5.109375 3.796875 -4.609375 3.5625 -3.625 Z M 3.46875 -3.296875 C 3.359375 -2.84375 3.15625 -2 2.765625 -1.28125 C 2.421875 -0.59375 2.046875 -0.109375 1.609375 -0.109375 C 1.28125 -0.109375 1.078125 -0.40625 1.078125 -1.328125 C 1.078125 -1.75 1.140625 -2.328125 1.390625 -3.296875 Z M 3.46875 -3.296875 "
           id="path1559" />
      </symbol>
    </g>
    <g
       id="g4291">
      <symbol
         overflow="visible"
         id="symbol5822">
        <path
           style="stroke:none;"
           d=""
           id="path2968" />
      </symbol>
      <symbol
         overflow="visible"
         id="symbol2020">
        <path
           style="stroke:none;"
           d="M 4.359375 -6.671875 C 4.359375 -6.703125 4.390625 -6.8125 4.390625 -6.8125 C 4.390625 -6.828125 4.390625 -6.921875 4.265625 -6.921875 C 4.171875 -6.921875 4.15625 -6.890625 4.109375 -6.71875 L 3.53125 -4.421875 C 1.953125 -4.359375 0.484375 -3.046875 0.484375 -1.6875 C 0.484375 -0.734375 1.1875 0.046875 2.40625 0.125 C 2.328125 0.421875 2.25 0.75 2.171875 1.0625 C 2.046875 1.53125 1.953125 1.90625 1.953125 1.9375 C 1.953125 2.03125 2.03125 2.046875 2.078125 2.046875 C 2.125 2.046875 2.140625 2.03125 2.171875 2 C 2.1875 1.984375 2.25 1.75 2.28125 1.609375 L 2.65625 0.125 C 4.265625 0.0625 5.71875 -1.28125 5.71875 -2.609375 C 5.71875 -3.40625 5.1875 -4.3125 3.796875 -4.421875 Z M 2.453125 -0.09375 C 1.859375 -0.125 1.140625 -0.484375 1.140625 -1.46875 C 1.140625 -2.671875 2 -4.0625 3.484375 -4.203125 Z M 3.734375 -4.203125 C 4.5 -4.15625 5.0625 -3.703125 5.0625 -2.828125 C 5.0625 -1.640625 4.203125 -0.21875 2.71875 -0.09375 Z M 3.734375 -4.203125 "
           id="path7874" />
      </symbol>
    </g>
    <g
       id="g675">
      <symbol
         overflow="visible"
         id="symbol6756">
        <path
           style="stroke:none;"
           d=""
           id="path8554" />
      </symbol>
      <symbol
         overflow="visible"
         id="symbol2937">
        <path
           style="stroke:none;"
           d="M 1.6875 1.6875 C 1.65625 1.828125 1.640625 1.84375 1.640625 1.890625 C 1.640625 2.109375 1.828125 2.171875 1.9375 2.171875 C 1.984375 2.171875 2.203125 2.140625 2.296875 1.90625 C 2.328125 1.828125 2.375 1.5 2.65625 0.09375 C 2.734375 0.09375 2.8125 0.109375 2.984375 0.109375 C 4.640625 0.109375 6.171875 -1.453125 6.171875 -3.03125 C 6.171875 -3.8125 5.78125 -4.40625 5.03125 -4.40625 C 3.59375 -4.40625 2.984375 -2.46875 2.390625 -0.53125 C 1.3125 -0.734375 0.75 -1.28125 0.75 -2 C 0.75 -2.28125 0.984375 -3.375 1.578125 -4.0625 C 1.671875 -4.15625 1.671875 -4.171875 1.671875 -4.203125 C 1.671875 -4.234375 1.640625 -4.296875 1.546875 -4.296875 C 1.265625 -4.296875 0.5 -2.84375 0.5 -1.890625 C 0.5 -0.953125 1.15625 -0.234375 2.21875 0.015625 Z M 3.078125 -0.46875 C 2.984375 -0.46875 2.96875 -0.46875 2.890625 -0.484375 C 2.765625 -0.484375 2.765625 -0.484375 2.765625 -0.515625 C 2.765625 -0.53125 2.9375 -1.453125 2.953125 -1.59375 C 3.265625 -2.875 4.046875 -3.828125 4.9375 -3.828125 C 5.625 -3.828125 5.890625 -3.296875 5.890625 -2.8125 C 5.890625 -1.6875 4.609375 -0.46875 3.078125 -0.46875 Z M 3.078125 -0.46875 "
           id="path1046" />
      </symbol>
    </g>
  </defs>
  <sodipodi:namedview
     id="base"
     pagecolor="#ffffff"
     bordercolor="#666666"
     borderopacity="1.0"
     inkscape:pageopacity="0.0"
     inkscape:pageshadow="2"
     inkscape:zoom="0.98994949"
     inkscape:cx="841.55283"
     inkscape:cy="267.43586"
     inkscape:document-units="px"
     inkscape:current-layer="layer1"
     inkscape:document-rotation="0"
     showgrid="true"
     units="px"
     showborder="false"
     inkscape:window-width="1920"
     inkscape:window-height="1017"
     inkscape:window-x="-8"
     inkscape:window-y="-8"
     inkscape:window-maximized="1"
     inkscape:snap-global="true"
     inkscape:snap-grids="true"
     inkscape:object-paths="false"
     inkscape:snap-intersection-paths="false"
     inkscape:snap-smooth-nodes="true"
     inkscape:snap-midpoints="true"
     inkscape:snap-object-midpoints="true"
     inkscape:snap-center="true"
     inkscape:snap-text-baseline="true"
     inkscape:snap-bbox="true"
     inkscape:bbox-paths="false"
     inkscape:bbox-nodes="false"
     inkscape:snap-bbox-edge-midpoints="false"
     inkscape:snap-bbox-midpoints="false">
    <inkscape:grid
       type="xygrid"
       id="grid3251"
       spacingx="2.6458334"
       spacingy="2.6458334" />
  </sodipodi:namedview>
  <metadata
     id="metadata2685">
    <rdf:RDF>
      <cc:Work
         rdf:about="">
        <dc:format>image/svg+xml</dc:format>
        <dc:type
           rdf:resource="http://purl.org/dc/dcmitype/StillImage" />
        <dc:title />
      </cc:Work>
    </rdf:RDF>
  </metadata>
  <g
     inkscape:label="Layer 1"
     inkscape:groupmode="layer"
     id="layer1">
    <path
       id="path3253-7"
       style="fill:#999999;fill-rule:evenodd;stroke:#000000;stroke-width:0.529167;stroke-linecap:round;stroke-linejoin:round;stroke-miterlimit:4;stroke-dasharray:none;paint-order:markers stroke fill"
       d="m 277.80782,66.224923 a 52.916668,13.229167 0 0 1 -10e-4,0.02635 52.916668,13.229167 0 0 1 -0.006,0.09198 52.916668,13.229167 0 0 1 -0.009,0.09199 52.916668,13.229167 0 0 1 -0.0114,0.09198 52.916668,13.229167 0 0 1 -0.0139,0.09198 52.916668,13.229167 0 0 1 -0.0171,0.0925 52.916668,13.229167 0 0 1 -0.0191,0.09199 52.916668,13.229167 0 0 1 -0.0217,0.09198 52.916668,13.229167 0 0 1 -0.0243,0.09198 52.916668,13.229167 0 0 1 -0.0269,0.09147 52.916668,13.229167 0 0 1 -0.0295,0.09199 52.916668,13.229167 0 0 1 -0.032,0.09198 52.916668,13.229167 0 0 1 -0.0346,0.09147 52.916668,13.229167 0 0 1 -0.0372,0.09198 52.916668,13.229167 0 0 1 -0.0398,0.09147 52.916668,13.229167 0 0 1 -0.0424,0.09147 52.916668,13.229167 0 0 1 -0.0449,0.09147 52.916668,13.229167 0 0 1 -0.047,0.09147 52.916668,13.229167 0 0 1 -0.0501,0.09095 52.916668,13.229167 0 0 1 -0.0522,0.09147 52.916668,13.229167 0 0 1 -0.0553,0.09095 52.916668,13.229167 0 0 1 -0.0573,0.09095 52.916668,13.229167 0 0 1 -0.06,0.09095 52.916668,13.229167 0 0 1 -0.0625,0.09095 52.916668,13.229167 0 0 1 -0.0651,0.09043 52.916668,13.229167 0 0 1 -0.0677,0.09095 52.916668,13.229167 0 0 1 -0.0703,0.09043 52.916668,13.229167 0 0 1 -0.0729,0.09043 52.916668,13.229167 0 0 1 -0.0749,0.08992 52.916668,13.229167 0 0 1 -0.0775,0.08992 52.916668,13.229167 0 0 1 -0.0806,0.08992 52.916668,13.229167 0 0 1 -0.0827,0.08992 52.916668,13.229167 0 0 1 -0.0853,0.08992 52.916668,13.229167 0 0 1 -0.0873,0.0894 52.916668,13.229167 0 0 1 -0.0904,0.0894 52.916668,13.229167 0 0 1 -0.0925,0.08889 52.916668,13.229167 0 0 1 -0.0951,0.08888 52.916668,13.229167 0 0 1 -0.0977,0.08888 52.916668,13.229167 0 0 1 -0.10025,0.08888 52.916668,13.229167 0 0 1 -0.10285,0.08837 52.916668,13.229167 0 0 1 -0.1049,0.08837 52.916668,13.229167 0 0 1 -0.10748,0.08837 52.916668,13.229167 0 0 1 -0.11009,0.08785 52.916668,13.229167 0 0 1 -0.11213,0.08785 52.916668,13.229167 0 0 1 -0.11472,0.08733 52.916668,13.229167 0 0 1 -0.11729,0.08733 52.916668,13.229167 0 0 1 -0.11991,0.08733 52.916668,13.229167 0 0 1 -0.12195,0.08682 52.916668,13.229167 0 0 1 -0.12454,0.08682 52.916668,13.229167 0 0 1 -0.12713,0.0863 52.916668,13.229167 0 0 1 -0.1292,0.0863 52.916668,13.229167 0 0 1 -0.13176,0.0863 52.916668,13.229167 0 0 1 -0.13435,0.08578 52.916668,13.229167 0 0 1 -0.13642,0.08527 52.916668,13.229167 0 0 1 -0.13902,0.08527 52.916668,13.229167 0 0 1 -0.1416,0.08526 52.916668,13.229167 0 0 1 -0.14367,0.08475 52.916668,13.229167 0 0 1 -0.14571,0.08475 52.916668,13.229167 0 0 1 -0.14832,0.08423 52.916668,13.229167 0 0 1 -0.15089,0.08423 52.916668,13.229167 0 0 1 -0.15296,0.08371 52.916668,13.229167 0 0 1 -0.15555,0.08372 52.916668,13.229167 0 0 1 -0.15761,0.0832 52.916668,13.229167 0 0 1 -0.1602,0.08268 52.916668,13.229167 0 0 1 -0.16227,0.0832 52.916668,13.229167 0 0 1 -0.16484,0.08217 52.916668,13.229167 0 0 1 -0.16692,0.08217 52.916668,13.229167 0 0 1 -0.16897,0.08165 52.916668,13.229167 0 0 1 -0.17158,0.08165 52.916668,13.229167 0 0 1 -0.17415,0.08113 52.916668,13.229167 0 0 1 -0.17568,0.08113 52.916668,13.229167 0 0 1 -0.1783,0.08061 52.916668,13.229167 0 0 1 -0.18087,0.08062 52.916668,13.229167 0 0 1 -0.18241,0.07958 52.916668,13.229167 0 0 1 -0.18499,0.0801 52.916668,13.229167 0 0 1 -0.18709,0.07906 52.916668,13.229167 0 0 1 -0.18965,0.07906 52.916668,13.229167 0 0 1 -0.19172,0.07855 52.916668,13.229167 0 0 1 -0.19378,0.07855 52.916668,13.229167 0 0 1 -0.19585,0.07803 52.916668,13.229167 0 0 1 -0.19793,0.07751 52.916668,13.229167 0 0 1 -0.2005,0.07752 52.916668,13.229167 0 0 1 -0.20257,0.077 52.916668,13.229167 0 0 1 -0.20465,0.07648 52.916668,13.229167 0 0 1 -0.2067,0.07648 52.916668,13.229167 0 0 1 -0.20878,0.07597 52.916668,13.229167 0 0 1 -0.21082,0.07545 52.916668,13.229167 0 0 1 -0.21291,0.07545 52.916668,13.229167 0 0 1 -0.2155,0.07441 52.916668,13.229167 0 0 1 -0.21704,0.07442 52.916668,13.229167 0 0 1 -0.2191,0.07441 52.916668,13.229167 0 0 1 -0.2217,0.07338 52.916668,13.229167 0 0 1 -0.22325,0.07338 52.916668,13.229167 0 0 1 -0.22529,0.07286 52.916668,13.229167 0 0 1 -0.22739,0.07235 52.916668,13.229167 0 0 1 -0.22944,0.07235 52.916668,13.229167 0 0 1 -0.23151,0.07183 52.916668,13.229167 0 0 1 -0.23358,0.07131 52.916668,13.229167 0 0 1 -0.23564,0.0708 52.916668,13.229167 0 0 1 -0.23719,0.07028 52.916668,13.229167 0 0 1 -0.23927,0.07028 52.916668,13.229167 0 0 1 -0.24132,0.06925 52.916668,13.229167 0 0 1 -0.24339,0.06925 52.916668,13.229167 0 0 1 -0.24548,0.06925 52.916668,13.229167 0 0 1 -0.24702,0.06821 52.916668,13.229167 0 0 1 -0.24855,0.0677 52.916668,13.229167 0 0 1 -0.25114,0.0677 52.916668,13.229167 0 0 1 -0.25271,0.06718 52.916668,13.229167 0 0 1 -0.25476,0.06666 52.916668,13.229167 0 0 1 -0.25633,0.06614 52.916668,13.229167 0 0 1 -0.25837,0.06563 52.916668,13.229167 0 0 1 -0.25992,0.06511 52.916668,13.229167 0 0 1 -0.26202,0.06511 52.916668,13.229167 0 0 1 -0.26355,0.06408 52.916668,13.229167 0 0 1 -0.26562,0.06408 52.916668,13.229167 0 0 1 -0.26715,0.06356 52.916668,13.229167 0 0 1 -0.26924,0.06253 52.916668,13.229167 0 0 1 -0.2708,0.06253 52.916668,13.229167 0 0 1 -0.27233,0.06201 52.916668,13.229167 0 0 1 -0.2744,0.0615 52.916668,13.229167 0 0 1 -0.27594,0.0615 52.916668,13.229167 0 0 1 -0.27752,0.06046 52.916668,13.229167 0 0 1 -0.27956,0.05995 52.916668,13.229167 0 0 1 -0.28112,0.05994 52.916668,13.229167 0 0 1 -0.28268,0.05891 52.916668,13.229167 0 0 1 -0.28421,0.0584 52.916668,13.229167 0 0 1 -0.28578,0.05839 52.916668,13.229167 0 0 1 -0.28781,0.05736 52.916668,13.229167 0 0 1 -0.28888,0.05736 52.916668,13.229167 0 0 1 -0.29096,0.05685 52.916668,13.229167 0 0 1 -0.29197,0.05581 52.916668,13.229167 0 0 1 -0.29403,0.05581 52.916668,13.229167 0 0 1 -0.29559,0.05478 52.916668,13.229167 0 0 1 -0.29662,0.05478 52.916668,13.229167 0 0 1 -0.29869,0.05426 52.916668,13.229167 0 0 1 -0.29972,0.05323 52.916668,13.229167 0 0 1 -0.30128,0.05323 52.916668,13.229167 0 0 1 -0.30282,0.05219 52.916668,13.229167 0 0 1 -0.30437,0.05219 52.916668,13.229167 0 0 1 -0.30592,0.05168 52.916668,13.229167 0 0 1 -0.30749,0.05064 52.916668,13.229167 0 0 1 -0.30851,0.05064 52.916668,13.229167 0 0 1 -0.31004,0.04961 52.916668,13.229167 0 0 1 -0.31109,0.04909 52.916668,13.229167 0 0 1 -0.31266,0.04909 52.916668,13.229167 0 0 1 -0.3142,0.04806 52.916668,13.229167 0 0 1 -0.31572,0.04754 52.916668,13.229167 0 0 1 -0.31679,0.04702 52.916668,13.229167 0 0 1 -0.31782,0.04651 52.916668,13.229167 0 0 1 -0.31935,0.04599 52.916668,13.229167 0 0 1 -0.32091,0.04547 52.916668,13.229167 0 0 1 -0.32142,0.04496 52.916668,13.229167 0 0 1 -0.3235,0.04444 52.916668,13.229167 0 0 1 -0.32401,0.04341 52.916668,13.229167 0 0 1 -0.32557,0.04341 52.916668,13.229167 0 0 1 -0.32711,0.04238 52.916668,13.229167 0 0 1 -0.32763,0.04237 52.916668,13.229167 0 0 1 -0.32917,0.04134 52.916668,13.229167 0 0 1 -0.33022,0.04082 52.916668,13.229167 0 0 1 -0.33177,0.04031 52.916668,13.229167 0 0 1 -0.33226,0.03979 52.916668,13.229167 0 0 1 -0.33382,0.03927 52.916668,13.229167 0 0 1 -0.33436,0.03876 52.916668,13.229167 0 0 1 -0.33589,0.03772 52.916668,13.229167 0 0 1 -0.33694,0.03772 52.916668,13.229167 0 0 1 -0.33745,0.03669 52.916668,13.229167 0 0 1 -0.33899,0.03617 52.916668,13.229167 0 0 1 -0.34004,0.03566 52.916668,13.229167 0 0 1 -0.34054,0.03514 52.916668,13.229167 0 0 1 -0.34211,0.03411 52.916668,13.229167 0 0 1 -0.34261,0.0341 52.916668,13.229167 0 0 1 -0.34364,0.03307 52.916668,13.229167 0 0 1 -0.34467,0.03307 52.916668,13.229167 0 0 1 -0.34573,0.03204 52.916668,13.229167 0 0 1 -0.34624,0.031 52.916668,13.229167 0 0 1 -0.34726,0.03101 52.916668,13.229167 0 0 1 -0.34777,0.03049 52.916668,13.229167 0 0 1 -0.34933,0.02945 52.916668,13.229167 0 0 1 -0.34986,0.02894 52.916668,13.229167 0 0 1 -0.35036,0.02842 52.916668,13.229167 0 0 1 -0.35139,0.02791 52.916668,13.229167 0 0 1 -0.35193,0.02739 52.916668,13.229167 0 0 1 -0.35295,0.02635 52.916668,13.229167 0 0 1 -0.35346,0.02584 52.916668,13.229167 0 0 1 -0.35451,0.02584 52.916668,13.229167 0 0 1 -0.35502,0.02429 52.916668,13.229167 0 0 1 -0.35552,0.02429 52.916668,13.229167 0 0 1 -0.35658,0.02377 52.916668,13.229167 0 0 1 -0.35708,0.02274 52.916668,13.229167 0 0 1 -0.35761,0.02222 52.916668,13.229167 0 0 1 -0.35812,0.0217 52.916668,13.229167 0 0 1 -0.35864,0.02119 52.916668,13.229167 0 0 1 -0.35965,0.02015 52.916668,13.229167 0 0 1 -0.35967,0.01964 52.916668,13.229167 0 0 1 -0.36071,0.01912 52.916668,13.229167 0 0 1 -0.36121,0.0186 52.916668,13.229167 0 0 1 -0.36123,0.01809 52.916668,13.229167 0 0 1 -0.36224,0.01705 52.916668,13.229167 0 0 1 -0.36225,0.01654 52.916668,13.229167 0 0 1 -0.3633,0.01602 52.916668,13.229167 0 0 1 -0.36327,0.01551 52.916668,13.229167 0 0 1 -0.3638,0.01447 52.916668,13.229167 0 0 1 -0.36433,0.01447 52.916668,13.229167 0 0 1 -0.36431,0.01344 52.916668,13.229167 0 0 1 -0.36536,0.0124 52.916668,13.229167 0 0 1 -0.36536,0.0124 52.916668,13.229167 0 0 1 -0.36534,0.01137 52.916668,13.229167 0 0 1 -0.36587,0.01085 52.916668,13.229167 0 0 1 -0.36639,0.01033 52.916668,13.229167 0 0 1 -0.3664,0.0098 52.916668,13.229167 0 0 1 -0.36689,0.0088 52.916668,13.229167 0 0 1 -0.3669,0.0083 52.916668,13.229167 0 0 1 -0.36743,0.0078 52.916668,13.229167 0 0 1 -0.3674,0.0072 52.916668,13.229167 0 0 1 -0.36795,0.0067 52.916668,13.229167 0 0 1 -0.3674,0.0057 52.916668,13.229167 0 0 1 -0.36796,0.0052 52.916668,13.229167 0 0 1 -0.36843,0.0041 52.916668,13.229167 0 0 1 -0.36796,0.0041 52.916668,13.229167 0 0 1 -0.36843,0.0031 52.916668,13.229167 0 0 1 -0.36846,0.0026 52.916668,13.229167 0 0 1 -0.36846,0.0021 52.916668,13.229167 0 0 1 -0.36846,0.0016 52.916668,13.229167 0 0 1 -0.36846,5.16e-4 52.916668,13.229167 0 0 1 -0.1979,0 52.916668,13.229167 0 0 1 -0.36846,-5.16e-4 52.916668,13.229167 0 0 1 -0.36846,-5.18e-4 52.916668,13.229167 0 0 1 -0.36843,-0.0021 52.916668,13.229167 0 0 1 -0.36846,-0.0021 52.916668,13.229167 0 0 1 -0.36846,-0.0031 52.916668,13.229167 0 0 1 -0.36846,-0.0031 52.916668,13.229167 0 0 1 -0.36793,-0.0041 52.916668,13.229167 0 0 1 -0.36793,-0.0052 52.916668,13.229167 0 0 1 -0.36793,-0.0052 52.916668,13.229167 0 0 1 -0.36796,-0.0062 52.916668,13.229167 0 0 1 -0.3674,-0.0067 52.916668,13.229167 0 0 1 -0.36742,-0.0072 52.916668,13.229167 0 0 1 -0.36743,-0.0083 52.916668,13.229167 0 0 1 -0.3669,-0.0088 52.916668,13.229167 0 0 1 -0.36639,-0.0093 52.916668,13.229167 0 0 1 -0.36637,-0.0098 52.916668,13.229167 0 0 1 -0.3664,-0.01034 52.916668,13.229167 0 0 1 -0.36586,-0.01137 52.916668,13.229167 0 0 1 -0.36536,-0.01188 52.916668,13.229167 0 0 1 -0.36534,-0.0124 52.916668,13.229167 0 0 1 -0.36484,-0.01292 52.916668,13.229167 0 0 1 -0.36433,-0.01396 52.916668,13.229167 0 0 1 -0.3638,-0.01447 52.916668,13.229167 0 0 1 -0.3638,-0.01499 52.916668,13.229167 0 0 1 -0.36327,-0.0155 52.916668,13.229167 0 0 1 -0.36277,-0.01654 52.916668,13.229167 0 0 1 -0.36227,-0.01654 52.916668,13.229167 0 0 1 -0.36174,-0.01757 52.916668,13.229167 0 0 1 -0.36121,-0.01808 52.916668,13.229167 0 0 1 -0.36071,-0.01912 52.916668,13.229167 0 0 1 -0.36017,-0.01912 52.916668,13.229167 0 0 1 -0.35968,-0.02015 52.916668,13.229167 0 0 1 -0.35914,-0.02067 52.916668,13.229167 0 0 1 -0.35865,-0.02119 52.916668,13.229167 0 0 1 -0.35811,-0.02222 52.916668,13.229167 0 0 1 -0.35708,-0.02222 52.916668,13.229167 0 0 1 -0.35708,-0.02325 52.916668,13.229167 0 0 1 -0.35605,-0.02377 52.916668,13.229167 0 0 1 -0.35502,-0.0248 52.916668,13.229167 0 0 1 -0.35502,-0.02481 52.916668,13.229167 0 0 1 -0.35398,-0.02584 52.916668,13.229167 0 0 1 -0.35296,-0.02584 52.916668,13.229167 0 0 1 -0.35295,-0.02687 52.916668,13.229167 0 0 1 -0.3514,-0.02791 52.916668,13.229167 0 0 1 -0.35089,-0.02791 52.916668,13.229167 0 0 1 -0.35036,-0.02894 52.916668,13.229167 0 0 1 -0.34933,-0.02894 52.916668,13.229167 0 0 1 -0.3488,-0.02997 52.916668,13.229167 0 0 1 -0.34779,-0.03049 52.916668,13.229167 0 0 1 -0.34674,-0.03152 52.916668,13.229167 0 0 1 -0.34573,-0.03152 52.916668,13.229167 0 0 1 -0.3452,-0.03256 52.916668,13.229167 0 0 1 -0.34417,-0.03256 52.916668,13.229167 0 0 1 -0.34364,-0.03359 52.916668,13.229167 0 0 1 -0.34211,-0.03411 52.916668,13.229167 0 0 1 -0.34105,-0.03514 52.916668,13.229167 0 0 1 -0.34054,-0.03514 52.916668,13.229167 0 0 1 -0.33951,-0.03566 52.916668,13.229167 0 0 1 -0.33849,-0.03669 52.916668,13.229167 0 0 1 -0.33745,-0.03721 52.916668,13.229167 0 0 1 -0.33588,-0.03772 52.916668,13.229167 0 0 1 -0.33539,-0.03824 52.916668,13.229167 0 0 1 -0.33435,-0.03876 52.916668,13.229167 0 0 1 -0.3328,-0.03927 52.916668,13.229167 0 0 1 -0.33229,-0.04031 52.916668,13.229167 0 0 1 -0.33073,-0.04031 52.916668,13.229167 0 0 1 -0.32969,-0.04134 52.916668,13.229167 0 0 1 -0.32867,-0.04186 52.916668,13.229167 0 0 1 -0.3271,-0.04237 52.916668,13.229167 0 0 1 -0.32661,-0.04289 52.916668,13.229167 0 0 1 -0.32504,-0.04341 52.916668,13.229167 0 0 1 -0.32348,-0.04393 52.916668,13.229167 0 0 1 -0.32247,-0.04444 52.916668,13.229167 0 0 1 -0.32142,-0.04496 52.916668,13.229167 0 0 1 -0.31988,-0.04599 52.916668,13.229167 0 0 1 -0.31885,-0.04599 52.916668,13.229167 0 0 1 -0.31781,-0.04702 52.916668,13.229167 0 0 1 -0.31573,-0.04754 52.916668,13.229167 0 0 1 -0.31523,-0.04754 52.916668,13.229167 0 0 1 -0.31316,-0.04857 52.916668,13.229167 0 0 1 -0.31213,-0.04909 52.916668,13.229167 0 0 1 -0.31109,-0.04961 52.916668,13.229167 0 0 1 -0.30901,-0.05013 52.916668,13.229167 0 0 1 -0.308,-0.05013 52.916668,13.229167 0 0 1 -0.30644,-0.05116 52.916668,13.229167 0 0 1 -0.30541,-0.05168 52.916668,13.229167 0 0 1 -0.30334,-0.0522 52.916668,13.229167 0 0 1 -0.30232,-0.05323 52.916668,13.229167 0 0 1 -0.30075,-0.05323 52.916668,13.229167 0 0 1 -0.29922,-0.05375 52.916668,13.229167 0 0 1 -0.29765,-0.05426 52.916668,13.229167 0 0 1 -0.2966,-0.05478 52.916668,13.229167 0 0 1 -0.29456,-0.05529 52.916668,13.229167 0 0 1 -0.293,-0.05581 52.916668,13.229167 0 0 1 -0.29147,-0.05633 52.916668,13.229167 0 0 1 -0.2899,-0.05684 52.916668,13.229167 0 0 1 -0.28887,-0.05736 52.916668,13.229167 0 0 1 -0.28628,-0.05788 52.916668,13.229167 0 0 1 -0.28528,-0.0584 52.916668,13.229167 0 0 1 -0.28368,-0.05891 52.916668,13.229167 0 0 1 -0.28215,-0.05943 52.916668,13.229167 0 0 1 -0.28009,-0.05994 52.916668,13.229167 0 0 1 -0.27855,-0.05995 52.916668,13.229167 0 0 1 -0.27697,-0.06098 52.916668,13.229167 0 0 1 -0.27493,-0.0615 52.916668,13.229167 0 0 1 -0.27337,-0.06149 52.916668,13.229167 0 0 1 -0.27183,-0.06253 52.916668,13.229167 0 0 1 -0.27024,-0.06253 52.916668,13.229167 0 0 1 -0.26821,-0.06305 52.916668,13.229167 0 0 1 -0.26615,-0.06356 52.916668,13.229167 0 0 1 -0.26458,-0.0646 52.916668,13.229167 0 0 1 -0.26302,-0.06408 52.916668,13.229167 0 0 1 -0.26096,-0.06511 52.916668,13.229167 0 0 1 -0.25943,-0.06563 52.916668,13.229167 0 0 1 -0.25736,-0.06615 52.916668,13.229167 0 0 1 -0.25579,-0.06615 52.916668,13.229167 0 0 1 -0.25371,-0.06666 52.916668,13.229167 0 0 1 -0.25168,-0.0677 52.916668,13.229167 0 0 1 -0.25011,-0.0677 52.916668,13.229167 0 0 1 -0.24804,-0.0677 52.916668,13.229167 0 0 1 -0.24651,-0.06873 52.916668,13.229167 0 0 1 -0.2439,-0.06924 52.916668,13.229167 0 0 1 -0.24238,-0.06925 52.916668,13.229167 0 0 1 -0.2408,-0.06976 52.916668,13.229167 0 0 1 -0.23823,-0.07028 52.916668,13.229167 0 0 1 -0.23667,-0.0708 52.916668,13.229167 0 0 1 -0.23463,-0.0708 52.916668,13.229167 0 0 1 -0.23255,-0.07183 52.916668,13.229167 0 0 1 -0.23047,-0.07183 52.916668,13.229167 0 0 1 -0.22839,-0.07234 52.916668,13.229167 0 0 1 -0.22635,-0.07235 52.916668,13.229167 0 0 1 -0.22479,-0.07338 52.916668,13.229167 0 0 1 -0.22223,-0.07338 52.916668,13.229167 0 0 1 -0.22063,-0.0739 52.916668,13.229167 0 0 1 -0.2181,-0.0739 52.916668,13.229167 0 0 1 -0.21651,-0.07493 52.916668,13.229167 0 0 1 -0.21394,-0.07493 52.916668,13.229167 0 0 1 -0.21188,-0.07545 52.916668,13.229167 0 0 1 -0.21032,-0.07545 52.916668,13.229167 0 0 1 -0.20775,-0.07596 52.916668,13.229167 0 0 1 -0.20566,-0.07648 52.916668,13.229167 0 0 1 -0.20362,-0.077 52.916668,13.229167 0 0 1 -0.20153,-0.077 52.916668,13.229167 0 0 1 -0.19947,-0.07751 52.916668,13.229167 0 0 1 -0.19688,-0.07803 52.916668,13.229167 0 0 1 -0.19481,-0.07803 52.916668,13.229167 0 0 1 -0.19278,-0.07855 52.916668,13.229167 0 0 1 -0.19068,-0.07907 52.916668,13.229167 0 0 1 -0.18862,-0.07906 52.916668,13.229167 0 0 1 -0.18603,-0.07958 52.916668,13.229167 0 0 1 -0.18397,-0.07958 52.916668,13.229167 0 0 1 -0.1819,-0.0801 52.916668,13.229167 0 0 1 -0.17931,-0.08062 52.916668,13.229167 0 0 1 -0.17724,-0.08062 52.916668,13.229167 0 0 1 -0.17521,-0.08113 52.916668,13.229167 0 0 1 -0.17259,-0.08165 52.916668,13.229167 0 0 1 -0.17052,-0.08165 52.916668,13.229167 0 0 1 -0.16796,-0.08216 52.916668,13.229167 0 0 1 -0.16586,-0.08217 52.916668,13.229167 0 0 1 -0.16383,-0.08268 52.916668,13.229167 0 0 1 -0.16124,-0.08268 52.916668,13.229167 0 0 1 -0.15915,-0.0832 52.916668,13.229167 0 0 1 -0.15658,-0.0832 52.916668,13.229167 0 0 1 -0.15401,-0.08371 52.916668,13.229167 0 0 1 -0.15243,-0.08372 52.916668,13.229167 0 0 1 -0.14936,-0.08423 52.916668,13.229167 0 0 1 -0.14726,-0.08475 52.916668,13.229167 0 0 1 -0.14521,-0.08475 52.916668,13.229167 0 0 1 -0.14263,-0.08475 52.916668,13.229167 0 0 1 -0.14005,-0.08527 52.916668,13.229167 0 0 1 -0.13798,-0.08527 52.916668,13.229167 0 0 1 -0.13539,-0.08578 52.916668,13.229167 0 0 1 -0.13282,-0.0863 52.916668,13.229167 0 0 1 -0.13073,-0.08578 52.916668,13.229167 0 0 1 -0.12816,-0.0863 52.916668,13.229167 0 0 1 -0.12607,-0.08681 52.916668,13.229167 0 0 1 -0.12351,-0.08682 52.916668,13.229167 0 0 1 -0.12094,-0.08682 52.916668,13.229167 0 0 1 -0.11833,-0.08733 52.916668,13.229167 0 0 1 -0.11628,-0.08733 52.916668,13.229167 0 0 1 -0.11369,-0.08785 52.916668,13.229167 0 0 1 -0.1111,-0.08785 52.916668,13.229167 0 0 1 -0.10903,-0.08785 52.916668,13.229167 0 0 1 -0.10647,-0.08837 52.916668,13.229167 0 0 1 -0.10385,-0.08837 52.916668,13.229167 0 0 1 -0.10128,-0.08888 52.916668,13.229167 0 0 1 -0.0992,-0.08836 52.916668,13.229167 0 0 1 -0.0967,-0.08889 52.916668,13.229167 0 0 1 -0.0935,-0.0894 52.916668,13.229167 0 0 1 -0.092,-0.08888 52.916668,13.229167 0 0 1 -0.0889,-0.0894 52.916668,13.229167 0 0 1 -0.0863,-0.08992 52.916668,13.229167 0 0 1 -0.0842,-0.0894 52.916668,13.229167 0 0 1 -0.0816,-0.08992 52.916668,13.229167 0 0 1 -0.0791,-0.08992 52.916668,13.229167 0 0 1 -0.0765,-0.09043 52.916668,13.229167 0 0 1 -0.0739,-0.08992 52.916668,13.229167 0 0 1 -0.0718,-0.09043 52.916668,13.229167 0 0 1 -0.0687,-0.09095 52.916668,13.229167 0 0 1 -0.0667,-0.09043 52.916668,13.229167 0 0 1 -0.0635,-0.09043 52.916668,13.229167 0 0 1 -0.0615,-0.09095 52.916668,13.229167 0 0 1 -0.0589,-0.09095 52.916668,13.229167 0 0 1 -0.0563,-0.09095 52.916668,13.229167 0 0 1 -0.0537,-0.09147 52.916668,13.229167 0 0 1 -0.0512,-0.09095 52.916668,13.229167 0 0 1 -0.0491,-0.09147 52.916668,13.229167 0 0 1 -0.046,-0.09147 52.916668,13.229167 0 0 1 -0.0439,-0.09147 52.916668,13.229167 0 0 1 -0.0408,-0.09147 52.916668,13.229167 0 0 1 -0.0388,-0.09199 52.916668,13.229167 0 0 1 -0.0356,-0.09147 52.916668,13.229167 0 0 1 -0.0336,-0.09198 52.916668,13.229167 0 0 1 -0.031,-0.09147 52.916668,13.229167 0 0 1 -0.0279,-0.09198 52.916668,13.229167 0 0 1 -0.0258,-0.09198 52.916668,13.229167 0 0 1 -0.0233,-0.09199 52.916668,13.229167 0 0 1 -0.0207,-0.09198 52.916668,13.229167 0 0 1 -0.0181,-0.09198 52.916668,13.229167 0 0 1 -0.0155,-0.09198 52.916668,13.229167 0 0 1 -0.0129,-0.09198 52.916668,13.229167 0 0 1 -0.0104,-0.09198 52.916668,13.229167 0 0 1 -0.008,-0.0925 52.916668,13.229167 0 0 1 -0.004,-0.07648 c 0.0852,29.152392 23.74016,52.759575 52.91254,52.759575 29.17203,0 52.82676,-23.606613 52.91254,-52.758541 z" />
    <path
       style="fill:#e6e6e6;stroke:none;stroke-width:0.264583px;stroke-linecap:butt;stroke-linejoin:miter;stroke-opacity:1"
       d="m 250.71131,54.597704 c 0.42164,3.769921 0.64286,7.639725 0.64286,11.548132 0,3.851836 -0.21039,7.692072 -0.59944,11.464933 l -25.85889,-11.464933 8.69921,-13.048817 a 52.916668,13.229167 0 0 0 -8.69921,-0.18035 52.916668,13.229167 0 0 0 -52.91667,13.229167 52.916668,13.229167 0 0 0 52.91667,13.229167 52.916668,13.229167 0 0 0 52.91667,-13.229167 52.916668,13.229167 0 0 0 -27.1012,-11.548132 z"
       id="path5358" />
    <path
       id="path5923"
       style="fill:#ffffff;stroke:#000000;stroke-width:0.264583px;stroke-linecap:butt;stroke-linejoin:miter;stroke-opacity:1"
       d="m 277.80994,66.128266 h -26.45627 c 0,0.0059 5e-4,0.01169 5e-4,0.01757 0,3.851836 -0.2104,7.69207 -0.59944,11.464933 l 0.0553,0.07183 c 16.1163,-2.267402 27.00247,-6.584175 27.00247,-11.536762 0,-0.0059 -0.003,-0.01168 -0.003,-0.01757 z" />
    <circle
       style="fill:#000000;fill-rule:evenodd;stroke:none;stroke-width:0.499999;stroke-linecap:round;stroke-linejoin:round;stroke-miterlimit:4;stroke-dasharray:none;paint-order:markers stroke fill"
       id="path3259"
       cx="224.89584"
       cy="66.145836"
       r="2.6458335" />
    <path
       style="fill:none;stroke:#000000;stroke-width:0.18520833;stroke-linecap:butt;stroke-linejoin:miter;stroke-opacity:1;stroke-miterlimit:4;stroke-dasharray:1.11125001,1.11125001;stroke-dashoffset:0"
       d="M 224.89584,66.145835 V 13.229167"
       id="path3261" />
    <g
       style="display:inline"
       id="g2831"
       transform="matrix(0.02767329,-0.0024074,0.0024074,0.02767329,245.03939,22.691492)">
      <path
         id="path2778"
         d="m 353.5,306.76 -44.778,45.502" />
      <path
         id="path2780"
         d="m 309.72,262.98 -46.966,46.24" />
      <path
         id="path2782"
         d="M 267.12,218.02 397.27,348.17 349.93,395.51 219.78,265.36 Z" />
      <path
         id="path2784"
         d="m 244.64,231.03 -14.2,14.2" />
      <path
         id="path2786"
         d="m 178.37,164.77 -14.2,14.2" />
      <g
         id="g2794"
         stroke-width="16"
         stroke="#000000"
         fill="none">
        <path
           id="path2788"
           d="m 12.721,285.46 c 9.814,66.54 50.27,100.88 112.41,112.41" />
        <path
           id="path2790"
           d="m 60.05,285.46 c 5.472,38.03 25,59.948 65.08,65.08" />
        <path
           id="path2792"
           d="m 95.55,285.46 c 5.632,20.687 16.601,27.37 29.581,29.581" />
      </g>
      <path
         id="path2796"
         d="m 145.24,240.49 -17.749,41.41 41.41,-17.749" />
      <path
         id="path2798"
         d="m 197.7,290.05 c -8.169,8.169 -32.01,-2.426 -53.25,-23.666 -21.241,-21.241 -31.834,-45.08 -23.666,-53.25 8.169,-8.169 32.01,2.426 53.25,23.666 21.241,21.241 31.834,45.08 23.666,53.25 z" />
      <path
         id="path2800"
         d="m 209.14,143.46 10.738,10.56 5.829,-5.829 35.498,35.498 -5.917,5.917 11.832,11.832 -63.07,62.21 -58.13,-58.13 z" />
      <path
         id="path2802"
         d="m 147.61,100.86 -45.87,45.87" />
      <path
         id="path2804"
         d="M 103.83,57.08 58.058,102.582" />
      <path
         id="path2806"
         d="M 61.23,12.12 191.38,142.27 144.04,189.61 13.89,59.46 Z" />
    </g>
    <path
       id="path4739"
       style="fill:none;fill-rule:evenodd;stroke:#000000;stroke-width:0.999999;stroke-linecap:round;stroke-linejoin:round;stroke-miterlimit:4;stroke-dasharray:none;stroke-dashoffset:0;paint-order:markers stroke fill"
       d="M 850.00003 50.000006 A 100 200 0 0 1 850.00003 50.000006 A 100 200 0 0 1 930.00059 130.00142 "
       transform="scale(0.26458334)" />
    <path
       id="path4977"
       style="fill:none;fill-rule:evenodd;stroke:#000000;stroke-width:0.999999;stroke-linecap:round;stroke-linejoin:round;stroke-miterlimit:4;stroke-dasharray:none;stroke-dashoffset:0;paint-order:markers stroke fill"
       d="M 947.6299 293.28581 A 100 200 0 0 1 947.62968 293.28773 "
       transform="scale(0.26458334)" />
    <path
       id="path4414-3"
       style="fill:none;fill-rule:evenodd;stroke:#ff0000;stroke-width:0.529167;stroke-linecap:round;stroke-linejoin:round;stroke-miterlimit:4;stroke-dasharray:none;stroke-dashoffset:0;marker-start:url(#Arrow1Mstart);paint-order:markers stroke fill"
       d="m 250.78263,77.623175 a 52.816857,13.204215 0 0 0 27.02988,-11.212756 v 0 0" />
    <path
       style="fill:none;stroke:#0000ff;stroke-width:0.264583px;stroke-linecap:butt;stroke-linejoin:miter;stroke-opacity:1;marker-start:url(#marker4620)"
       d="m 246.06258,34.396022 c 3.43487,9.159794 5.2916,20.300385 5.2916,31.749816 v 0 c 0,3.851835 -0.21028,7.692157 -0.59933,11.465019"
       id="path4734"
       sodipodi:nodetypes="cssc" />
    <path
       id="path4440-0"
       style="fill:none;fill-rule:evenodd;stroke:none;stroke-width:0.529167;stroke-linecap:round;stroke-linejoin:round;stroke-miterlimit:4;stroke-dasharray:none;stroke-dashoffset:0;paint-order:markers stroke fill"
       d="m 250.69973,54.596122 a 52.916668,13.229167 0 0 1 27.11278,11.549714 v 0 a 52.916668,13.229167 0 0 1 -52.91664,13.229167 52.916668,13.229167 0 0 1 -52.91669,-13.229167 52.916668,13.229167 0 0 1 52.91669,-13.229167 52.916668,13.229167 0 0 1 8.69974,0.180009" />
    <path
       id="path4835"
       style="fill:none;fill-rule:evenodd;stroke:#666666;stroke-width:0.26458334;stroke-linecap:round;stroke-linejoin:round;stroke-miterlimit:4;stroke-dasharray:0.26458334,1.58750001;stroke-dashoffset:0;paint-order:markers stroke fill"
       d="m 233.59561,53.096678 a 52.916668,13.229167 0 0 1 17.10412,1.499444" />
    <path
       style="fill:#666666;stroke:#666666;stroke-width:0.26458299;stroke-linecap:butt;stroke-linejoin:miter;stroke-opacity:1;stroke-miterlimit:4;stroke-dasharray:0.52916598,1.05833195;stroke-dashoffset:0"
       d="m 224.89585,66.145838 26.45833,2e-6"
       id="path4953" />
    <path
       style="fill:none;stroke:#000000;stroke-width:0.264583px;stroke-linecap:butt;stroke-linejoin:miter;stroke-opacity:1"
       d="m 251.35418,66.14584 26.45833,-5e-6"
       id="path4955" />
    <g
       inkscape:label=""
       transform="translate(146.79592,-19.468701)"
       id="g6002"
       style="stroke:#0000ff;fill:#0000ff">
      <g
         id="g8444"
         style="stroke:#0000ff;fill:#0000ff">
        <g
           style="fill:#0000ff;fill-opacity:1;stroke:#0000ff"
           id="g492">
          <use
             xlink:href="#symbol5667"
             x="91.925003"
             y="81.962997"
             id="use6679"
             width="100%"
             height="100%"
             style="stroke:#0000ff;fill:#0000ff" />
        </g>
      </g>
    </g>
    <g
       inkscape:label=""
       transform="translate(166.6775,-10.057017)"
       id="g6177"
       style="fill:#ff0000">
      <g
         id="g8405"
         style="fill:#ff0000">
        <g
           style="fill:#ff0000;fill-opacity:1"
           id="g1410">
          <use
             xlink:href="#symbol2937"
             x="91.925003"
             y="81.962997"
             id="use4829"
             width="100%"
             height="100%"
             style="fill:#ff0000" />
        </g>
      </g>
    </g>
    <path
       style="fill:none;stroke:#000000;stroke-width:0.264583px;stroke-linecap:butt;stroke-linejoin:miter;stroke-opacity:1"
       d="m 246.06267,34.39621 -21.16682,31.74963 25.85889,11.464931"
       id="path6259" />
    <text
       xml:space="preserve"
       style="font-size:10.5833px;line-height:1.25;font-family:sans-serif;letter-spacing:0px;word-spacing:0px;stroke-width:0.264583"
       x="282.5372"
       y="69.993134"
       id="text6263"><tspan
         sodipodi:role="line"
         id="tspan6261"
         x="282.5372"
         y="69.993134"
         style="stroke-width:0.264583">N</tspan></text>
    <ellipse
       style="fill:none;fill-rule:evenodd;stroke:none;stroke-width:0.264583;stroke-linecap:round;stroke-linejoin:round;stroke-miterlimit:4;stroke-dasharray:none;stroke-dashoffset:0;paint-order:markers stroke fill"
       id="path6273"
       cx="224.89584"
       cy="-66.145836"
       rx="52.916668"
       ry="13.229167"
       transform="scale(1,-1)" />
    <text
       xml:space="preserve"
       style="font-size:5.64444px;line-height:1.25;font-family:sans-serif;letter-spacing:0px;word-spacing:0px;stroke-width:0.264583;stroke:none;"
       id="text6277"><textPath
         xlink:href="#path6273"
         id="textPath6298"><tspan
           id="tspan6275"
           style="font-size:5.64444px;stroke-width:0.264583;stroke:none;"
           dx="120.19594">HORIZONTE</tspan></textPath></text>
    <circle
       style="fill:none;fill-rule:evenodd;stroke:#000000;stroke-width:0.52916667;stroke-linecap:round;stroke-linejoin:round;paint-order:markers stroke fill;stroke-miterlimit:4;stroke-dasharray:none"
       id="path3253"
       cx="224.89584"
       cy="66.145836"
       r="52.916668" />
  </g>
</svg>
