<?xml version="1.0" encoding="UTF-8" standalone="no"?>
<svg
   xmlns:dc="http://purl.org/dc/elements/1.1/"
   xmlns:cc="http://creativecommons.org/ns#"
   xmlns:rdf="http://www.w3.org/1999/02/22-rdf-syntax-ns#"
   xmlns:svg="http://www.w3.org/2000/svg"
   xmlns="http://www.w3.org/2000/svg"
   xmlns:xlink="http://www.w3.org/1999/xlink"
   xmlns:sodipodi="http://sodipodi.sourceforge.net/DTD/sodipodi-0.dtd"
   xmlns:inkscape="http://www.inkscape.org/namespaces/inkscape"
   width="1920"
   height="1080"
   viewBox="0 0 508 285.75001"
   version="1.1"
   id="svg8"
   inkscape:version="1.0.1 (3bc2e813f5, 2020-09-07)"
   sodipodi:docname="problem.svg"
   inkscape:export-filename="D:\Users\grigo\Google Drive\Facultad\Balseiro\PI Lucas\git-repository\digital-beamforming\Tesis\images\02-Beamforming\problem.png"
   inkscape:export-xdpi="46.533539"
   inkscape:export-ydpi="46.533539">
  <defs
     id="defs2">
    <marker
       style="overflow:visible;"
       id="marker4353"
       refX="0.0"
       refY="0.0"
       orient="auto"
       inkscape:stockid="Arrow1Lend"
       inkscape:isstock="true">
      <path
         transform="scale(0.8) rotate(180) translate(12.5,0)"
         style="fill-rule:evenodd;stroke:#ff0000;stroke-width:1pt;stroke-opacity:1;fill:#ff0000;fill-opacity:1"
         d="M 0.0,0.0 L 5.0,-5.0 L -12.5,0.0 L 5.0,5.0 L 0.0,0.0 z "
         id="path4351" />
    </marker>
    <marker
       style="overflow:visible"
       id="marker4245"
       refX="0.0"
       refY="0.0"
       orient="auto"
       inkscape:stockid="Arrow1Lstart"
       inkscape:isstock="true">
      <path
         transform="scale(0.8) translate(12.5,0)"
         style="fill-rule:evenodd;stroke:#ff0000;stroke-width:1pt;stroke-opacity:1;fill:#ff0000;fill-opacity:1"
         d="M 0.0,0.0 L 5.0,-5.0 L -12.5,0.0 L 5.0,5.0 L 0.0,0.0 z "
         id="path4243" />
    </marker>
    <marker
       style="overflow:visible"
       id="marker2901"
       refX="0.0"
       refY="0.0"
       orient="auto"
       inkscape:stockid="Arrow1Lstart"
       inkscape:isstock="true"
       inkscape:collect="always">
      <path
         transform="scale(0.8) translate(12.5,0)"
         style="fill-rule:evenodd;stroke:#ff0000;stroke-width:1pt;stroke-opacity:1;fill:#ff0000;fill-opacity:1"
         d="M 0.0,0.0 L 5.0,-5.0 L -12.5,0.0 L 5.0,5.0 L 0.0,0.0 z "
         id="path2899" />
    </marker>
    <marker
       style="overflow:visible;"
       id="marker2789"
       refX="0.0"
       refY="0.0"
       orient="auto"
       inkscape:stockid="Arrow1Lend"
       inkscape:isstock="true"
       inkscape:collect="always">
      <path
         transform="scale(0.8) rotate(180) translate(12.5,0)"
         style="fill-rule:evenodd;stroke:#ff0000;stroke-width:1pt;stroke-opacity:1;fill:#ff0000;fill-opacity:1"
         d="M 0.0,0.0 L 5.0,-5.0 L -12.5,0.0 L 5.0,5.0 L 0.0,0.0 z "
         id="path2787" />
    </marker>
    <marker
       style="overflow:visible;"
       id="marker1854"
       refX="0.0"
       refY="0.0"
       orient="auto"
       inkscape:stockid="Arrow1Lend"
       inkscape:isstock="true"
       inkscape:collect="always">
      <path
         transform="scale(0.8) rotate(180) translate(12.5,0)"
         style="fill-rule:evenodd;stroke:#ff0000;stroke-width:1pt;stroke-opacity:1;fill:#ff0000;fill-opacity:1"
         d="M 0.0,0.0 L 5.0,-5.0 L -12.5,0.0 L 5.0,5.0 L 0.0,0.0 z "
         id="path1852" />
    </marker>
    <marker
       style="overflow:visible;"
       id="marker3498"
       refX="0.0"
       refY="0.0"
       orient="auto"
       inkscape:stockid="Arrow1Lend"
       inkscape:isstock="true">
      <path
         transform="scale(0.8) rotate(180) translate(12.5,0)"
         style="fill-rule:evenodd;stroke:#ff0000;stroke-width:1pt;stroke-opacity:1;fill:#ff0000;fill-opacity:1"
         d="M 0.0,0.0 L 5.0,-5.0 L -12.5,0.0 L 5.0,5.0 L 0.0,0.0 z "
         id="path3496" />
    </marker>
    <marker
       style="overflow:visible"
       id="marker3416"
       refX="0.0"
       refY="0.0"
       orient="auto"
       inkscape:stockid="Arrow1Lstart"
       inkscape:isstock="true">
      <path
         transform="scale(0.8) translate(12.5,0)"
         style="fill-rule:evenodd;stroke:#ff0000;stroke-width:1pt;stroke-opacity:1;fill:#ff0000;fill-opacity:1"
         d="M 0.0,0.0 L 5.0,-5.0 L -12.5,0.0 L 5.0,5.0 L 0.0,0.0 z "
         id="path3414" />
    </marker>
    <marker
       style="overflow:visible;"
       id="marker3161"
       refX="0.0"
       refY="0.0"
       orient="auto"
       inkscape:stockid="Arrow1Lend"
       inkscape:isstock="true"
       inkscape:collect="always">
      <path
         transform="scale(0.8) rotate(180) translate(12.5,0)"
         style="fill-rule:evenodd;stroke:#ff0000;stroke-width:1pt;stroke-opacity:1;fill:#ff0000;fill-opacity:1"
         d="M 0.0,0.0 L 5.0,-5.0 L -12.5,0.0 L 5.0,5.0 L 0.0,0.0 z "
         id="path3159" />
    </marker>
    <marker
       style="overflow:visible;"
       id="marker2574"
       refX="0.0"
       refY="0.0"
       orient="auto"
       inkscape:stockid="Arrow1Lend"
       inkscape:isstock="true">
      <path
         transform="scale(0.8) rotate(180) translate(12.5,0)"
         style="fill-rule:evenodd;stroke:#ff0000;stroke-width:1pt;stroke-opacity:1;fill:#ff0000;fill-opacity:1"
         d="M 0.0,0.0 L 5.0,-5.0 L -12.5,0.0 L 5.0,5.0 L 0.0,0.0 z "
         id="path2572" />
    </marker>
    <marker
       style="overflow:visible"
       id="Arrow1Lstart"
       refX="0.0"
       refY="0.0"
       orient="auto"
       inkscape:stockid="Arrow1Lstart"
       inkscape:isstock="true">
      <path
         transform="scale(0.8) translate(12.5,0)"
         style="fill-rule:evenodd;stroke:#ff0000;stroke-width:1pt;stroke-opacity:1;fill:#ff0000;fill-opacity:1"
         d="M 0.0,0.0 L 5.0,-5.0 L -12.5,0.0 L 5.0,5.0 L 0.0,0.0 z "
         id="path1152" />
    </marker>
    <g
       id="g1295">
      <symbol
         overflow="visible"
         id="symbol7238">
        <path
           style="stroke:none;"
           d=""
           id="path8343" />
      </symbol>
      <symbol
         overflow="visible"
         id="symbol3246">
        <path
           style="stroke:none;"
           d="M 1.328125 -0.828125 C 1.859375 -1.40625 2.15625 -1.65625 2.515625 -1.96875 C 2.515625 -1.96875 3.125 -2.5 3.484375 -2.859375 C 4.4375 -3.78125 4.65625 -4.265625 4.65625 -4.3125 C 4.65625 -4.40625 4.5625 -4.40625 4.546875 -4.40625 C 4.46875 -4.40625 4.453125 -4.390625 4.390625 -4.296875 C 4.09375 -3.8125 3.890625 -3.65625 3.65625 -3.65625 C 3.40625 -3.65625 3.296875 -3.8125 3.140625 -3.984375 C 2.953125 -4.203125 2.78125 -4.40625 2.453125 -4.40625 C 1.703125 -4.40625 1.25 -3.484375 1.25 -3.265625 C 1.25 -3.21875 1.28125 -3.15625 1.359375 -3.15625 C 1.453125 -3.15625 1.46875 -3.203125 1.5 -3.265625 C 1.6875 -3.734375 2.265625 -3.734375 2.34375 -3.734375 C 2.546875 -3.734375 2.734375 -3.671875 2.96875 -3.59375 C 3.375 -3.4375 3.484375 -3.4375 3.734375 -3.4375 C 3.375 -3.015625 2.546875 -2.296875 2.359375 -2.140625 L 1.453125 -1.296875 C 0.78125 -0.625 0.421875 -0.0625 0.421875 0.015625 C 0.421875 0.109375 0.53125 0.109375 0.546875 0.109375 C 0.625 0.109375 0.640625 0.09375 0.703125 -0.015625 C 0.9375 -0.375 1.234375 -0.640625 1.5625 -0.640625 C 1.78125 -0.640625 1.890625 -0.546875 2.140625 -0.265625 C 2.296875 -0.046875 2.484375 0.109375 2.765625 0.109375 C 3.765625 0.109375 4.34375 -1.15625 4.34375 -1.421875 C 4.34375 -1.46875 4.296875 -1.53125 4.21875 -1.53125 C 4.125 -1.53125 4.109375 -1.46875 4.078125 -1.390625 C 3.84375 -0.75 3.203125 -0.5625 2.875 -0.5625 C 2.6875 -0.5625 2.5 -0.625 2.296875 -0.6875 C 1.953125 -0.8125 1.796875 -0.859375 1.59375 -0.859375 C 1.578125 -0.859375 1.421875 -0.859375 1.328125 -0.828125 Z M 1.328125 -0.828125 "
           id="path2495" />
      </symbol>
    </g>
    <g
       id="g5194">
      <symbol
         overflow="visible"
         id="symbol1724">
        <path
           style="stroke:none;"
           d=""
           id="path9464" />
      </symbol>
      <symbol
         overflow="visible"
         id="symbol5555">
        <path
           style="stroke:none;"
           d="M 3.328125 -3.015625 C 3.390625 -3.265625 3.625 -4.1875 4.3125 -4.1875 C 4.359375 -4.1875 4.609375 -4.1875 4.8125 -4.0625 C 4.53125 -4 4.34375 -3.765625 4.34375 -3.515625 C 4.34375 -3.359375 4.453125 -3.171875 4.71875 -3.171875 C 4.9375 -3.171875 5.25 -3.34375 5.25 -3.75 C 5.25 -4.265625 4.671875 -4.40625 4.328125 -4.40625 C 3.75 -4.40625 3.40625 -3.875 3.28125 -3.65625 C 3.03125 -4.3125 2.5 -4.40625 2.203125 -4.40625 C 1.171875 -4.40625 0.59375 -3.125 0.59375 -2.875 C 0.59375 -2.765625 0.703125 -2.765625 0.71875 -2.765625 C 0.796875 -2.765625 0.828125 -2.796875 0.84375 -2.875 C 1.1875 -3.9375 1.84375 -4.1875 2.1875 -4.1875 C 2.375 -4.1875 2.71875 -4.09375 2.71875 -3.515625 C 2.71875 -3.203125 2.546875 -2.546875 2.1875 -1.140625 C 2.03125 -0.53125 1.671875 -0.109375 1.234375 -0.109375 C 1.171875 -0.109375 0.953125 -0.109375 0.734375 -0.234375 C 0.984375 -0.296875 1.203125 -0.5 1.203125 -0.78125 C 1.203125 -1.046875 0.984375 -1.125 0.84375 -1.125 C 0.53125 -1.125 0.296875 -0.875 0.296875 -0.546875 C 0.296875 -0.09375 0.78125 0.109375 1.21875 0.109375 C 1.890625 0.109375 2.25 -0.59375 2.265625 -0.640625 C 2.390625 -0.28125 2.75 0.109375 3.34375 0.109375 C 4.375 0.109375 4.9375 -1.171875 4.9375 -1.421875 C 4.9375 -1.53125 4.859375 -1.53125 4.828125 -1.53125 C 4.734375 -1.53125 4.71875 -1.484375 4.6875 -1.421875 C 4.359375 -0.34375 3.6875 -0.109375 3.375 -0.109375 C 2.984375 -0.109375 2.828125 -0.421875 2.828125 -0.765625 C 2.828125 -0.984375 2.875 -1.203125 2.984375 -1.640625 Z M 3.328125 -3.015625 "
           id="path8436" />
      </symbol>
    </g>
    <g
       id="g5691">
      <symbol
         overflow="visible"
         id="symbol3321">
        <path
           style="stroke:none;"
           d=""
           id="path5711" />
      </symbol>
      <symbol
         overflow="visible"
         id="symbol9402">
        <path
           style="stroke:none;"
           d="M 4.84375 -3.796875 C 4.890625 -3.9375 4.890625 -3.953125 4.890625 -4.03125 C 4.890625 -4.203125 4.75 -4.296875 4.59375 -4.296875 C 4.5 -4.296875 4.34375 -4.234375 4.25 -4.09375 C 4.234375 -4.03125 4.140625 -3.734375 4.109375 -3.546875 C 4.03125 -3.296875 3.96875 -3.015625 3.90625 -2.75 L 3.453125 -0.953125 C 3.421875 -0.8125 2.984375 -0.109375 2.328125 -0.109375 C 1.828125 -0.109375 1.71875 -0.546875 1.71875 -0.921875 C 1.71875 -1.375 1.890625 -2 2.21875 -2.875 C 2.375 -3.28125 2.421875 -3.390625 2.421875 -3.59375 C 2.421875 -4.03125 2.109375 -4.40625 1.609375 -4.40625 C 0.65625 -4.40625 0.296875 -2.953125 0.296875 -2.875 C 0.296875 -2.765625 0.390625 -2.765625 0.40625 -2.765625 C 0.515625 -2.765625 0.515625 -2.796875 0.5625 -2.953125 C 0.84375 -3.890625 1.234375 -4.1875 1.578125 -4.1875 C 1.65625 -4.1875 1.828125 -4.1875 1.828125 -3.875 C 1.828125 -3.625 1.71875 -3.359375 1.65625 -3.171875 C 1.25 -2.109375 1.078125 -1.546875 1.078125 -1.078125 C 1.078125 -0.1875 1.703125 0.109375 2.296875 0.109375 C 2.6875 0.109375 3.015625 -0.0625 3.296875 -0.34375 C 3.171875 0.171875 3.046875 0.671875 2.65625 1.203125 C 2.390625 1.53125 2.015625 1.828125 1.5625 1.828125 C 1.421875 1.828125 0.96875 1.796875 0.796875 1.40625 C 0.953125 1.40625 1.09375 1.40625 1.21875 1.28125 C 1.328125 1.203125 1.421875 1.0625 1.421875 0.875 C 1.421875 0.5625 1.15625 0.53125 1.0625 0.53125 C 0.828125 0.53125 0.5 0.6875 0.5 1.171875 C 0.5 1.671875 0.9375 2.046875 1.5625 2.046875 C 2.578125 2.046875 3.609375 1.140625 3.890625 0.015625 Z M 4.84375 -3.796875 "
           id="path3194" />
      </symbol>
    </g>
    <marker
       style="overflow:visible"
       id="marker2281-8"
       refX="0"
       refY="0"
       orient="auto"
       inkscape:stockid="Arrow1Lend"
       inkscape:isstock="true">
      <path
         transform="matrix(-0.8,0,0,-0.8,-10,0)"
         style="fill:#ff0000;fill-opacity:1;fill-rule:evenodd;stroke:#ff0000;stroke-width:1pt;stroke-opacity:1"
         d="M 0,0 5,-5 -12.5,0 5,5 Z"
         id="path2279-8" />
    </marker>
    <marker
       style="overflow:visible"
       id="marker2281-8-1"
       refX="0"
       refY="0"
       orient="auto"
       inkscape:stockid="Arrow1Lend"
       inkscape:isstock="true">
      <path
         transform="matrix(-0.8,0,0,-0.8,-10,0)"
         style="fill:#ff0000;fill-opacity:1;fill-rule:evenodd;stroke:#ff0000;stroke-width:1pt;stroke-opacity:1"
         d="M 0,0 5,-5 -12.5,0 5,5 Z"
         id="path2279-8-5" />
    </marker>
    <marker
       style="overflow:visible"
       id="marker2281-8-8"
       refX="0"
       refY="0"
       orient="auto"
       inkscape:stockid="Arrow1Lend"
       inkscape:isstock="true">
      <path
         transform="matrix(-0.8,0,0,-0.8,-10,0)"
         style="fill:#ff0000;fill-opacity:1;fill-rule:evenodd;stroke:#ff0000;stroke-width:1pt;stroke-opacity:1"
         d="M 0,0 5,-5 -12.5,0 5,5 Z"
         id="path2279-8-9" />
    </marker>
    <g
       id="g4260">
      <symbol
         overflow="visible"
         id="symbol9854">
        <path
           style="stroke:none;"
           d=""
           id="path1292" />
      </symbol>
      <symbol
         overflow="visible"
         id="symbol7200">
        <path
           style="stroke:none;"
           d="M 4.53125 -4.984375 C 4.53125 -5.640625 4.359375 -7.03125 3.34375 -7.03125 C 1.953125 -7.03125 0.421875 -4.21875 0.421875 -1.9375 C 0.421875 -1 0.703125 0.109375 1.609375 0.109375 C 3.015625 0.109375 4.53125 -2.75 4.53125 -4.984375 Z M 1.46875 -3.625 C 1.640625 -4.25 1.84375 -5.046875 2.25 -5.765625 C 2.515625 -6.25 2.875 -6.8125 3.328125 -6.8125 C 3.8125 -6.8125 3.875 -6.171875 3.875 -5.609375 C 3.875 -5.109375 3.796875 -4.609375 3.5625 -3.625 Z M 3.46875 -3.296875 C 3.359375 -2.84375 3.15625 -2 2.765625 -1.28125 C 2.421875 -0.59375 2.046875 -0.109375 1.609375 -0.109375 C 1.28125 -0.109375 1.078125 -0.40625 1.078125 -1.328125 C 1.078125 -1.75 1.140625 -2.328125 1.390625 -3.296875 Z M 3.46875 -3.296875 "
           id="path4497" />
      </symbol>
    </g>
    <g
       id="g6662">
      <symbol
         overflow="visible"
         id="symbol1228">
        <path
           style="stroke:none;"
           d=""
           id="path8287" />
      </symbol>
      <symbol
         overflow="visible"
         id="symbol8909">
        <path
           style="stroke:none;"
           d="M 4.359375 -6.671875 C 4.359375 -6.703125 4.390625 -6.8125 4.390625 -6.8125 C 4.390625 -6.828125 4.390625 -6.921875 4.265625 -6.921875 C 4.171875 -6.921875 4.15625 -6.890625 4.109375 -6.71875 L 3.53125 -4.421875 C 1.953125 -4.359375 0.484375 -3.046875 0.484375 -1.6875 C 0.484375 -0.734375 1.1875 0.046875 2.40625 0.125 C 2.328125 0.421875 2.25 0.75 2.171875 1.0625 C 2.046875 1.53125 1.953125 1.90625 1.953125 1.9375 C 1.953125 2.03125 2.03125 2.046875 2.078125 2.046875 C 2.125 2.046875 2.140625 2.03125 2.171875 2 C 2.1875 1.984375 2.25 1.75 2.28125 1.609375 L 2.65625 0.125 C 4.265625 0.0625 5.71875 -1.28125 5.71875 -2.609375 C 5.71875 -3.40625 5.1875 -4.3125 3.796875 -4.421875 Z M 2.453125 -0.09375 C 1.859375 -0.125 1.140625 -0.484375 1.140625 -1.46875 C 1.140625 -2.671875 2 -4.0625 3.484375 -4.203125 Z M 3.734375 -4.203125 C 4.5 -4.15625 5.0625 -3.703125 5.0625 -2.828125 C 5.0625 -1.640625 4.203125 -0.21875 2.71875 -0.09375 Z M 3.734375 -4.203125 "
           id="path8494" />
      </symbol>
    </g>
    <g
       id="g1990">
      <symbol
         overflow="visible"
         id="symbol3120">
        <path
           style="stroke:none;"
           d=""
           id="path6639" />
      </symbol>
      <symbol
         overflow="visible"
         id="symbol5442">
        <path
           style="stroke:none;"
           d="M 1.6875 1.6875 C 1.65625 1.828125 1.640625 1.84375 1.640625 1.890625 C 1.640625 2.109375 1.828125 2.171875 1.9375 2.171875 C 1.984375 2.171875 2.203125 2.140625 2.296875 1.90625 C 2.328125 1.828125 2.375 1.5 2.65625 0.09375 C 2.734375 0.09375 2.8125 0.109375 2.984375 0.109375 C 4.640625 0.109375 6.171875 -1.453125 6.171875 -3.03125 C 6.171875 -3.8125 5.78125 -4.40625 5.03125 -4.40625 C 3.59375 -4.40625 2.984375 -2.46875 2.390625 -0.53125 C 1.3125 -0.734375 0.75 -1.28125 0.75 -2 C 0.75 -2.28125 0.984375 -3.375 1.578125 -4.0625 C 1.671875 -4.15625 1.671875 -4.171875 1.671875 -4.203125 C 1.671875 -4.234375 1.640625 -4.296875 1.546875 -4.296875 C 1.265625 -4.296875 0.5 -2.84375 0.5 -1.890625 C 0.5 -0.953125 1.15625 -0.234375 2.21875 0.015625 Z M 3.078125 -0.46875 C 2.984375 -0.46875 2.96875 -0.46875 2.890625 -0.484375 C 2.765625 -0.484375 2.765625 -0.484375 2.765625 -0.515625 C 2.765625 -0.53125 2.9375 -1.453125 2.953125 -1.59375 C 3.265625 -2.875 4.046875 -3.828125 4.9375 -3.828125 C 5.625 -3.828125 5.890625 -3.296875 5.890625 -2.8125 C 5.890625 -1.6875 4.609375 -0.46875 3.078125 -0.46875 Z M 3.078125 -0.46875 "
           id="path2205" />
      </symbol>
    </g>
    <g
       id="g1176">
      <symbol
         overflow="visible"
         id="symbol9845">
        <path
           style="stroke:none;"
           d=""
           id="path1676" />
      </symbol>
      <symbol
         overflow="visible"
         id="symbol7140">
        <path
           style="stroke:none;"
           d="M 9.234375 -6.046875 C 9.328125 -6.40625 9.34375 -6.5 10.09375 -6.5 C 10.3125 -6.5 10.40625 -6.5 10.40625 -6.703125 C 10.40625 -6.8125 10.3125 -6.8125 10.140625 -6.8125 L 8.828125 -6.8125 C 8.5625 -6.8125 8.546875 -6.8125 8.4375 -6.625 L 4.796875 -0.9375 L 4.015625 -6.578125 C 3.984375 -6.8125 3.96875 -6.8125 3.703125 -6.8125 L 2.34375 -6.8125 C 2.15625 -6.8125 2.046875 -6.8125 2.046875 -6.625 C 2.046875 -6.5 2.140625 -6.5 2.328125 -6.5 C 2.46875 -6.5 2.640625 -6.484375 2.765625 -6.484375 C 2.921875 -6.453125 2.984375 -6.4375 2.984375 -6.3125 C 2.984375 -6.28125 2.96875 -6.25 2.9375 -6.125 L 1.671875 -1.0625 C 1.578125 -0.65625 1.40625 -0.34375 0.59375 -0.3125 C 0.546875 -0.3125 0.421875 -0.296875 0.421875 -0.125 C 0.421875 -0.03125 0.484375 0 0.5625 0 C 0.875 0 1.21875 -0.03125 1.5625 -0.03125 C 1.890625 -0.03125 2.25 0 2.578125 0 C 2.625 0 2.765625 0 2.765625 -0.203125 C 2.765625 -0.3125 2.65625 -0.3125 2.578125 -0.3125 C 2.015625 -0.3125 1.90625 -0.515625 1.90625 -0.75 C 1.90625 -0.8125 1.90625 -0.875 1.9375 -0.984375 L 3.296875 -6.40625 L 3.3125 -6.40625 L 4.171875 -0.234375 C 4.1875 -0.109375 4.203125 0 4.3125 0 C 4.421875 0 4.484375 -0.109375 4.53125 -0.171875 L 8.5625 -6.484375 L 8.578125 -6.484375 L 7.140625 -0.78125 C 7.046875 -0.390625 7.03125 -0.3125 6.234375 -0.3125 C 6.078125 -0.3125 5.96875 -0.3125 5.96875 -0.125 C 5.96875 0 6.078125 0 6.109375 0 C 6.390625 0 7.0625 -0.03125 7.34375 -0.03125 C 7.75 -0.03125 8.1875 0 8.59375 0 C 8.65625 0 8.78125 0 8.78125 -0.203125 C 8.78125 -0.3125 8.6875 -0.3125 8.5 -0.3125 C 8.140625 -0.3125 7.859375 -0.3125 7.859375 -0.484375 C 7.859375 -0.53125 7.859375 -0.546875 7.90625 -0.734375 Z M 9.234375 -6.046875 "
           id="path7249" />
      </symbol>
      <symbol
         overflow="visible"
         id="symbol4858">
        <path
           style="stroke:none;"
           d=""
           id="path913" />
      </symbol>
      <symbol
         overflow="visible"
         id="symbol7764">
        <path
           style="stroke:none;"
           d="M 1.734375 -0.734375 C 1.671875 -0.5 1.4375 -0.125 1.078125 -0.125 C 1.0625 -0.125 0.84375 -0.125 0.703125 -0.21875 C 0.984375 -0.3125 1.015625 -0.5625 1.015625 -0.609375 C 1.015625 -0.765625 0.890625 -0.859375 0.734375 -0.859375 C 0.53125 -0.859375 0.328125 -0.703125 0.328125 -0.4375 C 0.328125 -0.09375 0.71875 0.0625 1.0625 0.0625 C 1.390625 0.0625 1.671875 -0.125 1.84375 -0.421875 C 2.015625 -0.0625 2.390625 0.0625 2.671875 0.0625 C 3.484375 0.0625 3.90625 -0.796875 3.90625 -1 C 3.90625 -1.09375 3.8125 -1.09375 3.796875 -1.09375 C 3.6875 -1.09375 3.6875 -1.046875 3.65625 -0.96875 C 3.515625 -0.484375 3.09375 -0.125 2.703125 -0.125 C 2.421875 -0.125 2.28125 -0.3125 2.28125 -0.578125 C 2.28125 -0.765625 2.453125 -1.390625 2.640625 -2.171875 C 2.78125 -2.703125 3.09375 -2.875 3.328125 -2.875 C 3.34375 -2.875 3.546875 -2.875 3.703125 -2.78125 C 3.484375 -2.71875 3.390625 -2.515625 3.390625 -2.390625 C 3.390625 -2.25 3.515625 -2.140625 3.671875 -2.140625 C 3.828125 -2.140625 4.0625 -2.265625 4.0625 -2.5625 C 4.0625 -2.953125 3.609375 -3.078125 3.34375 -3.078125 C 2.984375 -3.078125 2.703125 -2.84375 2.5625 -2.578125 C 2.4375 -2.859375 2.109375 -3.078125 1.71875 -3.078125 C 0.9375 -3.078125 0.5 -2.21875 0.5 -2 C 0.5 -1.921875 0.59375 -1.921875 0.609375 -1.921875 C 0.703125 -1.921875 0.703125 -1.9375 0.75 -2.03125 C 0.921875 -2.578125 1.359375 -2.875 1.703125 -2.875 C 1.9375 -2.875 2.125 -2.75 2.125 -2.421875 C 2.125 -2.28125 2.03125 -1.9375 1.96875 -1.6875 Z M 1.734375 -0.734375 "
           id="path8277" />
      </symbol>
    </g>
    <g
       id="g1210">
      <symbol
         overflow="visible"
         id="symbol7833">
        <path
           style="stroke:none;"
           d=""
           id="path8025" />
      </symbol>
      <symbol
         overflow="visible"
         id="symbol5038">
        <path
           style="stroke:none;"
           d="M 9.234375 -6.046875 C 9.328125 -6.40625 9.34375 -6.5 10.09375 -6.5 C 10.3125 -6.5 10.40625 -6.5 10.40625 -6.703125 C 10.40625 -6.8125 10.3125 -6.8125 10.140625 -6.8125 L 8.828125 -6.8125 C 8.5625 -6.8125 8.546875 -6.8125 8.4375 -6.625 L 4.796875 -0.9375 L 4.015625 -6.578125 C 3.984375 -6.8125 3.96875 -6.8125 3.703125 -6.8125 L 2.34375 -6.8125 C 2.15625 -6.8125 2.046875 -6.8125 2.046875 -6.625 C 2.046875 -6.5 2.140625 -6.5 2.328125 -6.5 C 2.46875 -6.5 2.640625 -6.484375 2.765625 -6.484375 C 2.921875 -6.453125 2.984375 -6.4375 2.984375 -6.3125 C 2.984375 -6.28125 2.96875 -6.25 2.9375 -6.125 L 1.671875 -1.0625 C 1.578125 -0.65625 1.40625 -0.34375 0.59375 -0.3125 C 0.546875 -0.3125 0.421875 -0.296875 0.421875 -0.125 C 0.421875 -0.03125 0.484375 0 0.5625 0 C 0.875 0 1.21875 -0.03125 1.5625 -0.03125 C 1.890625 -0.03125 2.25 0 2.578125 0 C 2.625 0 2.765625 0 2.765625 -0.203125 C 2.765625 -0.3125 2.65625 -0.3125 2.578125 -0.3125 C 2.015625 -0.3125 1.90625 -0.515625 1.90625 -0.75 C 1.90625 -0.8125 1.90625 -0.875 1.9375 -0.984375 L 3.296875 -6.40625 L 3.3125 -6.40625 L 4.171875 -0.234375 C 4.1875 -0.109375 4.203125 0 4.3125 0 C 4.421875 0 4.484375 -0.109375 4.53125 -0.171875 L 8.5625 -6.484375 L 8.578125 -6.484375 L 7.140625 -0.78125 C 7.046875 -0.390625 7.03125 -0.3125 6.234375 -0.3125 C 6.078125 -0.3125 5.96875 -0.3125 5.96875 -0.125 C 5.96875 0 6.078125 0 6.109375 0 C 6.390625 0 7.0625 -0.03125 7.34375 -0.03125 C 7.75 -0.03125 8.1875 0 8.59375 0 C 8.65625 0 8.78125 0 8.78125 -0.203125 C 8.78125 -0.3125 8.6875 -0.3125 8.5 -0.3125 C 8.140625 -0.3125 7.859375 -0.3125 7.859375 -0.484375 C 7.859375 -0.53125 7.859375 -0.546875 7.90625 -0.734375 Z M 9.234375 -6.046875 "
           id="path12" />
      </symbol>
      <symbol
         overflow="visible"
         id="symbol4362">
        <path
           style="stroke:none;"
           d=""
           id="path9654" />
      </symbol>
      <symbol
         overflow="visible"
         id="symbol1954">
        <path
           style="stroke:none;"
           d="M 3.875 -2.625 C 3.90625 -2.71875 3.90625 -2.734375 3.90625 -2.78125 C 3.90625 -2.921875 3.796875 -3 3.671875 -3 C 3.59375 -3 3.46875 -2.96875 3.390625 -2.84375 C 3.359375 -2.796875 3.3125 -2.578125 3.28125 -2.4375 L 3.125 -1.859375 C 3.09375 -1.6875 2.875 -0.8125 2.84375 -0.734375 C 2.84375 -0.734375 2.53125 -0.125 2 -0.125 C 1.515625 -0.125 1.515625 -0.578125 1.515625 -0.703125 C 1.515625 -1.078125 1.671875 -1.515625 1.890625 -2.0625 C 1.96875 -2.28125 2 -2.359375 2 -2.484375 C 2 -2.8125 1.71875 -3.078125 1.34375 -3.078125 C 0.640625 -3.078125 0.328125 -2.125 0.328125 -2 C 0.328125 -1.921875 0.421875 -1.921875 0.453125 -1.921875 C 0.546875 -1.921875 0.546875 -1.953125 0.578125 -2.03125 C 0.75 -2.609375 1.046875 -2.875 1.328125 -2.875 C 1.4375 -2.875 1.5 -2.796875 1.5 -2.640625 C 1.5 -2.46875 1.4375 -2.328125 1.40625 -2.234375 C 1.0625 -1.375 1 -1.125 1 -0.8125 C 1 -0.703125 1 -0.375 1.265625 -0.140625 C 1.484375 0.03125 1.78125 0.0625 1.96875 0.0625 C 2.25 0.0625 2.5 -0.03125 2.71875 -0.25 C 2.640625 0.140625 2.5625 0.4375 2.265625 0.78125 C 2.078125 1 1.796875 1.21875 1.421875 1.21875 C 1.375 1.21875 1.046875 1.21875 0.90625 1 C 1.28125 0.953125 1.28125 0.625 1.28125 0.609375 C 1.28125 0.390625 1.078125 0.34375 1.015625 0.34375 C 0.84375 0.34375 0.609375 0.484375 0.609375 0.8125 C 0.609375 1.15625 0.9375 1.421875 1.4375 1.421875 C 2.140625 1.421875 3 0.875 3.21875 0 Z M 3.875 -2.625 "
           id="path7026" />
      </symbol>
    </g>
  </defs>
  <sodipodi:namedview
     id="base"
     pagecolor="#ffffff"
     bordercolor="#666666"
     borderopacity="1.0"
     inkscape:pageopacity="0.0"
     inkscape:pageshadow="2"
     inkscape:zoom="0.175"
     inkscape:cx="237.26305"
     inkscape:cy="1349.9108"
     inkscape:document-units="px"
     inkscape:current-layer="layer3"
     inkscape:document-rotation="0"
     showgrid="true"
     width="1920mm"
     units="px"
     showborder="false"
     inkscape:window-width="1920"
     inkscape:window-height="1017"
     inkscape:window-x="-8"
     inkscape:window-y="-8"
     inkscape:window-maximized="1"
     inkscape:snap-bbox="true"
     inkscape:bbox-paths="true"
     inkscape:bbox-nodes="true"
     inkscape:snap-bbox-edge-midpoints="true"
     inkscape:snap-bbox-midpoints="true"
     inkscape:object-paths="true"
     inkscape:snap-smooth-nodes="true"
     inkscape:snap-intersection-paths="true"
     inkscape:snap-object-midpoints="true"
     inkscape:snap-center="true"
     inkscape:snap-text-baseline="true"
     inkscape:snap-grids="true"
     inkscape:snap-midpoints="true"
     inkscape:snap-global="false"
     inkscape:snap-nodes="true"
     inkscape:snap-others="true">
    <inkscape:grid
       type="axonomgrid"
       id="grid833"
       units="px"
       spacingy="26.458334" />
  </sodipodi:namedview>
  <metadata
     id="metadata5">
    <rdf:RDF>
      <cc:Work
         rdf:about="">
        <dc:format>image/svg+xml</dc:format>
        <dc:type
           rdf:resource="http://purl.org/dc/dcmitype/StillImage" />
        <dc:title />
      </cc:Work>
    </rdf:RDF>
  </metadata>
  <g
     inkscape:groupmode="layer"
     id="layer2"
     inkscape:label="piso"
     style="display:inline"
     sodipodi:insensitive="true">
    <g
       id="g893"
       transform="matrix(2.0000005,0,0,2.0000005,114.56798,-66.145946)">
      <path
         style="fill:#deaa87;stroke:none;stroke-width:0.264583px;stroke-linecap:butt;stroke-linejoin:miter;stroke-opacity:1"
         d="M -68.740768,171.97917 114.56795,66.145835 297.87666,171.97917 114.56795,277.81251 Z"
         id="path835"
         sodipodi:nodetypes="ccccc" />
      <path
         style="fill:#784421;stroke:none;stroke-width:0.264583px;stroke-linecap:butt;stroke-linejoin:miter;stroke-opacity:1"
         d="m 114.56795,277.81251 v 26.45833 L 297.87666,198.4375 v -26.45833 z"
         id="path837"
         sodipodi:nodetypes="ccccc" />
      <path
         style="fill:#c87137;stroke:none;stroke-width:0.264583px;stroke-linecap:butt;stroke-linejoin:miter;stroke-opacity:1"
         d="m -68.740768,171.97918 v 26.45833 L 114.56795,304.27084 v -26.45833 z"
         id="path839"
         sodipodi:nodetypes="ccccc" />
    </g>
  </g>
  <g
     inkscape:groupmode="layer"
     id="layer3"
     inkscape:label="ejes"
     style="display:inline">
    <path
       style="fill:none;stroke:#ff0000;stroke-width:1.32292;stroke-linecap:butt;stroke-linejoin:miter;stroke-miterlimit:4;stroke-dasharray:none;stroke-opacity:1;marker-start:url(#marker4245);marker-end:url(#marker4353)"
       d="M -114.56795,542.39585 C -183.21045,519.52392 -239.7485,486.46264 -229.1359,396.87501"
       id="path4077"
       sodipodi:nodetypes="cc" />
    <g
       style="display:inline"
       id="g2831"
       transform="matrix(-0.07297471,-0.21274459,0.21274459,-0.07297471,-324.61739,23.955069)">
      <path
         id="path2778"
         d="m 353.5,306.76 -44.778,45.502" />
      <path
         id="path2780"
         d="m 309.72,262.98 -46.966,46.24" />
      <path
         id="path2782"
         d="M 267.12,218.02 397.27,348.17 349.93,395.51 219.78,265.36 Z" />
      <path
         id="path2784"
         d="m 244.64,231.03 -14.2,14.2" />
      <path
         id="path2786"
         d="m 178.37,164.77 -14.2,14.2" />
      <g
         id="g2794"
         stroke-width="16"
         stroke="#000000"
         fill="none">
        <path
           id="path2788"
           d="m 12.721,285.46 c 9.814,66.54 50.27,100.88 112.41,112.41" />
        <path
           id="path2790"
           d="m 60.05,285.46 c 5.472,38.03 25,59.948 65.08,65.08" />
        <path
           id="path2792"
           d="m 95.55,285.46 c 5.632,20.687 16.601,27.37 29.581,29.581" />
      </g>
      <path
         id="path2796"
         d="m 145.24,240.49 -17.749,41.41 41.41,-17.749" />
      <path
         id="path2798"
         d="m 197.7,290.05 c -8.169,8.169 -32.01,-2.426 -53.25,-23.666 -21.241,-21.241 -31.834,-45.08 -23.666,-53.25 8.169,-8.169 32.01,2.426 53.25,23.666 21.241,21.241 31.834,45.08 23.666,53.25 z" />
      <path
         id="path2800"
         d="m 209.14,143.46 10.738,10.56 5.829,-5.829 35.498,35.498 -5.917,5.917 11.832,11.832 -63.07,62.21 -58.13,-58.13 z" />
      <path
         id="path2802"
         d="m 147.61,100.86 -45.87,45.87" />
      <path
         id="path2804"
         d="M 103.83,57.08 58.058,102.582" />
      <path
         id="path2806"
         d="M 61.23,12.12 191.38,142.27 144.04,189.61 13.89,59.46 Z" />
    </g>
    <path
       style="fill:none;stroke:#ff0000;stroke-width:1.32292;stroke-linecap:butt;stroke-linejoin:miter;stroke-miterlimit:4;stroke-dasharray:none;stroke-opacity:1;marker-end:url(#marker3161)"
       d="M 343.67994,277.79554 -229.13589,0"
       id="path2569"
       sodipodi:nodetypes="cc" />
    <g
       inkscape:label=""
       transform="matrix(6.4385299,0,0,6.4385299,-871.61975,-307.0336)"
       id="g3349"
       style="fill:#ff0000">
      <g
         id="g2000"
         style="fill:#ff0000">
        <g
           style="fill:#ff0000;fill-opacity:1"
           id="g8868">
          <use
             xlink:href="#symbol7200"
             x="91.925003"
             y="81.962997"
             id="use8061"
             width="100%"
             height="100%"
             style="fill:#ff0000" />
        </g>
      </g>
    </g>
    <g
       inkscape:label=""
       transform="matrix(6.9985749,0,0,6.9985749,-771.59232,-122.43899)"
       id="g3938"
       style="fill:#ff0000">
      <g
         id="g6615"
         style="fill:#ff0000">
        <g
           style="fill:#ff0000;fill-opacity:1"
           id="g4152">
          <use
             xlink:href="#symbol5442"
             x="91.925003"
             y="81.962997"
             id="use2606"
             width="100%"
             height="100%"
             style="fill:#ff0000" />
        </g>
      </g>
    </g>
    <path
       style="fill:none;stroke:#ff0000;stroke-width:1.32292;stroke-linecap:butt;stroke-linejoin:miter;stroke-miterlimit:4;stroke-dasharray:none;stroke-opacity:1;marker-end:url(#marker1854)"
       d="M 343.70384,277.81251 -180.3952,580.45631"
       id="path1850"
       sodipodi:nodetypes="cc" />
    <path
       style="fill:none;stroke:#ff0000;stroke-width:1.32292;stroke-linecap:butt;stroke-linejoin:miter;stroke-miterlimit:4;stroke-dasharray:none;stroke-opacity:1"
       d="M 343.70384,277.81251 -229.1359,0"
       id="path4075"
       sodipodi:nodetypes="cc" />
    <path
       style="fill:none;stroke:#ff0000;stroke-width:1.32291669;stroke-linecap:butt;stroke-linejoin:miter;stroke-opacity:1;stroke-miterlimit:4;stroke-dasharray:10.58333352,10.58333352;stroke-dashoffset:0"
       d="M -229.1359,396.87501 V 0"
       id="path4081" />
    <path
       style="fill:none;stroke:#ff0000;stroke-width:1.30572;stroke-linecap:butt;stroke-linejoin:miter;stroke-miterlimit:4;stroke-dasharray:none;stroke-opacity:1"
       d="m -229.1614,344.08102 66.65616,-13.85422 0,52.79929"
       id="path4083" />
    <path
       style="fill:none;stroke:#ff0000;stroke-width:1.32292;stroke-linecap:butt;stroke-linejoin:miter;stroke-miterlimit:4;stroke-dasharray:none;stroke-opacity:1;marker-start:url(#marker2901);marker-end:url(#marker2789)"
       d="m -229.1359,0 c -87.43125,67.151558 -104.15858,321.86243 0,396.87501"
       id="path4215"
       sodipodi:nodetypes="cc" />
    <path
       style="fill:#ff0000;stroke:#ff0000;stroke-width:1.32291669;stroke-linecap:butt;stroke-linejoin:miter;stroke-opacity:1;stroke-miterlimit:4;stroke-dasharray:none"
       d="M 343.70384,277.81251 -229.1359,396.87501"
       id="path4337" />
    <text
       xml:space="preserve"
       style="font-size:10.5833px;line-height:1.25;font-family:sans-serif;letter-spacing:0px;word-spacing:0px;fill:#ff0000;stroke:#ff0000;stroke-width:0.264583"
       x="-231.45081"
       y="613.12286"
       id="text4465"><tspan
         sodipodi:role="line"
         id="tspan4463"
         x="-231.45081"
         y="613.12286"
         style="font-size:50.8px;fill:#ff0000;stroke:#ff0000;stroke-width:0.264583">N</tspan></text>
  </g>
  <g
     inkscape:label="antenas"
     inkscape:groupmode="layer"
     id="layer1"
     style="display:inline"
     sodipodi:insensitive="true">
    <g
       id="g847-6-3-4-8"
       style="stroke-width:1.98437;stroke-miterlimit:4;stroke-dasharray:none"
       transform="matrix(2.0000005,0,0,2.0000005,114.56793,-66.145889)">
      <path
         style="fill:none;stroke:#000000;stroke-width:1.98437;stroke-linecap:butt;stroke-linejoin:miter;stroke-miterlimit:4;stroke-dasharray:none;stroke-opacity:1"
         d="M 114.56793,92.604173 V 66.145845 L 126.02472,46.3021"
         id="path841-9-8-6-5"
         sodipodi:nodetypes="ccc" />
      <path
         style="fill:none;stroke:#000000;stroke-width:1.98437;stroke-linecap:butt;stroke-linejoin:miter;stroke-miterlimit:4;stroke-dasharray:none;stroke-opacity:1"
         d="M 114.56793,46.302096 V 66.145842 L 103.11113,46.3021"
         id="path843-4-2-9-9"
         sodipodi:nodetypes="ccc" />
    </g>
    <g
       id="g847-6-3-4-8-9"
       style="display:inline;stroke-width:1.98437;stroke-miterlimit:4;stroke-dasharray:none"
       transform="matrix(2.0000005,0,0,2.0000005,206.22228,-13.229221)">
      <path
         style="fill:none;stroke:#000000;stroke-width:1.98437;stroke-linecap:butt;stroke-linejoin:miter;stroke-miterlimit:4;stroke-dasharray:none;stroke-opacity:1"
         d="M 114.56793,92.604173 V 66.145845 L 126.02472,46.3021"
         id="path841-9-8-6-5-0"
         sodipodi:nodetypes="ccc" />
      <path
         style="fill:none;stroke:#000000;stroke-width:1.98437;stroke-linecap:butt;stroke-linejoin:miter;stroke-miterlimit:4;stroke-dasharray:none;stroke-opacity:1"
         d="M 114.56793,46.302096 V 66.145842 L 103.11113,46.3021"
         id="path843-4-2-9-9-9"
         sodipodi:nodetypes="ccc" />
    </g>
    <g
       id="g847-6-3-4-8-4"
       style="display:inline;stroke-width:1.98437;stroke-miterlimit:4;stroke-dasharray:none"
       transform="matrix(2.0000005,0,0,2.0000005,297.87664,39.687447)">
      <path
         style="fill:none;stroke:#000000;stroke-width:1.98437;stroke-linecap:butt;stroke-linejoin:miter;stroke-miterlimit:4;stroke-dasharray:none;stroke-opacity:1"
         d="M 114.56793,92.604173 V 66.145845 L 126.02472,46.3021"
         id="path841-9-8-6-5-5"
         sodipodi:nodetypes="ccc" />
      <path
         style="fill:none;stroke:#000000;stroke-width:1.98437;stroke-linecap:butt;stroke-linejoin:miter;stroke-miterlimit:4;stroke-dasharray:none;stroke-opacity:1"
         d="M 114.56793,46.302096 V 66.145842 L 103.11113,46.3021"
         id="path843-4-2-9-9-7"
         sodipodi:nodetypes="ccc" />
    </g>
    <g
       id="g847-6-3-4-8-6"
       style="display:inline;stroke-width:1.98437;stroke-miterlimit:4;stroke-dasharray:none"
       transform="matrix(2.0000005,0,0,2.0000005,389.531,92.604116)">
      <path
         style="fill:none;stroke:#000000;stroke-width:1.98437;stroke-linecap:butt;stroke-linejoin:miter;stroke-miterlimit:4;stroke-dasharray:none;stroke-opacity:1"
         d="M 114.56793,92.604173 V 66.145845 L 126.02472,46.3021"
         id="path841-9-8-6-5-7"
         sodipodi:nodetypes="ccc" />
      <path
         style="fill:none;stroke:#000000;stroke-width:1.98437;stroke-linecap:butt;stroke-linejoin:miter;stroke-miterlimit:4;stroke-dasharray:none;stroke-opacity:1"
         d="M 114.56793,46.302096 V 66.145842 L 103.11113,46.3021"
         id="path843-4-2-9-9-8"
         sodipodi:nodetypes="ccc" />
    </g>
    <g
       id="g847-6-3-4-8-91"
       style="display:inline;stroke-width:1.98437;stroke-miterlimit:4;stroke-dasharray:none"
       transform="matrix(2.0000005,0,0,2.0000005,22.913561,-13.229214)">
      <path
         style="fill:none;stroke:#000000;stroke-width:1.98437;stroke-linecap:butt;stroke-linejoin:miter;stroke-miterlimit:4;stroke-dasharray:none;stroke-opacity:1"
         d="M 114.56793,92.604173 V 66.145845 L 126.02472,46.3021"
         id="path841-9-8-6-5-1"
         sodipodi:nodetypes="ccc" />
      <path
         style="fill:none;stroke:#000000;stroke-width:1.98437;stroke-linecap:butt;stroke-linejoin:miter;stroke-miterlimit:4;stroke-dasharray:none;stroke-opacity:1"
         d="M 114.56793,46.302096 V 66.145842 L 103.11113,46.3021"
         id="path843-4-2-9-9-2"
         sodipodi:nodetypes="ccc" />
    </g>
    <g
       id="g847-6-3-4-8-9-6"
       style="display:inline;stroke-width:1.98437;stroke-miterlimit:4;stroke-dasharray:none"
       transform="matrix(2.0000005,0,0,2.0000005,114.56791,39.687456)">
      <path
         style="fill:none;stroke:#000000;stroke-width:1.98437;stroke-linecap:butt;stroke-linejoin:miter;stroke-miterlimit:4;stroke-dasharray:none;stroke-opacity:1"
         d="M 114.56793,92.604173 V 66.145845 L 126.02472,46.3021"
         id="path841-9-8-6-5-0-4"
         sodipodi:nodetypes="ccc" />
      <path
         style="fill:none;stroke:#000000;stroke-width:1.98437;stroke-linecap:butt;stroke-linejoin:miter;stroke-miterlimit:4;stroke-dasharray:none;stroke-opacity:1"
         d="M 114.56793,46.302096 V 66.145842 L 103.11113,46.3021"
         id="path843-4-2-9-9-9-9"
         sodipodi:nodetypes="ccc" />
    </g>
    <g
       id="g847-6-3-4-8-4-5"
       style="display:inline;stroke-width:1.98437;stroke-miterlimit:4;stroke-dasharray:none"
       transform="matrix(2.0000005,0,0,2.0000005,206.22228,92.604116)">
      <path
         style="fill:none;stroke:#000000;stroke-width:1.98437;stroke-linecap:butt;stroke-linejoin:miter;stroke-miterlimit:4;stroke-dasharray:none;stroke-opacity:1"
         d="M 114.56793,92.604173 V 66.145845 L 126.02472,46.3021"
         id="path841-9-8-6-5-5-6"
         sodipodi:nodetypes="ccc" />
      <path
         style="fill:none;stroke:#000000;stroke-width:1.98437;stroke-linecap:butt;stroke-linejoin:miter;stroke-miterlimit:4;stroke-dasharray:none;stroke-opacity:1"
         d="M 114.56793,46.302096 V 66.145842 L 103.11113,46.3021"
         id="path843-4-2-9-9-7-3"
         sodipodi:nodetypes="ccc" />
    </g>
    <g
       id="g847-6-3-4-8-6-6"
       style="display:inline;stroke-width:1.98437;stroke-miterlimit:4;stroke-dasharray:none"
       transform="matrix(2.0000005,0,0,2.0000005,297.87663,145.52079)">
      <path
         style="fill:none;stroke:#000000;stroke-width:1.98437;stroke-linecap:butt;stroke-linejoin:miter;stroke-miterlimit:4;stroke-dasharray:none;stroke-opacity:1"
         d="M 114.56793,92.604173 V 66.145845 L 126.02472,46.3021"
         id="path841-9-8-6-5-7-7"
         sodipodi:nodetypes="ccc" />
      <path
         style="fill:none;stroke:#000000;stroke-width:1.98437;stroke-linecap:butt;stroke-linejoin:miter;stroke-miterlimit:4;stroke-dasharray:none;stroke-opacity:1"
         d="M 114.56793,46.302096 V 66.145842 L 103.11113,46.3021"
         id="path843-4-2-9-9-8-8"
         sodipodi:nodetypes="ccc" />
    </g>
    <g
       id="g847-6-3-4-8-8"
       style="display:inline;stroke-width:1.98437;stroke-miterlimit:4;stroke-dasharray:none"
       transform="matrix(2.0000005,0,0,2.0000005,-68.740806,39.687444)">
      <path
         style="fill:none;stroke:#000000;stroke-width:1.98437;stroke-linecap:butt;stroke-linejoin:miter;stroke-miterlimit:4;stroke-dasharray:none;stroke-opacity:1"
         d="M 114.56793,92.604173 V 66.145845 L 126.02472,46.3021"
         id="path841-9-8-6-5-3"
         sodipodi:nodetypes="ccc" />
      <path
         style="fill:none;stroke:#000000;stroke-width:1.98437;stroke-linecap:butt;stroke-linejoin:miter;stroke-miterlimit:4;stroke-dasharray:none;stroke-opacity:1"
         d="M 114.56793,46.302096 V 66.145842 L 103.11113,46.3021"
         id="path843-4-2-9-9-87"
         sodipodi:nodetypes="ccc" />
    </g>
    <g
       id="g847-6-3-4-8-9-63"
       style="display:inline;stroke-width:1.98437;stroke-miterlimit:4;stroke-dasharray:none"
       transform="matrix(2.0000005,0,0,2.0000005,22.913544,92.604114)">
      <path
         style="fill:none;stroke:#000000;stroke-width:1.98437;stroke-linecap:butt;stroke-linejoin:miter;stroke-miterlimit:4;stroke-dasharray:none;stroke-opacity:1"
         d="M 114.56793,92.604173 V 66.145845 L 126.02472,46.3021"
         id="path841-9-8-6-5-0-6"
         sodipodi:nodetypes="ccc" />
      <path
         style="fill:none;stroke:#000000;stroke-width:1.98437;stroke-linecap:butt;stroke-linejoin:miter;stroke-miterlimit:4;stroke-dasharray:none;stroke-opacity:1"
         d="M 114.56793,46.302096 V 66.145842 L 103.11113,46.3021"
         id="path843-4-2-9-9-9-91"
         sodipodi:nodetypes="ccc" />
    </g>
    <g
       id="g847-6-3-4-8-4-0"
       style="display:inline;stroke-width:1.98437;stroke-miterlimit:4;stroke-dasharray:none"
       transform="matrix(2.0000005,0,0,2.0000005,114.56792,145.52078)">
      <path
         style="fill:none;stroke:#000000;stroke-width:1.98437;stroke-linecap:butt;stroke-linejoin:miter;stroke-miterlimit:4;stroke-dasharray:none;stroke-opacity:1"
         d="M 114.56793,92.604173 V 66.145845 L 126.02472,46.3021"
         id="path841-9-8-6-5-5-2"
         sodipodi:nodetypes="ccc" />
      <path
         style="fill:none;stroke:#000000;stroke-width:1.98437;stroke-linecap:butt;stroke-linejoin:miter;stroke-miterlimit:4;stroke-dasharray:none;stroke-opacity:1"
         d="M 114.56793,46.302096 V 66.145842 L 103.11113,46.3021"
         id="path843-4-2-9-9-7-0"
         sodipodi:nodetypes="ccc" />
    </g>
    <g
       id="g847-6-3-4-8-6-1"
       style="display:inline;stroke-width:1.98437;stroke-miterlimit:4;stroke-dasharray:none"
       transform="matrix(2.0000005,0,0,2.0000005,206.22226,198.43744)">
      <path
         style="fill:none;stroke:#000000;stroke-width:1.98437;stroke-linecap:butt;stroke-linejoin:miter;stroke-miterlimit:4;stroke-dasharray:none;stroke-opacity:1"
         d="M 114.56793,92.604173 V 66.145845 L 126.02472,46.3021"
         id="path841-9-8-6-5-7-1"
         sodipodi:nodetypes="ccc" />
      <path
         style="fill:none;stroke:#000000;stroke-width:1.98437;stroke-linecap:butt;stroke-linejoin:miter;stroke-miterlimit:4;stroke-dasharray:none;stroke-opacity:1"
         d="M 114.56793,46.302096 V 66.145842 L 103.11113,46.3021"
         id="path843-4-2-9-9-8-5"
         sodipodi:nodetypes="ccc" />
    </g>
    <g
       id="g847-6-3-4-8-68"
       style="display:inline;stroke-width:1.98437;stroke-miterlimit:4;stroke-dasharray:none"
       transform="matrix(2.0000005,0,0,2.0000005,-160.39516,92.604112)">
      <path
         style="fill:none;stroke:#000000;stroke-width:1.98437;stroke-linecap:butt;stroke-linejoin:miter;stroke-miterlimit:4;stroke-dasharray:none;stroke-opacity:1"
         d="M 114.56793,92.604173 V 66.145845 L 126.02472,46.3021"
         id="path841-9-8-6-5-8"
         sodipodi:nodetypes="ccc" />
      <path
         style="fill:none;stroke:#000000;stroke-width:1.98437;stroke-linecap:butt;stroke-linejoin:miter;stroke-miterlimit:4;stroke-dasharray:none;stroke-opacity:1"
         d="M 114.56793,46.302096 V 66.145842 L 103.11113,46.3021"
         id="path843-4-2-9-9-0"
         sodipodi:nodetypes="ccc" />
    </g>
    <g
       id="g847-6-3-4-8-9-3"
       style="display:inline;stroke-width:1.98437;stroke-miterlimit:4;stroke-dasharray:none"
       transform="matrix(2.0000005,0,0,2.0000005,-68.740811,145.52078)">
      <path
         style="fill:none;stroke:#000000;stroke-width:1.98437;stroke-linecap:butt;stroke-linejoin:miter;stroke-miterlimit:4;stroke-dasharray:none;stroke-opacity:1"
         d="M 114.56793,92.604173 V 66.145845 L 126.02472,46.3021"
         id="path841-9-8-6-5-0-9"
         sodipodi:nodetypes="ccc" />
      <path
         style="fill:none;stroke:#000000;stroke-width:1.98437;stroke-linecap:butt;stroke-linejoin:miter;stroke-miterlimit:4;stroke-dasharray:none;stroke-opacity:1"
         d="M 114.56793,46.302096 V 66.145842 L 103.11113,46.3021"
         id="path843-4-2-9-9-9-3"
         sodipodi:nodetypes="ccc" />
    </g>
    <g
       id="g847-6-3-4-8-4-9"
       style="display:inline;stroke-width:1.98437;stroke-miterlimit:4;stroke-dasharray:none"
       transform="matrix(2.0000005,0,0,2.0000005,22.913566,198.43745)">
      <path
         style="fill:none;stroke:#000000;stroke-width:1.98437;stroke-linecap:butt;stroke-linejoin:miter;stroke-miterlimit:4;stroke-dasharray:none;stroke-opacity:1"
         d="M 114.56793,92.604173 V 66.145845 L 126.02472,46.3021"
         id="path841-9-8-6-5-5-5"
         sodipodi:nodetypes="ccc" />
      <path
         style="fill:none;stroke:#000000;stroke-width:1.98437;stroke-linecap:butt;stroke-linejoin:miter;stroke-miterlimit:4;stroke-dasharray:none;stroke-opacity:1"
         d="M 114.56793,46.302096 V 66.145842 L 103.11113,46.3021"
         id="path843-4-2-9-9-7-31"
         sodipodi:nodetypes="ccc" />
    </g>
    <g
       id="g847-6-3-4-8-6-4"
       style="display:inline;stroke-width:1.98437;stroke-miterlimit:4;stroke-dasharray:none"
       transform="matrix(2.0000005,0,0,2.0000005,114.56791,251.35412)">
      <path
         style="fill:none;stroke:#000000;stroke-width:1.98437;stroke-linecap:butt;stroke-linejoin:miter;stroke-miterlimit:4;stroke-dasharray:none;stroke-opacity:1"
         d="M 114.56793,92.604173 V 66.145845 L 126.02472,46.3021"
         id="path841-9-8-6-5-7-6"
         sodipodi:nodetypes="ccc" />
      <path
         style="fill:none;stroke:#000000;stroke-width:1.98437;stroke-linecap:butt;stroke-linejoin:miter;stroke-miterlimit:4;stroke-dasharray:none;stroke-opacity:1"
         d="M 114.56793,46.302096 V 66.145842 L 103.11113,46.3021"
         id="path843-4-2-9-9-8-58"
         sodipodi:nodetypes="ccc" />
    </g>
  </g>
</svg>
