<?xml version="1.0" encoding="UTF-8" standalone="no"?>
<svg
   xmlns:dc="http://purl.org/dc/elements/1.1/"
   xmlns:cc="http://creativecommons.org/ns#"
   xmlns:rdf="http://www.w3.org/1999/02/22-rdf-syntax-ns#"
   xmlns:svg="http://www.w3.org/2000/svg"
   xmlns="http://www.w3.org/2000/svg"
   xmlns:xlink="http://www.w3.org/1999/xlink"
   xmlns:sodipodi="http://sodipodi.sourceforge.net/DTD/sodipodi-0.dtd"
   xmlns:inkscape="http://www.inkscape.org/namespaces/inkscape"
   width="1920"
   height="1080"
   viewBox="0 0 508 285.75"
   version="1.1"
   id="svg8"
   sodipodi:docname="uca_3D.svg"
   inkscape:version="1.0.1 (3bc2e813f5, 2020-09-07)"
   inkscape:export-filename="D:\Users\grigo\Google Drive\Facultad\Balseiro\PI Lucas\git-repository\digital-beamforming\Tesis\images\02-Beamforming\uca_3d.png"
   inkscape:export-xdpi="299.97272"
   inkscape:export-ydpi="299.97272">
  <defs
     id="defs2">
    <marker
       style="overflow:visible"
       id="marker1967"
       refX="0.0"
       refY="0.0"
       orient="auto"
       inkscape:stockid="Arrow1Mstart"
       inkscape:isstock="true">
      <path
         transform="scale(0.4) translate(10,0)"
         style="fill-rule:evenodd;stroke:#000000;stroke-width:1pt;stroke-opacity:1;fill:#000000;fill-opacity:1"
         d="M 0.0,0.0 L 5.0,-5.0 L -12.5,0.0 L 5.0,5.0 L 0.0,0.0 z "
         id="path1965" />
    </marker>
    <marker
       style="overflow:visible;"
       id="Arrow1Mend"
       refX="0.0"
       refY="0.0"
       orient="auto"
       inkscape:stockid="Arrow1Mend"
       inkscape:isstock="true">
      <path
         transform="scale(0.4) rotate(180) translate(10,0)"
         style="fill-rule:evenodd;stroke:#000000;stroke-width:1pt;stroke-opacity:1;fill:#000000;fill-opacity:1"
         d="M 0.0,0.0 L 5.0,-5.0 L -12.5,0.0 L 5.0,5.0 L 0.0,0.0 z "
         id="path952" />
    </marker>
    <marker
       style="overflow:visible"
       id="marker1829"
       refX="0.0"
       refY="0.0"
       orient="auto"
       inkscape:stockid="Arrow1Mstart"
       inkscape:isstock="true">
      <path
         transform="scale(0.4) translate(10,0)"
         style="fill-rule:evenodd;stroke:#000000;stroke-width:1pt;stroke-opacity:1;fill:#000000;fill-opacity:1"
         d="M 0.0,0.0 L 5.0,-5.0 L -12.5,0.0 L 5.0,5.0 L 0.0,0.0 z "
         id="path1827" />
    </marker>
    <marker
       style="overflow:visible"
       id="marker1771"
       refX="0.0"
       refY="0.0"
       orient="auto"
       inkscape:stockid="Arrow1Mstart"
       inkscape:isstock="true"
       inkscape:collect="always">
      <path
         transform="scale(0.4) translate(10,0)"
         style="fill-rule:evenodd;stroke:#000000;stroke-width:1pt;stroke-opacity:1;fill:#ffffff;fill-opacity:1"
         d="M 0.0,0.0 L 5.0,-5.0 L -12.5,0.0 L 5.0,5.0 L 0.0,0.0 z "
         id="path1769" />
    </marker>
    <marker
       style="overflow:visible;"
       id="marker1707"
       refX="0.0"
       refY="0.0"
       orient="auto"
       inkscape:stockid="Arrow1Lend"
       inkscape:isstock="true">
      <path
         transform="scale(0.8) rotate(180) translate(12.5,0)"
         style="fill-rule:evenodd;stroke:#000000;stroke-width:1pt;stroke-opacity:1;fill:#000000;fill-opacity:1"
         d="M 0.0,0.0 L 5.0,-5.0 L -12.5,0.0 L 5.0,5.0 L 0.0,0.0 z "
         id="path1705" />
    </marker>
    <marker
       style="overflow:visible"
       id="marker1649"
       refX="0.0"
       refY="0.0"
       orient="auto"
       inkscape:stockid="Arrow1Lstart"
       inkscape:isstock="true">
      <path
         transform="scale(0.8) translate(12.5,0)"
         style="fill-rule:evenodd;stroke:#000000;stroke-width:1pt;stroke-opacity:1;fill:#000000;fill-opacity:1"
         d="M 0.0,0.0 L 5.0,-5.0 L -12.5,0.0 L 5.0,5.0 L 0.0,0.0 z "
         id="path1647" />
    </marker>
    <marker
       style="overflow:visible"
       id="marker1503"
       refX="0.0"
       refY="0.0"
       orient="auto"
       inkscape:stockid="Arrow1Lstart"
       inkscape:isstock="true"
       inkscape:collect="always">
      <path
         transform="scale(0.8) translate(12.5,0)"
         style="fill-rule:evenodd;stroke:#000000;stroke-width:1pt;stroke-opacity:1;fill:#000000;fill-opacity:1"
         d="M 0.0,0.0 L 5.0,-5.0 L -12.5,0.0 L 5.0,5.0 L 0.0,0.0 z "
         id="path1501" />
    </marker>
    <marker
       style="overflow:visible;"
       id="marker1279"
       refX="0.0"
       refY="0.0"
       orient="auto"
       inkscape:stockid="Arrow1Lend"
       inkscape:isstock="true"
       inkscape:collect="always">
      <path
         transform="scale(0.8) rotate(180) translate(12.5,0)"
         style="fill-rule:evenodd;stroke:#000000;stroke-width:1pt;stroke-opacity:1;fill:#000000;fill-opacity:1"
         d="M 0.0,0.0 L 5.0,-5.0 L -12.5,0.0 L 5.0,5.0 L 0.0,0.0 z "
         id="path1277" />
    </marker>
    <marker
       style="overflow:visible"
       id="Arrow1Lstart"
       refX="0.0"
       refY="0.0"
       orient="auto"
       inkscape:stockid="Arrow1Lstart"
       inkscape:isstock="true"
       inkscape:collect="always">
      <path
         transform="scale(0.8) translate(12.5,0)"
         style="fill-rule:evenodd;stroke:#000000;stroke-width:1pt;stroke-opacity:1;fill:#000000;fill-opacity:1"
         d="M 0.0,0.0 L 5.0,-5.0 L -12.5,0.0 L 5.0,5.0 L 0.0,0.0 z "
         id="path943" />
    </marker>
    <marker
       style="overflow:visible;"
       id="Arrow1Lend"
       refX="0.0"
       refY="0.0"
       orient="auto"
       inkscape:stockid="Arrow1Lend"
       inkscape:isstock="true"
       inkscape:collect="always">
      <path
         transform="scale(0.8) rotate(180) translate(12.5,0)"
         style="fill-rule:evenodd;stroke:#000000;stroke-width:1pt;stroke-opacity:1;fill:#000000;fill-opacity:1"
         d="M 0.0,0.0 L 5.0,-5.0 L -12.5,0.0 L 5.0,5.0 L 0.0,0.0 z "
         id="path946" />
    </marker>
    <marker
       style="overflow:visible"
       id="Arrow1Mstart"
       refX="0.0"
       refY="0.0"
       orient="auto"
       inkscape:stockid="Arrow1Mstart"
       inkscape:isstock="true">
      <path
         transform="scale(0.4) translate(10,0)"
         style="fill-rule:evenodd;stroke:#000000;stroke-width:1pt;stroke-opacity:1;fill:#000000;fill-opacity:1"
         d="M 0.0,0.0 L 5.0,-5.0 L -12.5,0.0 L 5.0,5.0 L 0.0,0.0 z "
         id="path949" />
    </marker>
    <g
       id="g8363">
      <symbol
         overflow="visible"
         id="symbol9935">
        <path
           style="stroke:none;"
           d=""
           id="path4487" />
      </symbol>
      <symbol
         overflow="visible"
         id="symbol5131">
        <path
           style="stroke:none;"
           d="M 4.53125 -4.984375 C 4.53125 -5.640625 4.359375 -7.03125 3.34375 -7.03125 C 1.953125 -7.03125 0.421875 -4.21875 0.421875 -1.9375 C 0.421875 -1 0.703125 0.109375 1.609375 0.109375 C 3.015625 0.109375 4.53125 -2.75 4.53125 -4.984375 Z M 1.46875 -3.625 C 1.640625 -4.25 1.84375 -5.046875 2.25 -5.765625 C 2.515625 -6.25 2.875 -6.8125 3.328125 -6.8125 C 3.8125 -6.8125 3.875 -6.171875 3.875 -5.609375 C 3.875 -5.109375 3.796875 -4.609375 3.5625 -3.625 Z M 3.46875 -3.296875 C 3.359375 -2.84375 3.15625 -2 2.765625 -1.28125 C 2.421875 -0.59375 2.046875 -0.109375 1.609375 -0.109375 C 1.28125 -0.109375 1.078125 -0.40625 1.078125 -1.328125 C 1.078125 -1.75 1.140625 -2.328125 1.390625 -3.296875 Z M 3.46875 -3.296875 "
           id="path8819" />
      </symbol>
    </g>
    <g
       id="g5311">
      <symbol
         overflow="visible"
         id="symbol8931">
        <path
           style="stroke:none;"
           d=""
           id="path3940" />
      </symbol>
      <symbol
         overflow="visible"
         id="symbol1203">
        <path
           style="stroke:none;"
           d="M 1.6875 1.6875 C 1.65625 1.828125 1.640625 1.84375 1.640625 1.890625 C 1.640625 2.109375 1.828125 2.171875 1.9375 2.171875 C 1.984375 2.171875 2.203125 2.140625 2.296875 1.90625 C 2.328125 1.828125 2.375 1.5 2.65625 0.09375 C 2.734375 0.09375 2.8125 0.109375 2.984375 0.109375 C 4.640625 0.109375 6.171875 -1.453125 6.171875 -3.03125 C 6.171875 -3.8125 5.78125 -4.40625 5.03125 -4.40625 C 3.59375 -4.40625 2.984375 -2.46875 2.390625 -0.53125 C 1.3125 -0.734375 0.75 -1.28125 0.75 -2 C 0.75 -2.28125 0.984375 -3.375 1.578125 -4.0625 C 1.671875 -4.15625 1.671875 -4.171875 1.671875 -4.203125 C 1.671875 -4.234375 1.640625 -4.296875 1.546875 -4.296875 C 1.265625 -4.296875 0.5 -2.84375 0.5 -1.890625 C 0.5 -0.953125 1.15625 -0.234375 2.21875 0.015625 Z M 3.078125 -0.46875 C 2.984375 -0.46875 2.96875 -0.46875 2.890625 -0.484375 C 2.765625 -0.484375 2.765625 -0.484375 2.765625 -0.515625 C 2.765625 -0.53125 2.9375 -1.453125 2.953125 -1.59375 C 3.265625 -2.875 4.046875 -3.828125 4.9375 -3.828125 C 5.625 -3.828125 5.890625 -3.296875 5.890625 -2.8125 C 5.890625 -1.6875 4.609375 -0.46875 3.078125 -0.46875 Z M 3.078125 -0.46875 "
           id="path7944" />
      </symbol>
    </g>
    <g
       id="g4168">
      <symbol
         overflow="visible"
         id="symbol7853">
        <path
           style="stroke:none;"
           d=""
           id="path8772" />
      </symbol>
      <symbol
         overflow="visible"
         id="symbol5987">
        <path
           style="stroke:none;"
           d="M 3.515625 -1.265625 L 3.28125 -1.265625 C 3.265625 -1.109375 3.1875 -0.703125 3.09375 -0.640625 C 3.046875 -0.59375 2.515625 -0.59375 2.40625 -0.59375 L 1.125 -0.59375 C 1.859375 -1.234375 2.109375 -1.4375 2.515625 -1.765625 C 3.03125 -2.171875 3.515625 -2.609375 3.515625 -3.265625 C 3.515625 -4.109375 2.78125 -4.625 1.890625 -4.625 C 1.03125 -4.625 0.4375 -4.015625 0.4375 -3.375 C 0.4375 -3.03125 0.734375 -2.984375 0.8125 -2.984375 C 0.96875 -2.984375 1.171875 -3.109375 1.171875 -3.359375 C 1.171875 -3.484375 1.125 -3.734375 0.765625 -3.734375 C 0.984375 -4.21875 1.453125 -4.375 1.78125 -4.375 C 2.484375 -4.375 2.84375 -3.828125 2.84375 -3.265625 C 2.84375 -2.65625 2.40625 -2.1875 2.1875 -1.9375 L 0.515625 -0.265625 C 0.4375 -0.203125 0.4375 -0.1875 0.4375 0 L 3.3125 0 Z M 3.515625 -1.265625 "
           id="path9376" />
      </symbol>
      <symbol
         overflow="visible"
         id="symbol9801">
        <path
           style="stroke:none;"
           d=""
           id="path2906" />
      </symbol>
      <symbol
         overflow="visible"
         id="symbol5000">
        <path
           style="stroke:none;"
           d="M 2.171875 -2.53125 L 3 -2.53125 C 2.890625 -2.109375 2.734375 -1.484375 2.734375 -0.921875 C 2.734375 -0.640625 2.78125 -0.453125 2.8125 -0.3125 C 2.921875 0.046875 3.015625 0.0625 3.125 0.0625 C 3.296875 0.0625 3.453125 -0.078125 3.453125 -0.25 C 3.453125 -0.296875 3.4375 -0.328125 3.40625 -0.390625 C 3.265625 -0.65625 3.140625 -1.046875 3.140625 -1.625 C 3.140625 -1.75 3.140625 -2.03125 3.234375 -2.53125 L 4.109375 -2.53125 C 4.234375 -2.53125 4.296875 -2.53125 4.375 -2.578125 C 4.46875 -2.65625 4.484375 -2.765625 4.484375 -2.796875 C 4.484375 -3 4.3125 -3 4.1875 -3 L 1.5625 -3 C 1.28125 -3 1.078125 -2.9375 0.765625 -2.640625 C 0.578125 -2.484375 0.3125 -2.109375 0.3125 -2.046875 C 0.3125 -1.96875 0.40625 -1.96875 0.4375 -1.96875 C 0.515625 -1.96875 0.515625 -1.984375 0.5625 -2.046875 C 0.90625 -2.53125 1.34375 -2.53125 1.5 -2.53125 L 1.921875 -2.53125 C 1.703125 -1.765625 1.328125 -0.9375 1.125 -0.515625 C 1.078125 -0.4375 1.015625 -0.28125 0.984375 -0.265625 C 0.984375 -0.234375 0.96875 -0.203125 0.96875 -0.15625 C 0.96875 -0.046875 1.046875 0.0625 1.21875 0.0625 C 1.484375 0.0625 1.5625 -0.25 1.734375 -0.875 Z M 2.171875 -2.53125 "
           id="path7867" />
      </symbol>
      <symbol
         overflow="visible"
         id="symbol5060">
        <path
           style="stroke:none;"
           d="M 7.109375 -4.1875 C 7.171875 -4.453125 7.1875 -4.515625 7.703125 -4.515625 C 7.859375 -4.515625 7.9375 -4.515625 7.9375 -4.65625 C 7.9375 -4.765625 7.859375 -4.765625 7.734375 -4.765625 L 6.78125 -4.765625 C 6.578125 -4.765625 6.578125 -4.75 6.484375 -4.625 L 3.796875 -0.640625 L 3.109375 -4.578125 C 3.078125 -4.75 3.078125 -4.765625 2.859375 -4.765625 L 1.875 -4.765625 C 1.734375 -4.765625 1.640625 -4.765625 1.640625 -4.609375 C 1.640625 -4.515625 1.71875 -4.515625 1.875 -4.515625 C 1.984375 -4.515625 2.015625 -4.515625 2.140625 -4.5 C 2.28125 -4.484375 2.296875 -4.46875 2.296875 -4.390625 C 2.296875 -4.390625 2.296875 -4.34375 2.265625 -4.25 L 1.390625 -0.75 C 1.328125 -0.515625 1.21875 -0.265625 0.65625 -0.25 C 0.609375 -0.25 0.515625 -0.25 0.515625 -0.09375 C 0.515625 -0.09375 0.515625 0 0.625 0 C 0.828125 0 1.125 -0.03125 1.34375 -0.03125 C 1.515625 -0.03125 1.921875 0 2.078125 0 C 2.125 0 2.21875 0 2.21875 -0.15625 C 2.21875 -0.25 2.125 -0.25 2.0625 -0.25 C 1.625 -0.265625 1.625 -0.453125 1.625 -0.546875 C 1.625 -0.578125 1.625 -0.609375 1.65625 -0.71875 L 2.578125 -4.421875 L 3.328125 -0.1875 C 3.359375 -0.0625 3.359375 0 3.46875 0 C 3.5625 0 3.625 -0.078125 3.671875 -0.15625 L 6.59375 -4.5 L 6.609375 -4.484375 L 5.625 -0.546875 C 5.5625 -0.3125 5.546875 -0.25 5.015625 -0.25 C 4.890625 -0.25 4.796875 -0.25 4.796875 -0.09375 C 4.796875 -0.09375 4.796875 0 4.90625 0 C 5.046875 0 5.203125 -0.015625 5.34375 -0.015625 C 5.484375 -0.015625 5.640625 -0.03125 5.78125 -0.03125 C 5.984375 -0.03125 6.46875 0 6.671875 0 C 6.703125 0 6.8125 0 6.8125 -0.15625 C 6.8125 -0.25 6.734375 -0.25 6.59375 -0.25 C 6.578125 -0.25 6.453125 -0.25 6.328125 -0.265625 C 6.171875 -0.28125 6.171875 -0.296875 6.171875 -0.375 C 6.171875 -0.40625 6.1875 -0.484375 6.1875 -0.515625 Z M 7.109375 -4.1875 "
           id="path4486" />
      </symbol>
    </g>
    <g
       id="g8925">
      <symbol
         overflow="visible"
         id="symbol6654">
        <path
           style="stroke:none;"
           d=""
           id="path5314" />
      </symbol>
      <symbol
         overflow="visible"
         id="symbol8956">
        <path
           style="stroke:none;"
           d="M 3.734375 -6.125 C 3.796875 -6.359375 3.828125 -6.453125 4.015625 -6.484375 C 4.109375 -6.5 4.421875 -6.5 4.625 -6.5 C 5.328125 -6.5 6.4375 -6.5 6.4375 -5.515625 C 6.4375 -5.171875 6.28125 -4.484375 5.890625 -4.09375 C 5.625 -3.84375 5.109375 -3.515625 4.203125 -3.515625 L 3.09375 -3.515625 Z M 5.171875 -3.390625 C 6.1875 -3.609375 7.359375 -4.3125 7.359375 -5.3125 C 7.359375 -6.171875 6.46875 -6.8125 5.15625 -6.8125 L 2.328125 -6.8125 C 2.125 -6.8125 2.03125 -6.8125 2.03125 -6.609375 C 2.03125 -6.5 2.125 -6.5 2.3125 -6.5 C 2.328125 -6.5 2.515625 -6.5 2.6875 -6.484375 C 2.875 -6.453125 2.953125 -6.453125 2.953125 -6.3125 C 2.953125 -6.28125 2.953125 -6.25 2.921875 -6.125 L 1.578125 -0.78125 C 1.484375 -0.390625 1.46875 -0.3125 0.671875 -0.3125 C 0.5 -0.3125 0.40625 -0.3125 0.40625 -0.109375 C 0.40625 0 0.53125 0 0.546875 0 C 0.828125 0 1.53125 -0.03125 1.796875 -0.03125 C 2.078125 -0.03125 2.796875 0 3.078125 0 C 3.15625 0 3.265625 0 3.265625 -0.203125 C 3.265625 -0.3125 3.1875 -0.3125 2.984375 -0.3125 C 2.625 -0.3125 2.34375 -0.3125 2.34375 -0.484375 C 2.34375 -0.546875 2.359375 -0.59375 2.375 -0.65625 L 3.03125 -3.296875 L 4.21875 -3.296875 C 5.125 -3.296875 5.296875 -2.734375 5.296875 -2.390625 C 5.296875 -2.25 5.21875 -1.9375 5.15625 -1.703125 C 5.09375 -1.421875 5 -1.0625 5 -0.859375 C 5 0.21875 6.203125 0.21875 6.328125 0.21875 C 7.171875 0.21875 7.53125 -0.78125 7.53125 -0.921875 C 7.53125 -1.046875 7.421875 -1.046875 7.40625 -1.046875 C 7.3125 -1.046875 7.296875 -0.984375 7.28125 -0.90625 C 7.03125 -0.171875 6.59375 0 6.375 0 C 6.046875 0 5.96875 -0.21875 5.96875 -0.609375 C 5.96875 -0.921875 6.03125 -1.421875 6.078125 -1.75 C 6.09375 -1.890625 6.109375 -2.078125 6.109375 -2.21875 C 6.109375 -2.984375 5.4375 -3.296875 5.171875 -3.390625 Z M 5.171875 -3.390625 "
           id="path4925" />
      </symbol>
    </g>
    <g
       id="g390">
      <symbol
         overflow="visible"
         id="symbol8794">
        <path
           style="stroke:none;"
           d=""
           id="path4556" />
      </symbol>
      <symbol
         overflow="visible"
         id="symbol9134">
        <path
           style="stroke:none;"
           d="M 3.328125 -3.015625 C 3.390625 -3.265625 3.625 -4.1875 4.3125 -4.1875 C 4.359375 -4.1875 4.609375 -4.1875 4.8125 -4.0625 C 4.53125 -4 4.34375 -3.765625 4.34375 -3.515625 C 4.34375 -3.359375 4.453125 -3.171875 4.71875 -3.171875 C 4.9375 -3.171875 5.25 -3.34375 5.25 -3.75 C 5.25 -4.265625 4.671875 -4.40625 4.328125 -4.40625 C 3.75 -4.40625 3.40625 -3.875 3.28125 -3.65625 C 3.03125 -4.3125 2.5 -4.40625 2.203125 -4.40625 C 1.171875 -4.40625 0.59375 -3.125 0.59375 -2.875 C 0.59375 -2.765625 0.703125 -2.765625 0.71875 -2.765625 C 0.796875 -2.765625 0.828125 -2.796875 0.84375 -2.875 C 1.1875 -3.9375 1.84375 -4.1875 2.1875 -4.1875 C 2.375 -4.1875 2.71875 -4.09375 2.71875 -3.515625 C 2.71875 -3.203125 2.546875 -2.546875 2.1875 -1.140625 C 2.03125 -0.53125 1.671875 -0.109375 1.234375 -0.109375 C 1.171875 -0.109375 0.953125 -0.109375 0.734375 -0.234375 C 0.984375 -0.296875 1.203125 -0.5 1.203125 -0.78125 C 1.203125 -1.046875 0.984375 -1.125 0.84375 -1.125 C 0.53125 -1.125 0.296875 -0.875 0.296875 -0.546875 C 0.296875 -0.09375 0.78125 0.109375 1.21875 0.109375 C 1.890625 0.109375 2.25 -0.59375 2.265625 -0.640625 C 2.390625 -0.28125 2.75 0.109375 3.34375 0.109375 C 4.375 0.109375 4.9375 -1.171875 4.9375 -1.421875 C 4.9375 -1.53125 4.859375 -1.53125 4.828125 -1.53125 C 4.734375 -1.53125 4.71875 -1.484375 4.6875 -1.421875 C 4.359375 -0.34375 3.6875 -0.109375 3.375 -0.109375 C 2.984375 -0.109375 2.828125 -0.421875 2.828125 -0.765625 C 2.828125 -0.984375 2.875 -1.203125 2.984375 -1.640625 Z M 3.328125 -3.015625 "
           id="path7566" />
      </symbol>
    </g>
    <g
       id="g2937">
      <symbol
         overflow="visible"
         id="symbol2954">
        <path
           style="stroke:none;"
           d=""
           id="path5927" />
      </symbol>
      <symbol
         overflow="visible"
         id="symbol5469">
        <path
           style="stroke:none;"
           d="M 4.84375 -3.796875 C 4.890625 -3.9375 4.890625 -3.953125 4.890625 -4.03125 C 4.890625 -4.203125 4.75 -4.296875 4.59375 -4.296875 C 4.5 -4.296875 4.34375 -4.234375 4.25 -4.09375 C 4.234375 -4.03125 4.140625 -3.734375 4.109375 -3.546875 C 4.03125 -3.296875 3.96875 -3.015625 3.90625 -2.75 L 3.453125 -0.953125 C 3.421875 -0.8125 2.984375 -0.109375 2.328125 -0.109375 C 1.828125 -0.109375 1.71875 -0.546875 1.71875 -0.921875 C 1.71875 -1.375 1.890625 -2 2.21875 -2.875 C 2.375 -3.28125 2.421875 -3.390625 2.421875 -3.59375 C 2.421875 -4.03125 2.109375 -4.40625 1.609375 -4.40625 C 0.65625 -4.40625 0.296875 -2.953125 0.296875 -2.875 C 0.296875 -2.765625 0.390625 -2.765625 0.40625 -2.765625 C 0.515625 -2.765625 0.515625 -2.796875 0.5625 -2.953125 C 0.84375 -3.890625 1.234375 -4.1875 1.578125 -4.1875 C 1.65625 -4.1875 1.828125 -4.1875 1.828125 -3.875 C 1.828125 -3.625 1.71875 -3.359375 1.65625 -3.171875 C 1.25 -2.109375 1.078125 -1.546875 1.078125 -1.078125 C 1.078125 -0.1875 1.703125 0.109375 2.296875 0.109375 C 2.6875 0.109375 3.015625 -0.0625 3.296875 -0.34375 C 3.171875 0.171875 3.046875 0.671875 2.65625 1.203125 C 2.390625 1.53125 2.015625 1.828125 1.5625 1.828125 C 1.421875 1.828125 0.96875 1.796875 0.796875 1.40625 C 0.953125 1.40625 1.09375 1.40625 1.21875 1.28125 C 1.328125 1.203125 1.421875 1.0625 1.421875 0.875 C 1.421875 0.5625 1.15625 0.53125 1.0625 0.53125 C 0.828125 0.53125 0.5 0.6875 0.5 1.171875 C 0.5 1.671875 0.9375 2.046875 1.5625 2.046875 C 2.578125 2.046875 3.609375 1.140625 3.890625 0.015625 Z M 4.84375 -3.796875 "
           id="path9100" />
      </symbol>
    </g>
    <g
       id="g517">
      <symbol
         overflow="visible"
         id="symbol6625">
        <path
           style="stroke:none;"
           d=""
           id="path6695" />
      </symbol>
      <symbol
         overflow="visible"
         id="symbol9504">
        <path
           style="stroke:none;"
           d="M 1.328125 -0.828125 C 1.859375 -1.40625 2.15625 -1.65625 2.515625 -1.96875 C 2.515625 -1.96875 3.125 -2.5 3.484375 -2.859375 C 4.4375 -3.78125 4.65625 -4.265625 4.65625 -4.3125 C 4.65625 -4.40625 4.5625 -4.40625 4.546875 -4.40625 C 4.46875 -4.40625 4.453125 -4.390625 4.390625 -4.296875 C 4.09375 -3.8125 3.890625 -3.65625 3.65625 -3.65625 C 3.40625 -3.65625 3.296875 -3.8125 3.140625 -3.984375 C 2.953125 -4.203125 2.78125 -4.40625 2.453125 -4.40625 C 1.703125 -4.40625 1.25 -3.484375 1.25 -3.265625 C 1.25 -3.21875 1.28125 -3.15625 1.359375 -3.15625 C 1.453125 -3.15625 1.46875 -3.203125 1.5 -3.265625 C 1.6875 -3.734375 2.265625 -3.734375 2.34375 -3.734375 C 2.546875 -3.734375 2.734375 -3.671875 2.96875 -3.59375 C 3.375 -3.4375 3.484375 -3.4375 3.734375 -3.4375 C 3.375 -3.015625 2.546875 -2.296875 2.359375 -2.140625 L 1.453125 -1.296875 C 0.78125 -0.625 0.421875 -0.0625 0.421875 0.015625 C 0.421875 0.109375 0.53125 0.109375 0.546875 0.109375 C 0.625 0.109375 0.640625 0.09375 0.703125 -0.015625 C 0.9375 -0.375 1.234375 -0.640625 1.5625 -0.640625 C 1.78125 -0.640625 1.890625 -0.546875 2.140625 -0.265625 C 2.296875 -0.046875 2.484375 0.109375 2.765625 0.109375 C 3.765625 0.109375 4.34375 -1.15625 4.34375 -1.421875 C 4.34375 -1.46875 4.296875 -1.53125 4.21875 -1.53125 C 4.125 -1.53125 4.109375 -1.46875 4.078125 -1.390625 C 3.84375 -0.75 3.203125 -0.5625 2.875 -0.5625 C 2.6875 -0.5625 2.5 -0.625 2.296875 -0.6875 C 1.953125 -0.8125 1.796875 -0.859375 1.59375 -0.859375 C 1.578125 -0.859375 1.421875 -0.859375 1.328125 -0.828125 Z M 1.328125 -0.828125 "
           id="path1881" />
      </symbol>
    </g>
    <g
       id="g4125">
      <symbol
         overflow="visible"
         id="symbol3754">
        <path
           style="stroke:none;"
           d=""
           id="path12" />
      </symbol>
      <symbol
         overflow="visible"
         id="symbol7630">
        <path
           style="stroke:none;"
           d="M 4.578125 -3.1875 C 4.578125 -3.984375 4.53125 -4.78125 4.1875 -5.515625 C 3.734375 -6.484375 2.90625 -6.640625 2.5 -6.640625 C 1.890625 -6.640625 1.171875 -6.375 0.75 -5.453125 C 0.4375 -4.765625 0.390625 -3.984375 0.390625 -3.1875 C 0.390625 -2.4375 0.421875 -1.546875 0.84375 -0.78125 C 1.265625 0.015625 2 0.21875 2.484375 0.21875 C 3.015625 0.21875 3.78125 0.015625 4.21875 -0.9375 C 4.53125 -1.625 4.578125 -2.40625 4.578125 -3.1875 Z M 2.484375 0 C 2.09375 0 1.5 -0.25 1.328125 -1.203125 C 1.21875 -1.796875 1.21875 -2.71875 1.21875 -3.3125 C 1.21875 -3.953125 1.21875 -4.609375 1.296875 -5.140625 C 1.484375 -6.328125 2.234375 -6.421875 2.484375 -6.421875 C 2.8125 -6.421875 3.46875 -6.234375 3.65625 -5.25 C 3.765625 -4.6875 3.765625 -3.9375 3.765625 -3.3125 C 3.765625 -2.5625 3.765625 -1.890625 3.65625 -1.25 C 3.5 -0.296875 2.9375 0 2.484375 0 Z M 2.484375 0 "
           id="path9597" />
      </symbol>
    </g>
    <g
       id="g6922">
      <symbol
         overflow="visible"
         id="symbol8216">
        <path
           style="stroke:none;"
           d=""
           id="path8324" />
      </symbol>
      <symbol
         overflow="visible"
         id="symbol7559">
        <path
           style="stroke:none;"
           d="M 2.9375 -6.375 C 2.9375 -6.625 2.9375 -6.640625 2.703125 -6.640625 C 2.078125 -6 1.203125 -6 0.890625 -6 L 0.890625 -5.6875 C 1.09375 -5.6875 1.671875 -5.6875 2.1875 -5.953125 L 2.1875 -0.78125 C 2.1875 -0.421875 2.15625 -0.3125 1.265625 -0.3125 L 0.953125 -0.3125 L 0.953125 0 C 1.296875 -0.03125 2.15625 -0.03125 2.5625 -0.03125 C 2.953125 -0.03125 3.828125 -0.03125 4.171875 0 L 4.171875 -0.3125 L 3.859375 -0.3125 C 2.953125 -0.3125 2.9375 -0.421875 2.9375 -0.78125 Z M 2.9375 -6.375 "
           id="path5821" />
      </symbol>
    </g>
    <g
       id="g3473">
      <symbol
         overflow="visible"
         id="symbol1316">
        <path
           style="stroke:none;"
           d=""
           id="path8296" />
      </symbol>
      <symbol
         overflow="visible"
         id="symbol1294">
        <path
           style="stroke:none;"
           d="M 9.234375 -6.046875 C 9.328125 -6.40625 9.34375 -6.5 10.09375 -6.5 C 10.3125 -6.5 10.40625 -6.5 10.40625 -6.703125 C 10.40625 -6.8125 10.3125 -6.8125 10.140625 -6.8125 L 8.828125 -6.8125 C 8.5625 -6.8125 8.546875 -6.8125 8.4375 -6.625 L 4.796875 -0.9375 L 4.015625 -6.578125 C 3.984375 -6.8125 3.96875 -6.8125 3.703125 -6.8125 L 2.34375 -6.8125 C 2.15625 -6.8125 2.046875 -6.8125 2.046875 -6.625 C 2.046875 -6.5 2.140625 -6.5 2.328125 -6.5 C 2.46875 -6.5 2.640625 -6.484375 2.765625 -6.484375 C 2.921875 -6.453125 2.984375 -6.4375 2.984375 -6.3125 C 2.984375 -6.28125 2.96875 -6.25 2.9375 -6.125 L 1.671875 -1.0625 C 1.578125 -0.65625 1.40625 -0.34375 0.59375 -0.3125 C 0.546875 -0.3125 0.421875 -0.296875 0.421875 -0.125 C 0.421875 -0.03125 0.484375 0 0.5625 0 C 0.875 0 1.21875 -0.03125 1.5625 -0.03125 C 1.890625 -0.03125 2.25 0 2.578125 0 C 2.625 0 2.765625 0 2.765625 -0.203125 C 2.765625 -0.3125 2.65625 -0.3125 2.578125 -0.3125 C 2.015625 -0.3125 1.90625 -0.515625 1.90625 -0.75 C 1.90625 -0.8125 1.90625 -0.875 1.9375 -0.984375 L 3.296875 -6.40625 L 3.3125 -6.40625 L 4.171875 -0.234375 C 4.1875 -0.109375 4.203125 0 4.3125 0 C 4.421875 0 4.484375 -0.109375 4.53125 -0.171875 L 8.5625 -6.484375 L 8.578125 -6.484375 L 7.140625 -0.78125 C 7.046875 -0.390625 7.03125 -0.3125 6.234375 -0.3125 C 6.078125 -0.3125 5.96875 -0.3125 5.96875 -0.125 C 5.96875 0 6.078125 0 6.109375 0 C 6.390625 0 7.0625 -0.03125 7.34375 -0.03125 C 7.75 -0.03125 8.1875 0 8.59375 0 C 8.65625 0 8.78125 0 8.78125 -0.203125 C 8.78125 -0.3125 8.6875 -0.3125 8.5 -0.3125 C 8.140625 -0.3125 7.859375 -0.3125 7.859375 -0.484375 C 7.859375 -0.53125 7.859375 -0.546875 7.90625 -0.734375 Z M 9.234375 -6.046875 "
           id="path3631" />
      </symbol>
      <symbol
         overflow="visible"
         id="symbol9969">
        <path
           style="stroke:none;"
           d=""
           id="path6425" />
      </symbol>
      <symbol
         overflow="visible"
         id="symbol2769">
        <path
           style="stroke:none;"
           d="M 6.5625 -2.296875 C 6.734375 -2.296875 6.921875 -2.296875 6.921875 -2.5 C 6.921875 -2.6875 6.734375 -2.6875 6.5625 -2.6875 L 1.171875 -2.6875 C 1 -2.6875 0.828125 -2.6875 0.828125 -2.5 C 0.828125 -2.296875 1 -2.296875 1.171875 -2.296875 Z M 6.5625 -2.296875 "
           id="path3919" />
      </symbol>
      <symbol
         overflow="visible"
         id="symbol6769">
        <path
           style="stroke:none;"
           d=""
           id="path5433" />
      </symbol>
      <symbol
         overflow="visible"
         id="symbol8761">
        <path
           style="stroke:none;"
           d="M 2.9375 -6.375 C 2.9375 -6.625 2.9375 -6.640625 2.703125 -6.640625 C 2.078125 -6 1.203125 -6 0.890625 -6 L 0.890625 -5.6875 C 1.09375 -5.6875 1.671875 -5.6875 2.1875 -5.953125 L 2.1875 -0.78125 C 2.1875 -0.421875 2.15625 -0.3125 1.265625 -0.3125 L 0.953125 -0.3125 L 0.953125 0 C 1.296875 -0.03125 2.15625 -0.03125 2.5625 -0.03125 C 2.953125 -0.03125 3.828125 -0.03125 4.171875 0 L 4.171875 -0.3125 L 3.859375 -0.3125 C 2.953125 -0.3125 2.9375 -0.421875 2.9375 -0.78125 Z M 2.9375 -6.375 "
           id="path3867" />
      </symbol>
    </g>
    <g
       id="g4882">
      <symbol
         overflow="visible"
         id="symbol2096">
        <path
           style="stroke:none;"
           d=""
           id="path2799" />
      </symbol>
      <symbol
         overflow="visible"
         id="symbol86">
        <path
           style="stroke:none;"
           d="M 4.28125 -5.578125 L 4.28125 -5.875 L 0.6875 -5.875 L 0.6875 -5.578125 Z M 4.28125 -5.578125 "
           id="path9626" />
      </symbol>
      <symbol
         overflow="visible"
         id="symbol4483">
        <path
           style="stroke:none;"
           d=""
           id="path1518" />
      </symbol>
      <symbol
         overflow="visible"
         id="symbol967">
        <path
           style="stroke:none;"
           d="M 2.859375 -6.8125 C 2.859375 -6.8125 2.859375 -6.921875 2.734375 -6.921875 C 2.5 -6.921875 1.78125 -6.84375 1.515625 -6.8125 C 1.4375 -6.8125 1.328125 -6.796875 1.328125 -6.625 C 1.328125 -6.5 1.421875 -6.5 1.5625 -6.5 C 2.046875 -6.5 2.0625 -6.4375 2.0625 -6.328125 L 2.03125 -6.125 L 0.59375 -0.390625 C 0.546875 -0.25 0.546875 -0.234375 0.546875 -0.171875 C 0.546875 0.0625 0.75 0.109375 0.84375 0.109375 C 0.96875 0.109375 1.109375 0.015625 1.171875 -0.09375 C 1.21875 -0.1875 1.671875 -2.03125 1.734375 -2.28125 C 2.078125 -2.25 2.890625 -2.09375 2.890625 -1.4375 C 2.890625 -1.359375 2.890625 -1.328125 2.859375 -1.21875 C 2.84375 -1.109375 2.828125 -0.984375 2.828125 -0.875 C 2.828125 -0.296875 3.21875 0.109375 3.734375 0.109375 C 4.03125 0.109375 4.3125 -0.046875 4.53125 -0.421875 C 4.78125 -0.859375 4.890625 -1.40625 4.890625 -1.421875 C 4.890625 -1.53125 4.796875 -1.53125 4.765625 -1.53125 C 4.671875 -1.53125 4.65625 -1.484375 4.625 -1.34375 C 4.421875 -0.625 4.203125 -0.109375 3.765625 -0.109375 C 3.5625 -0.109375 3.4375 -0.21875 3.4375 -0.578125 C 3.4375 -0.75 3.484375 -0.984375 3.515625 -1.140625 C 3.5625 -1.3125 3.5625 -1.34375 3.5625 -1.453125 C 3.5625 -2.09375 2.9375 -2.375 2.078125 -2.5 C 2.390625 -2.671875 2.71875 -2.984375 2.9375 -3.234375 C 3.421875 -3.765625 3.875 -4.1875 4.359375 -4.1875 C 4.421875 -4.1875 4.4375 -4.1875 4.453125 -4.171875 C 4.578125 -4.15625 4.578125 -4.15625 4.671875 -4.09375 C 4.6875 -4.09375 4.6875 -4.078125 4.703125 -4.0625 C 4.234375 -4.03125 4.140625 -3.640625 4.140625 -3.515625 C 4.140625 -3.359375 4.25 -3.171875 4.515625 -3.171875 C 4.78125 -3.171875 5.0625 -3.390625 5.0625 -3.78125 C 5.0625 -4.078125 4.828125 -4.40625 4.390625 -4.40625 C 4.109375 -4.40625 3.65625 -4.328125 2.9375 -3.53125 C 2.59375 -3.15625 2.203125 -2.75 1.828125 -2.609375 Z M 2.859375 -6.8125 "
           id="path2983" />
      </symbol>
    </g>
    <marker
       style="overflow:visible"
       id="marker1771-2"
       refX="0"
       refY="0"
       orient="auto"
       inkscape:stockid="Arrow1Mstart"
       inkscape:isstock="true"
       inkscape:collect="always">
      <path
         transform="matrix(0.4,0,0,0.4,4,0)"
         style="fill:#000000;fill-opacity:1;fill-rule:evenodd;stroke:#000000;stroke-width:1pt;stroke-opacity:1"
         d="M 0,0 5,-5 -12.5,0 5,5 Z"
         id="path1769-4" />
    </marker>
  </defs>
  <sodipodi:namedview
     id="base"
     pagecolor="#ffffff"
     bordercolor="#666666"
     borderopacity="1.0"
     inkscape:pageopacity="0.0"
     inkscape:pageshadow="2"
     inkscape:zoom="2.8"
     inkscape:cx="27.123066"
     inkscape:cy="546.75781"
     inkscape:document-units="mm"
     inkscape:current-layer="layer1"
     inkscape:document-rotation="0"
     showgrid="true"
     units="px"
     showborder="false"
     inkscape:snap-grids="false"
     inkscape:snap-global="true"
     inkscape:window-width="1920"
     inkscape:window-height="1017"
     inkscape:window-x="-8"
     inkscape:window-y="-8"
     inkscape:window-maximized="1"
     inkscape:object-paths="true"
     inkscape:snap-intersection-paths="true"
     inkscape:snap-bbox="true">
    <inkscape:grid
       type="axonomgrid"
       id="grid833"
       gridanglex="30"
       gridanglez="30"
       spacingy="10" />
  </sodipodi:namedview>
  <metadata
     id="metadata5">
    <rdf:RDF>
      <cc:Work
         rdf:about="">
        <dc:format>image/svg+xml</dc:format>
        <dc:type
           rdf:resource="http://purl.org/dc/dcmitype/StillImage" />
        <dc:title />
      </cc:Work>
    </rdf:RDF>
  </metadata>
  <g
     inkscape:label="Layer 1"
     inkscape:groupmode="layer"
     id="layer1">
    <ellipse
       style="fill:none;fill-rule:evenodd;stroke:#999999;stroke-width:0.3;stroke-linecap:round;stroke-linejoin:round;stroke-miterlimit:4;stroke-dasharray:1.8,1.8;paint-order:markers stroke fill;stroke-dashoffset:0"
       id="path841"
       cx="-0.036006931"
       cy="150.10826"
       rx="61.051723"
       ry="35.248226" />
    <g
       id="g5536-3-3-8-2-1"
       transform="translate(-175.59294,55.9375)"
       style="stroke-width:0.529167;stroke-miterlimit:4;stroke-dasharray:none">
      <path
         style="fill:none;stroke:#000000;stroke-width:0.529167;stroke-linecap:butt;stroke-linejoin:miter;stroke-miterlimit:4;stroke-dasharray:none;stroke-opacity:1"
         d="m 132.29167,111.125 5.29167,-5.29167"
         id="path4870-2-9-0-3-6-19" />
      <path
         style="fill:none;stroke:#000000;stroke-width:0.529167;stroke-linecap:butt;stroke-linejoin:miter;stroke-miterlimit:4;stroke-dasharray:none;stroke-opacity:1"
         d="m 132.29167,111.125 -5.29166,-5.29167"
         id="path4872-6-9-8-7-8-1" />
      <path
         style="fill:none;stroke:#000000;stroke-width:0.529167;stroke-linecap:butt;stroke-linejoin:miter;stroke-miterlimit:4;stroke-dasharray:none;stroke-opacity:1"
         d="M 132.29167,119.0625 V 105.83333"
         id="path4876-5-2-2-7-1-0" />
    </g>
    <g
       id="g5536-3-3-8-2-1-8"
       transform="translate(-88.9904,5.9375)"
       style="stroke-width:0.529167;stroke-miterlimit:4;stroke-dasharray:none">
      <path
         style="fill:none;stroke:#000000;stroke-width:0.529167;stroke-linecap:butt;stroke-linejoin:miter;stroke-miterlimit:4;stroke-dasharray:none;stroke-opacity:1"
         d="m 132.29167,111.125 5.29167,-5.29167"
         id="path4870-2-9-0-3-6-19-4" />
      <path
         style="fill:none;stroke:#000000;stroke-width:0.529167;stroke-linecap:butt;stroke-linejoin:miter;stroke-miterlimit:4;stroke-dasharray:none;stroke-opacity:1"
         d="m 132.29167,111.125 -5.29166,-5.29167"
         id="path4872-6-9-8-7-8-1-1" />
      <path
         style="fill:none;stroke:#000000;stroke-width:0.529167;stroke-linecap:butt;stroke-linejoin:miter;stroke-miterlimit:4;stroke-dasharray:none;stroke-opacity:1"
         d="M 132.29167,119.0625 V 105.83333"
         id="path4876-5-2-2-7-1-0-9" />
    </g>
    <g
       id="g5536-3-3-8-2-1-88"
       transform="translate(-88.9904,55.9375)"
       style="stroke-width:0.529167;stroke-miterlimit:4;stroke-dasharray:none">
      <path
         style="fill:none;stroke:#000000;stroke-width:0.529167;stroke-linecap:butt;stroke-linejoin:miter;stroke-miterlimit:4;stroke-dasharray:none;stroke-opacity:1"
         d="m 132.29167,111.125 5.29167,-5.29167"
         id="path4870-2-9-0-3-6-19-8" />
      <path
         style="fill:none;stroke:#000000;stroke-width:0.529167;stroke-linecap:butt;stroke-linejoin:miter;stroke-miterlimit:4;stroke-dasharray:none;stroke-opacity:1"
         d="m 132.29167,111.125 -5.29166,-5.29167"
         id="path4872-6-9-8-7-8-1-9" />
      <path
         style="fill:none;stroke:#000000;stroke-width:0.529167;stroke-linecap:butt;stroke-linejoin:miter;stroke-miterlimit:4;stroke-dasharray:none;stroke-opacity:1"
         d="M 132.29167,119.0625 V 105.83333"
         id="path4876-5-2-2-7-1-0-8" />
    </g>
    <g
       id="g5536-3-3-8-2-1-80"
       transform="translate(-175.59294,5.9375)"
       style="stroke-width:0.529167;stroke-miterlimit:4;stroke-dasharray:none">
      <path
         style="fill:none;stroke:#000000;stroke-width:0.529167;stroke-linecap:butt;stroke-linejoin:miter;stroke-miterlimit:4;stroke-dasharray:none;stroke-opacity:1"
         d="m 132.29167,111.125 5.29167,-5.29167"
         id="path4870-2-9-0-3-6-19-49" />
      <path
         style="fill:none;stroke:#000000;stroke-width:0.529167;stroke-linecap:butt;stroke-linejoin:miter;stroke-miterlimit:4;stroke-dasharray:none;stroke-opacity:1"
         d="m 132.29167,111.125 -5.29166,-5.29167"
         id="path4872-6-9-8-7-8-1-3" />
      <path
         style="fill:none;stroke:#000000;stroke-width:0.529167;stroke-linecap:butt;stroke-linejoin:miter;stroke-miterlimit:4;stroke-dasharray:none;stroke-opacity:1"
         d="M 132.29167,119.0625 V 105.83333"
         id="path4876-5-2-2-7-1-0-6" />
    </g>
    <g
       id="g5536-3-3-8-2-1-1"
       transform="translate(-132.29167,-3.770833)"
       style="stroke-width:0.529167;stroke-miterlimit:4;stroke-dasharray:none">
      <path
         style="fill:none;stroke:#000000;stroke-width:0.529167;stroke-linecap:butt;stroke-linejoin:miter;stroke-miterlimit:4;stroke-dasharray:none;stroke-opacity:1"
         d="m 132.29167,111.125 5.29167,-5.29167"
         id="path4870-2-9-0-3-6-19-2" />
      <path
         style="fill:none;stroke:#000000;stroke-width:0.529167;stroke-linecap:butt;stroke-linejoin:miter;stroke-miterlimit:4;stroke-dasharray:none;stroke-opacity:1"
         d="m 132.29167,111.125 -5.29166,-5.29167"
         id="path4872-6-9-8-7-8-1-7" />
      <path
         style="fill:none;stroke:#000000;stroke-width:0.529167;stroke-linecap:butt;stroke-linejoin:miter;stroke-miterlimit:4;stroke-dasharray:none;stroke-opacity:1"
         d="M 132.29167,119.0625 V 105.83333"
         id="path4876-5-2-2-7-1-0-4" />
    </g>
    <g
       id="g5536-3-3-8-2-1-5"
       transform="translate(-132.29167,66.22917)"
       style="stroke-width:0.529167;stroke-miterlimit:4;stroke-dasharray:none">
      <path
         style="fill:none;stroke:#000000;stroke-width:0.529167;stroke-linecap:butt;stroke-linejoin:miter;stroke-miterlimit:4;stroke-dasharray:none;stroke-opacity:1"
         d="m 132.29167,111.125 5.29167,-5.29167"
         id="path4870-2-9-0-3-6-19-0" />
      <path
         style="fill:none;stroke:#000000;stroke-width:0.529167;stroke-linecap:butt;stroke-linejoin:miter;stroke-miterlimit:4;stroke-dasharray:none;stroke-opacity:1"
         d="m 132.29167,111.125 -5.29166,-5.29167"
         id="path4872-6-9-8-7-8-1-73" />
      <path
         style="fill:none;stroke:#000000;stroke-width:0.529167;stroke-linecap:butt;stroke-linejoin:miter;stroke-miterlimit:4;stroke-dasharray:none;stroke-opacity:1"
         d="M 132.29167,119.0625 V 105.83333"
         id="path4876-5-2-2-7-1-0-7" />
    </g>
    <g
       id="g5536-3-3-8-2-1-9"
       transform="translate(-193.44262,30.9375)"
       style="stroke-width:0.529167;stroke-miterlimit:4;stroke-dasharray:none">
      <path
         style="fill:none;stroke:#000000;stroke-width:0.529167;stroke-linecap:butt;stroke-linejoin:miter;stroke-miterlimit:4;stroke-dasharray:none;stroke-opacity:1"
         d="m 132.29167,111.125 5.29167,-5.29167"
         id="path4870-2-9-0-3-6-19-7" />
      <path
         style="fill:none;stroke:#000000;stroke-width:0.529167;stroke-linecap:butt;stroke-linejoin:miter;stroke-miterlimit:4;stroke-dasharray:none;stroke-opacity:1"
         d="m 132.29167,111.125 -5.29166,-5.29167"
         id="path4872-6-9-8-7-8-1-0" />
      <path
         style="fill:none;stroke:#000000;stroke-width:0.529167;stroke-linecap:butt;stroke-linejoin:miter;stroke-miterlimit:4;stroke-dasharray:none;stroke-opacity:1"
         d="M 132.29167,119.0625 V 105.83333"
         id="path4876-5-2-2-7-1-0-75" />
    </g>
    <g
       id="g5536-3-3-8-2-1-6"
       transform="translate(-71.334307,30.9375)"
       style="stroke-width:0.529167;stroke-miterlimit:4;stroke-dasharray:none">
      <path
         style="fill:none;stroke:#000000;stroke-width:0.529167;stroke-linecap:butt;stroke-linejoin:miter;stroke-miterlimit:4;stroke-dasharray:none;stroke-opacity:1"
         d="m 132.29167,111.125 5.29167,-5.29167"
         id="path4870-2-9-0-3-6-19-5" />
      <path
         style="fill:none;stroke:#000000;stroke-width:0.529167;stroke-linecap:butt;stroke-linejoin:miter;stroke-miterlimit:4;stroke-dasharray:none;stroke-opacity:1"
         d="m 132.29167,111.125 -5.29166,-5.29167"
         id="path4872-6-9-8-7-8-1-8" />
      <path
         style="fill:none;stroke:#000000;stroke-width:0.529167;stroke-linecap:butt;stroke-linejoin:miter;stroke-miterlimit:4;stroke-dasharray:none;stroke-opacity:1"
         d="M 132.29167,119.0625 V 105.83333"
         id="path4876-5-2-2-7-1-0-74" />
    </g>
    <path
       style="fill:none;stroke:#000000;stroke-width:0.264583px;stroke-linecap:butt;stroke-linejoin:miter;stroke-opacity:1;marker-start:url(#Arrow1Lstart);marker-end:url(#Arrow1Lend)"
       d="M 34.641016,170 0,150 -34.641016,170"
       id="path939"
       sodipodi:nodetypes="ccc" />
    <path
       style="fill:none;stroke:#000000;stroke-width:0.264583px;stroke-linecap:butt;stroke-linejoin:miter;stroke-opacity:1;marker-end:url(#marker1279)"
       d="M 0,150 V 120"
       id="path941" />
    <path
       style="fill:none;stroke:#000000;stroke-width:0.26458299;stroke-linecap:butt;stroke-linejoin:miter;stroke-opacity:1;stroke-miterlimit:4;stroke-dasharray:0.79374896,0.79374896;stroke-dashoffset:0"
       d="m 0,150 8.660254,15"
       id="path1371" />
    <path
       style="fill:none;stroke:#000000;stroke-width:0.26458299;stroke-linecap:butt;stroke-linejoin:miter;stroke-opacity:1;stroke-miterlimit:4;stroke-dasharray:1.05833194,1.05833194;stroke-dashoffset:0"
       d="m 8.660254,135 v 30"
       id="path1373" />
    <path
       id="path1485"
       style="fill:none;fill-rule:evenodd;stroke:#000000;stroke-width:0.265;stroke-linecap:round;stroke-linejoin:round;stroke-miterlimit:4;stroke-dasharray:none;stroke-dashoffset:0;paint-order:markers stroke fill;marker-end:url(#Arrow1Mend)"
       d="M 5.0988118,158.8314 0.05003632,150.08681 -11.240393,156.60476 A 15.967256,9.218699 0 0 0 0.05003632,159.30493 15.967256,9.218699 0 0 0 5.0988118,158.8314 Z" />
    <path
       style="fill:none;stroke:#000000;stroke-width:0.264583px;stroke-linecap:butt;stroke-linejoin:miter;stroke-opacity:1"
       d="M -8.660254,155 0,150"
       id="path1487" />
    <g
       inkscape:label=""
       transform="matrix(0.45605701,0,0,0.45605701,-45.268987,118.61975)"
       id="g1631">
      <g
         id="g9543">
        <g
           style="fill:#000000;fill-opacity:1"
           id="g1098">
          <use
             xlink:href="#symbol1203"
             x="91.925003"
             y="81.962997"
             id="use856"
             width="100%"
             height="100%" />
        </g>
      </g>
    </g>
    <path
       style="fill:#ffffff;fill-rule:evenodd;stroke:#000000;stroke-width:0.265;stroke-linecap:round;stroke-linejoin:round;stroke-miterlimit:4;stroke-dasharray:none;stroke-dashoffset:0;paint-order:markers stroke fill;marker-start:url(#marker1771)"
       id="path1645"
       sodipodi:type="arc"
       sodipodi:cx="0"
       sodipodi:cy="150"
       sodipodi:rx="7.2108088"
       sodipodi:ry="12.489487"
       sodipodi:start="5.4977871"
       sodipodi:end="0.78539816"
       sodipodi:arc-type="slice"
       d="M 5.0988115,141.1686 A 7.2108088,12.489487 0 0 1 7.2108088,150 7.2108088,12.489487 0 0 1 5.0988118,158.8314 L 0,150 Z" />
    <path
       style="fill:none;stroke:#000000;stroke-width:0.264583px;stroke-linecap:butt;stroke-linejoin:miter;stroke-opacity:1"
       d="M 0.05003632,150.08681 -61.150949,150"
       id="path2065" />
    <path
       style="fill:none;fill-rule:evenodd;stroke:#000000;stroke-width:0.264999;stroke-linecap:round;stroke-linejoin:round;stroke-miterlimit:4;stroke-dasharray:none;stroke-dashoffset:0;paint-order:markers stroke fill"
       id="path2075"
       sodipodi:type="arc"
       sodipodi:cx="0.050036319"
       sodipodi:cy="150.08682"
       sodipodi:rx="27.478725"
       sodipodi:ry="12.546698"
       sodipodi:start="2.2514747"
       sodipodi:end="3.1415927"
       sodipodi:arc-type="slice"
       d="m -17.242885,159.83744 a 27.478725,12.546698 0 0 1 -10.185804,-9.75062 H 0.05003632 Z" />
    <g
       inkscape:label=""
       transform="matrix(0.56064431,0,0,0.56064431,-70.797999,109.46314)"
       id="g2183">
      <g
         id="g1029">
        <g
           style="fill:#000000;fill-opacity:1"
           id="g397">
          <use
             xlink:href="#symbol5987"
             x="93.121002"
             y="78.040001"
             id="use8404"
             width="100%"
             height="100%" />
        </g>
        <g
           style="fill:#000000;fill-opacity:1"
           id="g5633">
          <use
             xlink:href="#symbol5000"
             x="97.092003"
             y="78.040001"
             id="use6755"
             width="100%"
             height="100%" />
        </g>
        <path
           style="fill:none;stroke:#000000;stroke-width:0.398;stroke-linecap:butt;stroke-linejoin:miter;stroke-miterlimit:10;stroke-opacity:1"
           d="M 9.375e-5,-6.5625e-4 H 8.879"
           transform="matrix(1,0,0,-1,93.121,79.472)"
           id="path1578" />
        <g
           style="fill:#000000;fill-opacity:1"
           id="g6318">
          <use
             xlink:href="#symbol5060"
             x="93.388"
             y="85.398003"
             id="use5545"
             width="100%"
             height="100%" />
        </g>
      </g>
    </g>
    <g
       inkscape:label=""
       transform="translate(-126.44421,66.121774)"
       id="g2323">
      <g
         id="g100">
        <g
           style="fill:#000000;fill-opacity:1"
           id="g298">
          <use
             xlink:href="#symbol8956"
             x="91.925003"
             y="81.962997"
             id="use472"
             width="100%"
             height="100%" />
        </g>
      </g>
    </g>
    <g
       inkscape:label=""
       transform="matrix(0.80006644,0,0,0.80006644,-106.94347,108.48856)"
       id="g2461">
      <g
         id="g8273">
        <g
           style="fill:#000000;fill-opacity:1"
           id="g6732">
          <use
             xlink:href="#symbol9134"
             x="91.925003"
             y="81.962997"
             id="use7458"
             width="100%"
             height="100%" />
        </g>
      </g>
    </g>
    <g
       inkscape:label=""
       transform="matrix(0.7999845,0,0,0.7999845,-41.989414,99.541386)"
       id="g2608">
      <g
         id="g993">
        <g
           style="fill:#000000;fill-opacity:1"
           id="g6025">
          <use
             xlink:href="#symbol5469"
             x="91.925003"
             y="81.962997"
             id="use178"
             width="100%"
             height="100%" />
        </g>
      </g>
    </g>
    <g
       inkscape:label=""
       transform="matrix(0.80006644,0,0,0.80006644,-79.256078,57.573714)"
       id="g2764">
      <g
         id="g2279">
        <g
           style="fill:#000000;fill-opacity:1"
           id="g2862">
          <use
             xlink:href="#symbol9504"
             x="91.925003"
             y="81.962997"
             id="use727"
             width="100%"
             height="100%" />
        </g>
      </g>
    </g>
    <g
       inkscape:label=""
       transform="matrix(0.79995626,0,0,0.79995626,-118.8754,116.67504)"
       id="g2929">
      <g
         id="g1636">
        <g
           style="fill:#000000;fill-opacity:1"
           id="g1239">
          <use
             xlink:href="#symbol7630"
             x="91.925003"
             y="81.962997"
             id="use311"
             width="100%"
             height="100%" />
        </g>
      </g>
    </g>
    <g
       inkscape:label=""
       transform="matrix(0.80004518,0,0,0.80004518,-75.387058,127.72369)"
       id="g3103">
      <g
         id="g8092">
        <g
           style="fill:#000000;fill-opacity:1"
           id="g5235">
          <use
             xlink:href="#symbol7559"
             x="91.925003"
             y="81.962997"
             id="use3616"
             width="100%"
             height="100%" />
        </g>
      </g>
    </g>
    <g
       inkscape:label=""
       transform="matrix(0.80005872,0,0,0.80005872,-160.19936,86.619613)"
       id="g3298">
      <g
         id="g810">
        <g
           style="fill:#000000;fill-opacity:1"
           id="g2635">
          <use
             xlink:href="#symbol1294"
             x="91.925003"
             y="81.962997"
             id="use7778"
             width="100%"
             height="100%" />
        </g>
        <g
           style="fill:#000000;fill-opacity:1"
           id="g3346">
          <use
             xlink:href="#symbol2769"
             x="104.89"
             y="81.962997"
             id="use5267"
             width="100%"
             height="100%" />
        </g>
        <g
           style="fill:#000000;fill-opacity:1"
           id="g537">
          <use
             xlink:href="#symbol8761"
             x="114.853"
             y="81.962997"
             id="use9111"
             width="100%"
             height="100%" />
        </g>
      </g>
    </g>
    <ellipse
       style="fill:none;fill-rule:evenodd;stroke:none;stroke-width:0.3;stroke-linecap:round;stroke-linejoin:round;stroke-miterlimit:4;stroke-dasharray:none;stroke-dashoffset:0;paint-order:markers stroke fill"
       id="path841-9"
       cx="-0.028112775"
       cy="150.10828"
       rx="61.051723"
       ry="35.248226" />
    <text
       xml:space="preserve"
       style="font-size:10.5833px;line-height:1.25;font-family:sans-serif;letter-spacing:0px;word-spacing:0px;stroke-width:0.264583"
       id="text3341"><textPath
         xlink:href="#path841-9"
         id="textPath3343"><tspan
           id="tspan3339"
           style="stroke-width:0.264583"
           dx="47.421219 0 0.06681738 108.77929">......</tspan></textPath></text>
    <g
       inkscape:label=""
       transform="matrix(0.79996537,0,0,0.79996537,-53.387945,38.031815)"
       id="g3546">
      <g
         id="g3331">
        <g
           style="fill:#000000;fill-opacity:1"
           id="g1795">
          <use
             xlink:href="#symbol86"
             x="92.184998"
             y="79.334"
             id="use1432"
             width="100%"
             height="100%" />
        </g>
        <g
           style="fill:#000000;fill-opacity:1"
           id="g9305">
          <use
             xlink:href="#symbol967"
             x="91.925003"
             y="81.962997"
             id="use1813"
             width="100%"
             height="100%" />
        </g>
      </g>
    </g>
    <path
       style="fill:none;fill-rule:evenodd;stroke:#000000;stroke-width:0.264999;stroke-linecap:round;stroke-linejoin:round;stroke-miterlimit:4;stroke-dasharray:none;stroke-dashoffset:0;marker-start:url(#marker1771-2);paint-order:markers stroke fill"
       id="path1645-8"
       sodipodi:type="arc"
       sodipodi:cx="0"
       sodipodi:cy="150"
       sodipodi:rx="7.2108088"
       sodipodi:ry="12.489487"
       sodipodi:start="5.4977871"
       sodipodi:end="0.78539816"
       sodipodi:arc-type="slice"
       d="M 5.0988115,141.1686 A 7.2108088,12.489487 0 0 1 7.2108088,150 7.2108088,12.489487 0 0 1 5.0988118,158.8314 L 0,150 Z" />
    <path
       style="fill:none;stroke:#000000;stroke-width:0.265;stroke-linecap:butt;stroke-linejoin:miter;stroke-opacity:1;marker-start:url(#marker1503);stroke-miterlimit:4;stroke-dasharray:none"
       d="M 0,150 30.310889,97.5"
       id="path1317" />
    <path
       style="fill:none;stroke:#808080;stroke-width:0.26499999;stroke-linecap:butt;stroke-linejoin:miter;stroke-opacity:1;stroke-miterlimit:4;stroke-dasharray:0.79499996,0.79499996;stroke-dashoffset:0"
       d="m 0,150 6.7631891,3.90473"
       id="path6210" />
    <g
       inkscape:label=""
       transform="matrix(0.42013129,0,0,0.42013129,-35.085206,116.43541)"
       id="g1447">
      <g
         id="g3669">
        <g
           style="fill:#000000;fill-opacity:1"
           id="g5813">
          <use
             xlink:href="#symbol5131"
             x="91.925003"
             y="81.962997"
             id="use9295"
             width="100%"
             height="100%" />
        </g>
      </g>
    </g>
  </g>
</svg>
